<svg width="309" height="232" viewBox="0 0 309 232" fill="none" xmlns="http://www.w3.org/2000/svg">
<path d="M74.9436 156.866H55.5374V194.957H74.9436V156.866Z" fill="#5D2866"/>
<path d="M94.3135 208.182H34.8239C32.7256 208.182 31.0247 206.482 31.0247 204.385V196.229C31.0247 194.132 32.7256 192.432 34.8239 192.432H94.3135C96.4118 192.432 98.1127 194.132 98.1127 196.229V204.386C98.1127 206.482 96.4118 208.182 94.3135 208.182Z" fill="#5D2866"/>
<path d="M179.136 171.985H6.4932C2.92403 171.985 0.0307617 169.094 0.0307617 165.527V58.7122C0.0307617 55.1452 2.92403 52.2537 6.4932 52.2537H179.136C182.705 52.2537 185.598 55.1452 185.598 58.7122V165.526C185.599 169.094 182.705 171.985 179.136 171.985Z" fill="#5D2866"/>
<path d="M170.584 154.899H15.0478C12.055 154.899 9.6291 152.475 9.6291 149.484V66.4332C9.6291 63.4422 12.055 61.0178 15.0478 61.0178H170.584C173.577 61.0178 176.003 63.4422 176.003 66.4332V149.484C176.003 152.474 173.577 154.899 170.584 154.899Z" fill="#A76FA8"/>
<path d="M154.329 82.5895H31.2969C28.9323 82.5895 27.0155 80.674 27.0155 78.3108C27.0155 75.9477 28.9323 74.0315 31.2969 74.0315H154.329C156.694 74.0315 158.611 75.947 158.611 78.3108C158.611 80.674 156.694 82.5895 154.329 82.5895Z" fill="#D098D3"/>
<path d="M154.329 97.0019H31.2969C28.9323 97.0019 27.0155 95.0864 27.0155 92.7225C27.0155 90.3587 28.9323 88.4438 31.2969 88.4438H154.329C156.694 88.4438 158.611 90.3594 158.611 92.7225C158.611 95.0857 156.694 97.0019 154.329 97.0019Z" fill="#D098D3"/>
<path d="M154.329 111.414H31.2969C28.9323 111.414 27.0155 109.498 27.0155 107.135C27.0155 104.772 28.9323 102.856 31.2969 102.856H154.329C156.694 102.856 158.611 104.772 158.611 107.135C158.611 109.498 156.694 111.414 154.329 111.414Z" fill="#D098D3"/>
<path d="M65.2434 166.121C67.2383 166.121 68.8556 164.505 68.8556 162.511C68.8556 160.518 67.2383 158.901 65.2434 158.901C63.2484 158.901 61.6311 160.518 61.6311 162.511C61.6311 164.505 63.2484 166.121 65.2434 166.121Z" fill="#A76FA8"/>
<path d="M292.124 199.129H105.305V90.974C105.305 86.3726 109.037 82.6416 113.642 82.6416H283.787C288.392 82.6416 292.124 86.3719 292.124 90.974V199.129Z" fill="#FFC9B8"/>
<path d="M279.28 188.478H118.116C115.072 188.478 112.604 186.011 112.604 182.969V100.106C112.604 97.063 115.072 94.5969 118.116 94.5969H279.28C282.324 94.5969 284.792 97.0636 284.792 100.106V182.968C284.792 186.011 282.324 188.478 279.28 188.478Z" fill="#FFEEEB"/>
<path d="M303.757 208.182H95.5654C92.6869 208.182 90.3532 205.85 90.3532 202.973V202.731C90.3532 199.854 92.6869 197.522 95.5654 197.522H303.757C306.635 197.522 308.969 199.854 308.969 202.731V202.973C308.969 205.85 306.635 208.182 303.757 208.182Z" fill="#FF997D"/>
<path d="M85.7524 204.455H54.363C54.172 204.455 54.0166 204.3 54.0166 204.109C54.0166 203.918 54.1713 203.763 54.363 203.763H85.7524C85.9434 203.763 86.0988 203.918 86.0988 204.109C86.0981 204.3 85.9434 204.455 85.7524 204.455Z" fill="#D098D3"/>
<path d="M3.23104 101.117C3.04016 101.117 2.8849 100.962 2.8849 100.771V61.018C2.8849 60.8271 3.03949 60.6719 3.23104 60.6719C3.42259 60.6719 3.57718 60.8265 3.57718 61.018V100.771C3.57718 100.961 3.42259 101.117 3.23104 101.117Z" fill="#D098D3"/>
<path d="M163.071 87.5072H117.602C117.411 87.5072 117.256 87.3526 117.256 87.1611C117.256 86.9702 117.411 86.8149 117.602 86.8149H163.071C163.262 86.8149 163.417 86.9695 163.417 87.1611C163.417 87.352 163.262 87.5072 163.071 87.5072Z" fill="#FFEEEB"/>
<path d="M226.062 203.199H171.361C171.17 203.199 171.015 203.044 171.015 202.853C171.015 202.661 171.17 202.507 171.361 202.507H226.062C226.253 202.507 226.409 202.661 226.409 202.853C226.409 203.044 226.254 203.199 226.062 203.199Z" fill="#A76FA8"/>
<path d="M193.224 138.155H145.832C144.133 138.155 142.755 136.778 142.755 135.079V114.166C142.755 112.468 144.133 111.09 145.832 111.09H193.224C194.924 111.09 196.302 112.468 196.302 114.166V135.079C196.302 136.779 194.924 138.155 193.224 138.155Z" fill="#AACCC8"/>
<path d="M193.224 173.291H145.832C144.133 173.291 142.755 171.914 142.755 170.216V149.302C142.755 147.604 144.133 146.227 145.832 146.227H193.224C194.924 146.227 196.302 147.604 196.302 149.302V170.216C196.302 171.915 194.924 173.291 193.224 173.291Z" fill="#AACCC8"/>
<path d="M253.54 138.155H206.148C204.448 138.155 203.07 136.778 203.07 135.079V114.166C203.07 112.468 204.448 111.09 206.148 111.09H253.54C255.239 111.09 256.617 112.468 256.617 114.166V135.079C256.617 136.779 255.239 138.155 253.54 138.155Z" fill="#AACCC8"/>
<path d="M253.54 173.291H206.148C204.448 173.291 203.07 171.914 203.07 170.216V149.302C203.07 147.604 204.448 146.227 206.148 146.227H253.54C255.239 146.227 256.617 147.604 256.617 149.302V170.216C256.617 171.915 255.239 173.291 253.54 173.291Z" fill="#AACCC8"/>
<path d="M256.99 224.382C256.845 224.382 256.699 224.341 256.571 224.255C256.228 224.023 256.137 223.557 256.368 223.214L284.104 182.108C284.336 181.765 284.803 181.674 285.145 181.905C285.489 182.137 285.579 182.603 285.348 182.946L257.612 224.052C257.467 224.267 257.231 224.382 256.99 224.382Z" fill="#81538C"/>
<path d="M284.728 224.382C284.484 224.382 284.245 224.263 284.1 224.044L259.882 187.176C259.654 186.83 259.751 186.366 260.097 186.138C260.445 185.912 260.908 186.008 261.136 186.353L285.354 223.221C285.582 223.568 285.485 224.032 285.139 224.26C285.012 224.343 284.869 224.382 284.728 224.382Z" fill="#81538C"/>
<path d="M265.545 195.178C265.137 195.178 264.803 194.854 264.795 194.445C264.786 194.031 265.115 193.688 265.528 193.679L276.845 193.436C277.269 193.436 277.603 193.761 277.612 194.169C277.621 194.583 277.292 194.926 276.878 194.936L265.561 195.178C265.555 195.178 265.55 195.178 265.545 195.178Z" fill="#81538C"/>
<path d="M284.691 152.035C284.691 152.035 294.822 158.091 292.569 171.376C289.976 186.66 274.729 191.615 261.504 188.005C248.278 184.394 250.482 173.98 250.482 173.98L284.691 152.035Z" fill="#286C7C"/>
<path d="M226.711 213.578C226.711 213.578 217.016 218.219 214.149 220.924C211.283 223.629 211.137 225.471 211.467 226.377C211.797 227.282 231.852 226.383 231.852 226.383C231.852 226.383 232.069 220.879 234.206 221.234C236.342 221.589 235.175 226.521 235.175 226.521L241.238 226.463C241.238 226.463 241.518 220.99 241.077 218.842C240.602 216.524 239.256 213.394 239.256 213.394L226.711 213.578Z" fill="#62A39B"/>
<path d="M228.78 211.977C228.78 211.977 220.437 216.681 221.96 217.169C223.482 217.657 232.08 217.74 234.601 216.824C237.121 215.907 239.23 213.296 239.23 213.296L233.509 210.588L228.78 211.977Z" fill="#F48462"/>
<path d="M239.23 213.295L240.312 208.519L230.058 206.438L228.571 214.009L239.23 213.295Z" fill="#F48462"/>
<path d="M252.964 208.312C252.964 208.312 247.015 217.26 245.94 221.051C244.864 224.842 245.683 226.499 246.43 227.108C247.177 227.717 263.942 216.681 263.942 216.681C263.942 216.681 261.308 211.841 263.325 211.053C265.342 210.265 266.867 215.098 266.867 215.098L272.045 211.946C272.045 211.946 269.481 207.102 268.002 205.482C266.407 203.734 263.646 201.734 263.646 201.734L252.964 208.312Z" fill="#62A39B"/>
<path d="M253.921 205.878C253.921 205.878 249.165 214.188 250.723 213.829C252.281 213.469 259.708 209.139 261.403 207.062C263.099 204.985 263.571 201.663 263.571 201.663L257.27 202.266L253.921 205.878Z" fill="#F48462"/>
<path d="M263.572 201.663L262.054 197.007L252.18 200.467L254.783 207.731L263.572 201.663Z" fill="#F48462"/>
<path d="M256.515 177.314L266.339 200.559L249.714 206.438L243.787 192.377L248.7 177.314H256.515Z" fill="#FFBA57"/>
<path d="M277.997 167.556C277.997 167.556 279.07 179.805 276.058 181.372C273.046 182.939 251.048 185.333 249.931 186.312C248.815 187.292 241.323 211.047 241.323 211.047L222.993 209.215C222.993 209.215 229.617 176.486 234.44 173.155C238.064 170.652 258.138 167.556 258.138 167.556H277.997Z" fill="#FFBA57"/>
<path d="M265.262 125.796C265.262 125.796 269.098 124.085 272.518 126.25C275.937 128.415 274.668 133.44 274.668 133.44C274.668 133.44 279.267 137.909 279.77 142.462C280.272 147.014 277.919 148.208 277.919 148.208L270.216 144.738L267.184 130.47L265.262 125.796Z" fill="#5D2866"/>
<path d="M256.674 143.54C256.674 143.54 255.554 139.769 257.149 137.67C258.829 135.459 261.562 135.32 261.548 133.493C261.516 129.25 264.593 127.291 264.593 127.291L264.722 144L256.674 143.54Z" fill="#5D2866"/>
<path d="M262.629 140.513C262.629 140.513 257.939 140.808 255.916 143.23C254.502 144.924 248.052 150.915 247.085 152.111C246.209 153.195 241.129 154.818 239.401 153.964C239.257 153.893 239.096 153.973 239.065 154.132C238.695 156.02 236.171 158.426 236.662 162.796C236.749 163.567 244.101 169.278 250.977 167.04C257.853 164.801 260.163 158.303 260.163 158.303L262.629 140.513Z" fill="#A76FA8"/>
<path d="M252.906 169.391C252.906 169.391 266.96 171.736 267.207 169.848C267.774 165.534 271.005 142.883 271.005 142.883L269.08 139.844L262.929 140.567C262.929 140.567 259.982 140.882 257.097 148.78C254.214 156.678 252.906 169.391 252.906 169.391Z" fill="#A76FA8"/>
<path d="M269.685 137.038L269.574 141.456C269.574 141.456 268.745 142.706 266.154 142.851C264.223 142.959 263.638 141.955 263.638 141.955L264.201 138.1L268.897 137.191L269.685 137.038Z" fill="#F48462"/>
<path d="M268.898 137.191C268.884 137.311 268.834 137.452 268.759 137.614C267.715 139.797 264.998 140.205 263.883 140.276L264.202 138.1L268.898 137.191Z" fill="black"/>
<path d="M263.471 128.004C263.471 128.004 261.011 133.485 261.848 136.586C262.686 139.686 265.51 139.227 267.202 138.645C268.895 138.064 269.688 137.038 269.688 137.038C269.688 137.038 271.258 137.587 272.326 136.132C273.394 134.678 272.761 132.99 271.865 132.596C270.969 132.202 269.893 132.841 269.893 132.841L270.747 131.249C270.747 131.249 267.297 123.087 263.471 128.004Z" fill="#F48462"/>
<path d="M269.893 132.842C269.893 132.842 267.525 133.32 265.88 130.686C264.234 128.051 264.385 126.969 264.385 126.969L262.746 129.689C262.746 129.689 262.379 127.803 263.134 126.601C263.888 125.399 264.672 125.648 264.672 125.648L269.894 126.952L271.27 131.135L269.893 132.842Z" fill="#5D2866"/>
<path d="M263.658 135.019C263.575 135.019 263.499 134.966 263.473 134.882C263.108 133.695 263.947 132.493 263.983 132.443C264.046 132.356 264.167 132.334 264.253 132.397C264.341 132.459 264.361 132.579 264.3 132.667C264.291 132.678 263.536 133.766 263.843 134.768C263.874 134.87 263.817 134.979 263.715 135.01C263.696 135.016 263.677 135.019 263.658 135.019Z" fill="black"/>
<path d="M266.109 131.228C266.029 131.228 265.955 131.179 265.926 131.101C265.621 130.252 265.171 130.348 265.151 130.35C265.049 130.372 264.942 130.311 264.917 130.209C264.892 130.107 264.95 130.004 265.052 129.975C265.085 129.968 265.86 129.769 266.291 130.969C266.328 131.07 266.276 131.181 266.174 131.217C266.153 131.225 266.13 131.228 266.109 131.228Z" fill="black"/>
<path d="M262.633 130.383C262.618 130.383 262.602 130.381 262.587 130.377C262.483 130.351 262.42 130.247 262.445 130.143C262.455 130.099 262.559 129.707 262.9 129.571C263.12 129.483 263.373 129.527 263.652 129.704C263.742 129.762 263.768 129.882 263.71 129.972C263.651 130.062 263.532 130.087 263.442 130.031C263.33 129.958 263.169 129.88 263.045 129.93C262.912 129.982 262.839 130.168 262.822 130.235C262.799 130.324 262.72 130.383 262.633 130.383Z" fill="black"/>
<path d="M270.12 135.443C270.073 135.443 270.024 135.425 269.987 135.389C269.909 135.316 269.906 135.193 269.98 135.116L271.48 133.536C271.554 133.457 271.677 133.455 271.754 133.528C271.832 133.602 271.835 133.725 271.761 133.802L270.261 135.382C270.223 135.423 270.172 135.443 270.12 135.443Z" fill="black"/>
<path d="M271.706 135.022C271.676 135.02 270.642 134.861 270.642 134.861C270.536 134.845 270.463 134.745 270.48 134.64C270.496 134.534 270.595 134.462 270.701 134.478L271.735 134.637C271.841 134.653 271.914 134.753 271.898 134.858C271.883 134.954 271.801 135.022 271.706 135.022Z" fill="black"/>
<path d="M263.035 170.539C263.035 170.539 269.56 140.323 269.57 140.065C269.58 139.807 269.581 139.807 269.581 139.807C269.581 139.807 275.263 141.47 277.225 143.863C278.65 145.603 276.294 169.745 275.609 170.196C274.924 170.647 263.035 170.539 263.035 170.539Z" fill="#A76FA8"/>
<path d="M252.909 169.391C252.909 169.391 254.434 162.694 257.957 153.455C261.511 144.135 263.885 140.276 263.885 140.276C263.885 140.276 259.572 140.851 258.064 141.678C257.001 142.261 252.866 151.449 252.164 158.053C251.461 164.656 251.059 168.923 251.059 168.923C251.394 169.214 252.909 169.391 252.909 169.391Z" fill="#A76FA8"/>
<path d="M247.863 156.19C247.725 156.19 247.589 156.154 247.461 156.084C246.431 155.518 246.083 152.763 246.047 152.451C246.038 152.373 246.078 152.297 246.146 152.259C246.216 152.222 246.301 152.228 246.362 152.279C246.619 152.489 248.867 154.365 248.735 155.479C248.713 155.666 248.613 155.925 248.269 156.092C248.133 156.157 247.996 156.19 247.863 156.19ZM246.507 152.914C246.671 153.88 247.047 155.414 247.648 155.744C247.79 155.822 247.933 155.821 248.101 155.742C248.303 155.644 248.341 155.519 248.35 155.434C248.426 154.792 247.269 153.6 246.507 152.914Z" fill="#431949"/>
<path d="M266.262 143C264.507 143 263.551 142.139 263.506 142.097C263.428 142.024 263.423 141.902 263.495 141.823C263.568 141.745 263.691 141.741 263.769 141.812C263.78 141.822 264.91 142.832 266.936 142.568C268.928 142.311 269.382 141.009 269.4 140.954C269.433 140.853 269.543 140.798 269.644 140.83C269.745 140.863 269.801 140.972 269.768 141.073C269.747 141.138 269.232 142.663 266.985 142.953C266.731 142.986 266.489 143 266.262 143Z" fill="#5D2866"/>
<path d="M262.692 132.867C262.556 132.849 262.481 132.749 262.497 132.64L262.632 131.718L262.302 131.309C262.234 131.224 262.247 131.099 262.332 131.031C262.417 130.963 262.541 130.976 262.61 131.061L262.994 131.537C263.029 131.58 263.044 131.636 263.036 131.691L262.888 132.699C262.874 132.796 262.789 132.867 262.692 132.867Z" fill="black"/>
<path d="M265.694 133.109C265.561 133.093 265.484 132.994 265.498 132.886L265.615 131.972L265.121 131.485C265.043 131.409 265.042 131.283 265.119 131.206C265.195 131.128 265.319 131.127 265.398 131.204L265.962 131.759C266.006 131.802 266.027 131.863 266.019 131.924L265.89 132.936C265.877 133.035 265.792 133.109 265.694 133.109Z" fill="black"/>
<path d="M254.251 152.273C254.236 152.273 254.219 152.271 254.203 152.267C254.099 152.24 254.037 152.135 254.064 152.031L255.136 147.881C255.162 147.778 255.266 147.717 255.372 147.741C255.476 147.768 255.538 147.874 255.512 147.978L254.44 152.128C254.417 152.216 254.338 152.273 254.251 152.273Z" fill="#5D2866"/>
<path d="M264.403 136.984C263.852 136.984 263.178 136.517 263.094 136.456C263.03 136.412 263 136.333 263.017 136.258C263.033 136.182 263.093 136.123 263.169 136.108L265.568 135.636C265.645 135.621 265.724 135.654 265.767 135.719C265.811 135.785 265.811 135.87 265.767 135.935C265.707 136.023 265.168 136.803 264.615 136.957C264.548 136.976 264.476 136.984 264.403 136.984ZM263.739 136.391C264.016 136.531 264.324 136.638 264.511 136.583C264.712 136.527 264.94 136.322 265.127 136.119L263.739 136.391Z" fill="black"/>
<path d="M245.445 197.731C245.422 197.731 245.398 197.727 245.375 197.718C245.276 197.679 245.226 197.567 245.265 197.467C245.436 197.029 249.46 186.718 250.241 185.786C251.04 184.832 258.108 184.331 258.912 184.277C259.038 184.282 259.111 184.351 259.119 184.457C259.126 184.564 259.046 184.657 258.939 184.664C255.968 184.864 251.061 185.412 250.539 186.035C249.947 186.742 247.068 193.914 245.627 197.608C245.596 197.685 245.523 197.731 245.445 197.731Z" fill="#5D2866"/>
<path d="M250.386 186.104C250.351 186.104 250.316 186.095 250.286 186.077C250.158 185.999 247.135 184.154 246.858 182.617C246.795 182.271 246.87 181.962 247.078 181.698C247.326 181.384 247.597 181.352 247.782 181.385C249.014 181.588 250.413 185.411 250.569 185.846C250.597 185.923 250.573 186.009 250.509 186.061C250.474 186.09 250.431 186.104 250.386 186.104ZM247.669 181.763C247.596 181.763 247.497 181.794 247.383 181.938C247.244 182.114 247.197 182.313 247.239 182.548C247.424 183.571 249.136 184.845 249.998 185.427C249.393 183.886 248.394 181.878 247.718 181.768C247.704 181.765 247.687 181.763 247.669 181.763Z" fill="#5D2866"/>
<path d="M286.703 179.824C286.651 179.824 286.598 179.803 286.56 179.762C286.487 179.684 286.492 179.561 286.571 179.488C289.843 176.463 290.474 170.525 290.48 170.466C290.49 170.359 290.586 170.283 290.692 170.291C290.798 170.302 290.876 170.397 290.866 170.503C290.841 170.753 290.213 176.65 286.835 179.772C286.798 179.807 286.75 179.824 286.703 179.824Z" fill="#28A09A"/>
<path d="M241.233 167.336H261.009C261.711 167.336 262.28 166.768 262.28 166.066V152.631C262.28 151.93 261.711 151.36 261.009 151.36H241.233C240.531 151.36 239.961 151.929 239.961 152.631V166.066C239.962 166.768 240.531 167.336 241.233 167.336Z" fill="white"/>
<path d="M239.755 167.337H259.614C260.318 167.337 260.888 166.767 260.888 166.064V152.634C260.888 151.931 260.318 151.361 259.614 151.361H239.755C239.051 151.361 238.481 151.931 238.481 152.634V166.064C238.481 166.767 239.051 167.337 239.755 167.337Z" fill="#5D2866"/>
<path d="M248.288 161.229C249.327 161.229 250.169 160.387 250.169 159.349C250.169 158.311 249.327 157.469 248.288 157.469C247.249 157.469 246.407 158.311 246.407 159.349C246.407 160.387 247.249 161.229 248.288 161.229Z" fill="white"/>
<path d="M241.839 158.632C241.656 158.285 241.373 158.003 241.051 157.78C239.96 157.025 236.53 155.449 235.512 156.414C234.537 157.339 236.416 158.273 236.416 158.273C236.416 158.273 234.752 157.823 234.832 159.062C234.9 160.096 235.96 160.437 235.96 160.437C235.96 160.437 234.184 160.134 234.83 161.616C235.475 163.097 239.147 164.416 240.499 164.374C241.851 164.333 240.893 162.561 240.893 162.561C240.893 162.561 242.345 162.325 242.345 161.521C242.345 160.67 241.203 160.346 241.203 160.346C241.203 160.346 242.497 159.879 241.839 158.632Z" fill="#F48462"/>
<path d="M240.778 160.436C240.751 160.436 240.724 160.431 240.697 160.42L236.335 158.45C236.239 158.406 236.195 158.291 236.239 158.193C236.283 158.095 236.397 158.052 236.496 158.096L240.858 160.066C240.956 160.11 240.999 160.225 240.955 160.323C240.922 160.394 240.851 160.436 240.778 160.436Z" fill="black"/>
<path d="M240.362 162.552C240.335 162.552 240.309 162.547 240.284 162.536L235.883 160.615C235.785 160.572 235.74 160.458 235.784 160.36C235.826 160.262 235.942 160.217 236.039 160.26L240.44 162.182C240.538 162.224 240.583 162.339 240.539 162.437C240.508 162.509 240.436 162.552 240.362 162.552Z" fill="black"/>
<path d="M266.622 160.173C266.622 160.173 264.863 158.892 263.97 158.519C263.125 158.167 262.283 157.961 262.283 157.961L261.972 159.441C261.972 159.441 258.835 159.678 256.539 160.45C254.242 161.221 254.496 162.25 254.496 162.25C254.496 162.25 253.008 162.936 253.511 163.603C254.014 164.27 256.339 164 256.339 164C256.339 164 253.361 164.675 254.442 165.473C255.524 166.271 258.129 166.437 258.129 166.437C258.129 166.437 263.606 168.198 265.734 166.509C267.86 164.82 266.622 160.173 266.622 160.173Z" fill="#F48462"/>
<path d="M261.97 159.607C261.889 159.607 261.817 159.548 261.806 159.465C261.792 159.375 261.854 159.29 261.946 159.277L263.727 159.011C263.819 158.997 263.903 159.06 263.916 159.151C263.93 159.242 263.867 159.326 263.776 159.339L261.994 159.605C261.986 159.606 261.977 159.607 261.97 159.607Z" fill="black"/>
<path d="M254.647 162.28C254.565 162.28 254.494 162.22 254.483 162.138C254.469 162.046 254.533 161.962 254.623 161.95L259.157 161.302C259.248 161.289 259.332 161.352 259.345 161.443C259.358 161.534 259.295 161.618 259.204 161.631L254.67 162.278C254.663 162.279 254.655 162.28 254.647 162.28Z" fill="black"/>
<path d="M256.037 164.193C255.956 164.193 255.884 164.134 255.873 164.052C255.859 163.96 255.922 163.876 256.013 163.863L258.856 163.447C258.955 163.432 259.033 163.496 259.045 163.587C259.059 163.678 258.996 163.762 258.905 163.775L256.062 164.191C256.053 164.193 256.044 164.193 256.037 164.193Z" fill="black"/>
<path d="M274.009 141.712C274.009 141.712 288.384 148.822 287.837 162.114C287.366 173.587 266.606 170.245 265.924 170.253C264.613 170.269 265.14 156.911 265.545 156.536C265.951 156.161 272.395 155.686 272.395 155.686L274.009 141.712Z" fill="#A76FA8"/>
<path d="M267.279 156.466C267.183 156.466 267.101 156.397 267.087 156.3C267.072 156.195 267.145 156.096 267.251 156.081L275.764 154.856C276.157 154.692 279.966 153.202 281.082 154.454C281.34 154.744 281.309 154.961 281.238 155.092C280.806 155.895 276.96 155.41 275.776 155.24L267.306 156.464C267.298 156.465 267.288 156.466 267.279 156.466ZM276.604 154.957C278.657 155.201 280.713 155.252 280.897 154.909C280.911 154.885 280.883 154.813 280.792 154.711C280.138 153.978 277.966 154.502 276.604 154.957Z" fill="#5D2866"/>
<path d="M32.4505 18.7769C32.4505 18.7769 31.6381 12.8697 31.2998 12.5464C30.9615 12.2231 23.7082 6.17475 23.3847 4.42255C23.0612 2.67035 24.3222 1.88062 24.3222 1.88062C24.3222 1.88062 44.0027 8.84169 44.532 9.44122C45.0613 10.0407 42.4593 18.6035 42.4593 18.6035L32.4505 18.7769Z" fill="#F48462"/>
<path d="M23.7771 2.42767L44.4739 10.8748L45.4773 8.01159L24.601 0L23.7771 2.42767Z" fill="black"/>
<path d="M26.1475 7.8805L28.4772 10.0662L31.8184 5.70823L29.4726 4.0918L26.1475 7.8805Z" fill="black"/>
<path d="M52.8517 21.1727C52.8517 21.1727 53.1261 15.2158 52.8517 14.8367C52.5773 14.4576 46.5433 7.19408 46.5433 5.41231C46.5433 3.63054 47.9267 3.08276 47.9267 3.08276C47.9267 3.08276 66.016 13.4985 66.4276 14.1834C66.8392 14.8689 62.7253 22.8174 62.7253 22.8174L52.8517 21.1727Z" fill="#F48462"/>
<path d="M74.4798 35.9441C74.4798 35.9441 71.6786 32.9263 59.8857 32.6749C48.0927 32.4235 44.8503 33.3779 44.8503 33.3779L45.3097 15.9213L30.4627 13.9856C30.4627 13.9856 23.6229 31.9201 23.7702 40.3419C23.9175 48.7637 30.846 51.7809 33.0573 52.2836C35.2687 52.7864 75.4536 52.5068 75.4536 52.5068L74.4798 35.9441Z" fill="#FFBA57"/>
<path d="M44.2597 34.7505L50.9791 16.709L65.8019 17.9074L61.3597 33.2329L44.2597 34.7505Z" fill="#FFBA57"/>
<path d="M61.4853 41.241L72.8405 52.2784C72.8405 52.2784 76.6746 53.3988 81.6561 53.5319C86.6369 53.665 90.5142 53.5319 90.5142 53.5319L93.0389 50.4664L96.5953 53.591L108.777 43.0019C108.777 43.0019 102.586 37.8212 94.7727 34.2906C86.9598 30.7593 75.4903 30.5779 61.4853 41.241Z" fill="#62A39B"/>
<path d="M95.4347 51.0715C95.3224 51.0715 95.2317 50.9807 95.2317 50.8685L95.2364 39.9359C95.2364 39.8236 95.3271 39.7329 95.4394 39.7329C95.5516 39.7329 95.6423 39.8236 95.6423 39.9359L95.6376 50.8685C95.637 50.9807 95.5462 51.0715 95.4347 51.0715Z" fill="#5D2866"/>
<path d="M72.122 49.7001C72.0628 49.7001 72.0043 49.6739 71.9653 49.6262C71.9102 49.559 71.9041 49.4642 71.9498 49.3903C72.1967 48.9924 74.4046 45.4994 75.7779 45.4792C76.0806 45.4907 76.2998 45.609 76.47 45.8664C76.6455 46.1319 76.6838 46.4222 76.585 46.728C76.1102 48.1946 72.354 49.6269 72.194 49.6867C72.1704 49.6954 72.1462 49.7001 72.122 49.7001ZM75.7914 45.8852C74.9487 45.8973 73.4577 47.8558 72.6439 49.0663C73.8888 48.532 75.9077 47.5016 76.1983 46.603C76.2595 46.4148 76.238 46.2522 76.131 46.0902C76.0113 45.9087 75.8808 45.8852 75.7914 45.8852Z" fill="#5D2866"/>
<path d="M101.351 49.0001L107.746 43.8994C107.746 43.8994 109.752 46.4057 109.289 51.8707C108.749 58.2611 99.7557 60.0187 99.7557 60.0187L98.2977 54.7057L101.351 49.0001Z" fill="#F48462"/>
<path d="M80.9407 50.3951C80.9407 50.3951 80.5608 47.6058 82.2139 48.0702C83.8663 48.5353 83.0882 50.9758 83.0882 50.9758L80.9407 50.3951Z" fill="#F48462"/>
<path d="M82.2838 30.0278L81.3174 33.7332C81.3174 33.7332 82.4096 35.3933 85.0688 35.6729C87.7758 35.9572 87.27 34.5854 87.27 34.5854L87.4826 32.6753L83.031 30.4082L82.2838 30.0278Z" fill="#F48462"/>
<path d="M83.0272 30.425C83.0044 30.5501 83.0097 30.706 83.0353 30.8915C83.4032 33.3971 85.9104 34.5861 87.273 34.5861L87.4411 32.7889L83.0272 30.425Z" fill="black"/>
<path d="M91.3031 22.9195C91.3031 22.9195 92.063 29.1621 90.2647 32.0031C88.4663 34.8441 85.7849 33.5106 84.273 32.405C82.7611 31.2994 82.2863 30.0277 82.2863 30.0277C82.2863 30.0277 80.5458 30.0903 79.9284 28.3058C79.311 26.5207 80.4671 25.0292 81.4853 24.913C82.5036 24.7967 83.3812 25.7686 83.3812 25.7686L83.0207 23.9129C83.0207 23.9129 89.001 16.8174 91.3031 22.9195Z" fill="#F48462"/>
<path d="M89.0057 29.8855C88.9668 29.8855 88.9271 29.8741 88.8921 29.8505C88.7994 29.7874 88.7759 29.661 88.8384 29.5689C89.4561 28.6616 89.0373 27.3395 89.0333 27.3261C88.999 27.2199 89.0568 27.105 89.1637 27.0707C89.2699 27.0357 89.3848 27.0942 89.4191 27.2004C89.4392 27.2622 89.905 28.7234 89.1738 29.7974C89.1348 29.8546 89.0709 29.8855 89.0057 29.8855Z" fill="black"/>
<path d="M82.4089 28.3083C82.3343 28.3083 82.2623 28.2666 82.2267 28.1954L81.2158 26.1501C81.1661 26.05 81.2071 25.9277 81.308 25.8786C81.4082 25.8282 81.5306 25.8699 81.5797 25.9707L82.5905 28.0159C82.6403 28.1161 82.5993 28.2377 82.4984 28.2875C82.4701 28.3016 82.4392 28.3083 82.4089 28.3083Z" fill="black"/>
<path d="M82.0355 27.5577C82.0052 27.5557 80.9211 27.395 80.9211 27.395C80.8101 27.3789 80.7334 27.2754 80.7502 27.1645C80.7671 27.0543 80.8706 26.979 80.9809 26.9938L82.0651 27.1544C82.1754 27.1706 82.2527 27.2741 82.2359 27.385C82.2211 27.4851 82.1343 27.5577 82.0355 27.5577Z" fill="black"/>
<path d="M83.3816 25.7677C83.3816 25.7677 83.8363 26.3154 84.4476 25.7952C85.0596 25.275 84.7408 23.0873 84.7408 23.0873C84.7408 23.0873 86.3287 23.9973 87.5568 23.7567C88.7848 23.5161 89.7788 22.1221 89.7788 22.1221C89.7788 22.1221 90.0593 23.9772 92.6075 23.9798C95.1558 23.9825 96.5722 20.9493 94.2835 19.5405C91.9949 18.1318 90.298 18.8147 90.298 18.8147C90.298 18.8147 90.6888 16.4179 87.2649 16.6115C84.1456 16.7876 82.5954 20.1501 82.5954 20.1501C82.5954 20.1501 80.8885 19.7126 80.0041 21.4426C79.1191 23.1726 80.8542 25.152 80.8542 25.152C80.8542 25.152 82.2894 24.8126 83.3816 25.7677Z" fill="#5D2866"/>
<path d="M87.1363 27.0653C87.1249 27.0653 87.1135 27.064 87.1014 27.062C86.9905 27.0432 86.9172 26.9383 86.9361 26.8274L87.1195 25.7608C87.1384 25.6505 87.2419 25.5739 87.3541 25.5954C87.4643 25.6142 87.5383 25.7191 87.5195 25.83L87.336 26.8966C87.3192 26.9954 87.2331 27.0653 87.1363 27.0653Z" fill="black"/>
<path d="M90.2556 27.7552C90.1137 27.7364 90.0378 27.6322 90.0546 27.522L90.2179 26.452C90.2347 26.3411 90.3402 26.2638 90.4491 26.2819C90.56 26.2987 90.636 26.4022 90.6192 26.5131L90.4559 27.5831C90.4411 27.6833 90.3544 27.7552 90.2556 27.7552Z" fill="black"/>
<path d="M86.8491 25.0436C86.8236 25.0436 86.798 25.0389 86.7731 25.0288C86.6689 24.9864 86.6191 24.8688 86.6608 24.7646C86.985 23.9588 87.9776 24.0697 88.0187 24.0737C88.1296 24.0871 88.209 24.1873 88.1955 24.2989C88.1828 24.4104 88.0799 24.4904 87.9702 24.477C87.9407 24.4736 87.2446 24.4004 87.0374 24.9165C87.0058 24.9958 86.9292 25.0436 86.8491 25.0436Z" fill="black"/>
<path d="M90.9935 25.644C90.8845 25.644 90.795 25.558 90.7903 25.4484C90.7877 25.4047 90.7466 25.0411 90.1292 25.0283C90.0169 25.0263 89.9282 24.9336 89.9308 24.8213C89.9329 24.7104 90.0237 24.623 90.134 24.623C90.9598 24.6398 91.1898 25.1628 91.1966 25.437C91.1992 25.5485 91.1111 25.642 90.9988 25.6447C90.9968 25.644 90.9955 25.644 90.9935 25.644Z" fill="black"/>
<path d="M87.6258 31.3837C87.5935 31.3837 87.5612 31.3757 87.5303 31.3596C87.4987 31.3428 86.7508 30.9355 86.8275 30.1672C86.8389 30.0557 86.9405 29.9743 87.0494 29.9851C87.1611 29.9965 87.2424 30.0953 87.2317 30.2069C87.1819 30.7076 87.7159 30.998 87.7213 31.0013C87.8202 31.0544 87.8578 31.1767 87.8054 31.2762C87.769 31.3448 87.6984 31.3837 87.6258 31.3837Z" fill="black"/>
<path d="M47.2956 3.52256L66.1147 15.5836L67.6212 12.9496L48.5466 1.28442L47.2956 3.52256Z" fill="black"/>
<path d="M48.6336 9.3141L50.5274 11.8863L54.6044 8.20713L52.5915 6.19214L48.6336 9.3141Z" fill="black"/>
<path d="M43.1255 38.3094C43.0119 38.31 42.88 38.2778 42.7375 38.1871C42.5122 38.0439 42.3743 37.8234 42.3386 37.5499C42.1739 36.2883 44.2164 34.0327 44.4531 33.7773C44.4666 33.7632 44.4793 33.7524 44.4935 33.7437C44.513 33.7309 44.5345 33.7222 44.5573 33.7168C44.8109 33.653 53.8532 31.396 61.2928 32.3975C61.4038 32.4123 61.4818 32.5144 61.467 32.626C61.4522 32.7376 61.3487 32.8162 61.2384 32.8001C54.3112 31.8685 45.9569 33.7955 44.7907 34.0778C44.708 34.8399 44.3294 37.7939 43.4053 38.2442C43.3306 38.2798 43.2365 38.3094 43.1255 38.3094ZM44.3233 34.5455C43.6266 35.3877 42.6453 36.7615 42.7408 37.4981C42.761 37.6547 42.8296 37.7643 42.9554 37.8449C43.0865 37.9283 43.1692 37.9081 43.2257 37.8792C43.7409 37.6279 44.1357 35.9052 44.3233 34.5455Z" fill="white"/>
<path d="M63.1487 42.8591C63.1487 42.8591 56.3958 51.9642 63.3747 57.0206C70.353 62.0769 80.6375 61.2717 80.6375 61.2717L82.2462 53.5914L70.2077 48.3026L63.1487 42.8591Z" fill="#F48462"/>
<path d="M82.4128 57.6603C82.4128 57.6603 83.7114 61.2568 80.6413 61.2722C77.5711 61.2877 77.8993 57.6603 77.8993 57.6603L80.9581 56.7341L82.4128 57.6603Z" fill="#F48462"/>
<path d="M99.6731 57.2019C99.6731 57.2019 97.6225 60.3299 100.693 60.3454C103.763 60.3608 104.555 56.1191 104.555 56.1191L101.128 56.2757L99.6731 57.2019Z" fill="#F48462"/>
<path d="M85.5003 35.8884C85.3618 35.8884 85.2158 35.8844 85.0605 35.875C82.1605 35.7036 80.7858 33.4849 80.7286 33.3902C80.6708 33.294 80.701 33.1697 80.7972 33.1119C80.8934 33.0534 81.0178 33.0843 81.0763 33.1798C81.0891 33.2013 82.4032 35.3111 85.0847 35.4697C87.2065 35.5974 87.4426 34.7707 87.4446 34.7619C87.4722 34.6551 87.5825 34.5892 87.6874 34.6121C87.795 34.6369 87.8636 34.7398 87.8414 34.848C87.832 34.8937 87.6033 35.8884 85.5003 35.8884Z" fill="#5D2866"/>
<path d="M98.6076 59.3466H83.2589C82.7141 59.3466 82.2722 58.905 82.2722 58.3606V47.9328C82.2722 47.3884 82.7141 46.9468 83.2589 46.9468H98.6076C99.1523 46.9468 99.5942 47.3884 99.5942 47.9328V58.3606C99.5949 58.905 99.153 59.3466 98.6076 59.3466Z" fill="white"/>
<path d="M99.7559 59.3466H84.3419C83.7958 59.3466 83.3533 58.9043 83.3533 58.3586V47.9348C83.3533 47.389 83.7958 46.9468 84.3419 46.9468H99.7559C100.302 46.9468 100.745 47.389 100.745 47.9348V58.3586C100.745 58.9043 100.302 59.3466 99.7559 59.3466Z" fill="black"/>
<path d="M98.3802 52.8316C98.5712 52.4687 98.8671 52.1736 99.2047 51.9404C100.347 51.1493 103.937 49.4999 105.003 50.5108C106.024 51.4786 104.058 52.4566 104.058 52.4566C104.058 52.4566 105.8 51.9854 105.716 53.2819C105.645 54.3647 104.535 54.7216 104.535 54.7216C104.535 54.7216 106.393 54.4044 105.718 55.9556C105.043 57.5062 101.198 58.8867 99.7831 58.8437C98.3681 58.8006 99.3702 56.9463 99.3702 56.9463C99.3702 56.9463 97.8502 56.6989 97.8509 55.8568C97.8509 54.9656 99.046 54.6275 99.046 54.6275C99.046 54.6275 97.6915 54.1382 98.3802 52.8316Z" fill="#F48462"/>
<path d="M99.4949 54.721C99.4176 54.721 99.3436 54.6766 99.31 54.6013C99.2635 54.4992 99.3093 54.3789 99.4115 54.3332L103.978 52.2718C104.079 52.2254 104.201 52.2711 104.246 52.3733C104.293 52.4754 104.247 52.5958 104.145 52.6415L99.5783 54.7028C99.5514 54.7156 99.5231 54.721 99.4949 54.721Z" fill="black"/>
<path d="M99.9321 56.9363C99.8541 56.9363 99.7794 56.8913 99.7465 56.8147C99.7014 56.7118 99.7485 56.5922 99.8507 56.5478L104.458 54.5355C104.561 54.4905 104.681 54.5369 104.725 54.6397C104.77 54.7425 104.723 54.8622 104.621 54.9065L100.013 56.9188C99.9866 56.9316 99.959 56.9363 99.9321 56.9363Z" fill="black"/>
<path d="M85.3808 52.8316C85.1898 52.4687 84.8938 52.1736 84.5562 51.9404C83.4142 51.1493 79.8236 49.4999 78.7576 50.5108C77.7367 51.4786 79.7032 52.4566 79.7032 52.4566C79.7032 52.4566 77.9613 51.9854 78.0453 53.2819C78.116 54.3647 79.2263 54.7216 79.2263 54.7216C79.2263 54.7216 77.3674 54.4044 78.0427 55.9556C78.7179 57.5062 82.5628 58.8867 83.9778 58.8437C85.3929 58.8006 84.3908 56.9463 84.3908 56.9463C84.3908 56.9463 85.91 56.6989 85.91 55.8568C85.91 54.9656 84.7149 54.6275 84.7149 54.6275C84.7149 54.6275 86.0694 54.1382 85.3808 52.8316Z" fill="#F48462"/>
<path d="M84.2722 54.721C84.244 54.721 84.2157 54.7156 84.1888 54.7028L79.6223 52.6415C79.52 52.5958 79.4743 52.4754 79.5207 52.3733C79.5664 52.2711 79.6882 52.2254 79.7891 52.2718L84.3556 54.3332C84.4578 54.3789 84.5036 54.4992 84.4572 54.6013C84.4235 54.6766 84.3495 54.721 84.2722 54.721Z" fill="black"/>
<path d="M83.8338 56.9364C83.8069 56.9364 83.7786 56.931 83.7524 56.9196L79.1448 54.9073C79.0426 54.8629 78.9955 54.7426 79.0406 54.6405C79.0849 54.5376 79.2053 54.4906 79.3076 54.5363L83.9145 56.5486C84.0167 56.5936 84.0638 56.7133 84.0187 56.8154C83.9871 56.8914 83.9124 56.9364 83.8338 56.9364Z" fill="black"/>
<path d="M114.133 163.269C114.133 163.269 114.223 148.106 120.098 146.649C125.972 145.192 126.925 149.439 126.925 149.439C126.925 149.439 128.889 149.272 129.347 152.582C129.805 155.892 128.806 164.595 128.806 164.595L114.133 163.269Z" fill="black"/>
<path d="M112.891 164.328C112.891 164.328 111.55 159.452 121.737 159.067C131.922 158.682 130.196 164.328 130.196 164.328L121.135 166.676L112.891 164.328Z" fill="#A76FA8"/>
<path d="M100.889 179.537C100.889 179.537 107.623 164.545 114.623 162.533C121.622 160.52 113.631 181.168 113.631 181.168L100.889 179.537Z" fill="#FCAF49"/>
<path d="M127.471 163.27C127.471 163.27 139.403 165.479 142.32 176.361C145.238 187.242 128.848 192.445 128.848 192.445L127.471 163.27Z" fill="#FCAF49"/>
<path d="M134.471 210.542L134.095 215.266L144.064 216.039V211.315L134.471 210.542Z" fill="white"/>
<path d="M128.974 191.121C128.974 191.121 141.706 176.858 154.026 179.986C166.347 183.113 148.277 213.033 148.277 213.033H130.357L130.97 208.334L110.611 208.809L113.206 185.709L128.974 191.121Z" fill="#286C7C"/>
<path d="M114.964 203.894H120.984L118.371 214.015H114.538L114.964 203.894Z" fill="white"/>
<path d="M103.452 191.647C103.452 191.647 80.9566 197.574 79.6424 206.162C78.329 214.751 94.4202 218.488 101.973 219.024C109.527 219.56 115.947 219.024 115.947 219.024V188.526L103.452 191.647Z" fill="#286C7C"/>
<path d="M108.451 191.648C108.451 191.648 109.349 164.661 114.622 162.533C120.388 160.205 130.126 163.049 131.951 166.656C133.777 170.263 128.975 191.122 128.975 191.122C128.975 191.122 118.262 193.709 108.451 191.648Z" fill="#FCAF49"/>
<path d="M124.592 158.505L124.495 162.91C124.495 162.91 123.671 164.158 121.089 164.31C119.165 164.424 118.5 163.975 118.5 163.975L118.817 161.75L119.129 159.581L123.807 158.661L124.592 158.505Z" fill="#F48462"/>
<path d="M123.806 158.66C123.792 158.78 123.744 158.921 123.669 159.082C122.634 161.261 119.928 161.675 118.817 161.749L119.129 159.58L123.806 158.66Z" fill="black"/>
<path d="M118.363 149.52C118.363 149.52 115.928 154.991 116.771 158.079C117.614 161.167 120.428 160.701 122.114 160.116C123.799 159.531 124.587 158.506 124.587 158.506C124.587 158.506 126.154 159.049 127.213 157.597C128.274 156.145 127.639 154.464 126.744 154.074C125.85 153.684 124.779 154.324 124.779 154.324L125.626 152.735C125.626 152.735 122.163 144.608 118.363 149.52Z" fill="#F48462"/>
<path d="M118.749 156.526C118.667 156.536 118.585 156.493 118.549 156.415C118.033 155.291 118.701 153.992 118.729 153.938C118.779 153.844 118.896 153.807 118.99 153.857C119.085 153.906 119.121 154.023 119.072 154.117C119.066 154.129 118.464 155.304 118.9 156.253C118.945 156.35 118.902 156.465 118.805 156.509C118.786 156.518 118.768 156.523 118.749 156.526Z" fill="black"/>
<path d="M125.015 156.914C124.967 156.914 124.92 156.897 124.883 156.862C124.805 156.789 124.801 156.666 124.875 156.588L126.366 155.009C126.439 154.932 126.561 154.928 126.639 155.001C126.717 155.074 126.719 155.196 126.647 155.274L125.156 156.853C125.118 156.894 125.066 156.914 125.015 156.914Z" fill="black"/>
<path d="M126.594 156.492C126.565 156.49 125.534 156.334 125.534 156.334C125.427 156.317 125.355 156.219 125.371 156.114C125.387 156.009 125.483 155.935 125.591 155.951L126.622 156.107C126.729 156.123 126.801 156.222 126.785 156.327C126.771 156.422 126.688 156.492 126.594 156.492Z" fill="black"/>
<path d="M120.315 158.199C119.746 158.199 119.288 157.738 119.264 157.714C119.217 157.667 119.198 157.598 119.214 157.533C119.229 157.468 119.278 157.417 119.341 157.395L121.487 156.682C121.556 156.66 121.63 156.677 121.682 156.726C121.734 156.776 121.753 156.851 121.733 156.92C121.723 156.953 121.489 157.732 120.777 158.088C120.62 158.167 120.463 158.199 120.315 158.199ZM119.807 157.648C120.016 157.773 120.316 157.886 120.604 157.743C120.876 157.607 121.062 157.385 121.182 157.191L119.807 157.648Z" fill="black"/>
<path d="M121.061 154.965C120.931 154.949 120.856 154.853 120.87 154.747L121 153.725C121.014 153.618 121.106 153.545 121.217 153.557C121.323 153.571 121.397 153.668 121.384 153.774L121.253 154.796C121.24 154.893 121.158 154.965 121.061 154.965Z" fill="black"/>
<path d="M118.025 154.721C117.891 154.703 117.818 154.605 117.834 154.499L117.983 153.48C117.999 153.375 118.094 153.301 118.203 153.317C118.309 153.332 118.382 153.43 118.366 153.537L118.216 154.556C118.203 154.652 118.12 154.721 118.025 154.721Z" fill="black"/>
<path d="M122.014 153.005C121.944 153.005 121.877 152.967 121.842 152.9C121.6 152.43 120.947 152.56 120.918 152.566C120.815 152.59 120.712 152.522 120.689 152.417C120.667 152.313 120.733 152.211 120.837 152.189C120.878 152.181 121.808 151.989 122.186 152.724C122.235 152.819 122.198 152.935 122.102 152.984C122.074 152.998 122.044 153.005 122.014 153.005Z" fill="black"/>
<path d="M119.05 152.373C118.989 152.373 118.928 152.343 118.89 152.289C118.799 152.156 118.693 152.083 118.567 152.067C118.306 152.042 118.008 152.242 117.914 152.324C117.834 152.394 117.712 152.388 117.641 152.307C117.571 152.227 117.578 152.105 117.658 152.035C117.677 152.018 118.13 151.623 118.613 151.683C118.853 151.713 119.054 151.843 119.21 152.07C119.27 152.158 119.247 152.279 119.159 152.339C119.126 152.362 119.087 152.373 119.05 152.373Z" fill="black"/>
<path d="M116.946 203.568C116.946 203.568 127.895 202.958 128.519 203.549C129.142 204.14 128.769 215.356 128.769 215.356C128.769 215.356 130.14 228.001 129.195 229.216C128.704 229.848 127.677 230.476 126.804 230.934C125.815 231.453 124.58 231.223 123.88 230.354C123.265 229.592 122.615 228.443 122.286 226.792C121.558 223.136 121.558 223.136 121.558 223.136L116.722 214.776L116.946 203.568Z" fill="#FC8A5E"/>
<path d="M133.392 215.176C133.392 215.176 132.911 223.519 133.4 224.161C133.889 224.803 148.738 231.294 149.299 231.535C149.86 231.776 154.852 231.913 156.097 231.999C157.342 232.083 157.248 227.816 156.469 226.546C155.69 225.276 152.688 224.174 152.688 224.174L144.509 214.521L133.471 214.022L133.392 215.176Z" fill="#FC8A5E"/>
<path d="M130.971 208.528C130.949 208.528 130.926 208.523 130.904 208.515C130.804 208.478 130.754 208.367 130.791 208.267C130.84 208.135 135.759 194.995 141.548 189.263C141.624 189.188 141.747 189.189 141.822 189.264C141.897 189.34 141.896 189.462 141.821 189.537C136.093 195.209 131.202 208.269 131.153 208.401C131.123 208.479 131.05 208.528 130.971 208.528Z" fill="#FFBA57"/>
<path d="M114.969 204.087C114.954 204.087 114.938 204.085 114.922 204.081C114.81 204.053 103.604 201.272 91.6583 200.554C91.552 200.547 91.4706 200.457 91.4773 200.35C91.4834 200.244 91.5823 200.16 91.6818 200.169C103.665 200.889 114.905 203.678 115.016 203.706C115.12 203.732 115.183 203.837 115.157 203.94C115.135 204.028 115.056 204.087 114.969 204.087Z" fill="#FFBA57"/>
<path d="M109.469 178.834C109.372 178.834 109.288 178.762 109.276 178.664C109.021 176.514 110.684 170.081 110.755 169.808C110.782 169.705 110.888 169.642 110.991 169.669C111.095 169.696 111.157 169.802 111.13 169.906C111.114 169.972 109.415 176.54 109.662 178.618C109.674 178.724 109.598 178.821 109.492 178.833C109.484 178.834 109.476 178.834 109.469 178.834Z" fill="#5D2866"/>
<path d="M98.7384 200.955C98.2919 200.924 94.4799 200.623 93.8417 199.382C93.7381 199.181 93.6675 198.856 93.917 198.45C94.0037 198.308 94.1443 198.217 94.3239 198.185C95.4706 197.99 98.5145 200.34 98.8575 200.609C98.9241 200.662 98.9489 200.751 98.918 200.831C98.8898 200.906 98.8185 200.955 98.7384 200.955ZM94.4981 198.556C94.4604 198.556 94.4254 198.559 94.3925 198.565C94.3003 198.582 94.266 198.62 94.2465 198.652C94.0784 198.926 94.1315 199.099 94.1867 199.205C94.5694 199.948 96.7322 200.348 98.08 200.504C97.0181 199.725 95.2621 198.556 94.4981 198.556Z" fill="#FFBA57"/>
<path d="M118.1 153.658C118.074 153.658 118.046 153.652 118.021 153.641L117.514 153.411C117.416 153.367 117.373 153.252 117.418 153.154C117.462 153.055 117.577 153.013 117.674 153.057L118.181 153.287C118.279 153.331 118.322 153.446 118.278 153.544C118.244 153.615 118.174 153.658 118.1 153.658Z" fill="black"/>
<path d="M101.333 191.231H121.192C121.896 191.231 122.466 190.661 122.466 189.958V176.528C122.466 175.825 121.896 175.255 121.192 175.255H101.333C100.629 175.255 100.059 175.825 100.059 176.528V189.958C100.059 190.661 100.629 191.231 101.333 191.231Z" fill="#8B558E"/>
<path d="M102.806 191.231H122.582C123.284 191.231 123.853 190.662 123.853 189.961V176.525C123.853 175.823 123.284 175.255 122.582 175.255H102.806C102.104 175.255 101.534 175.823 101.534 176.525V189.961C101.534 190.662 102.104 191.231 102.806 191.231Z" fill="black"/>
<path d="M111.824 185.123C112.863 185.123 113.705 184.281 113.705 183.243C113.705 182.205 112.863 181.363 111.824 181.363C110.785 181.363 109.943 182.205 109.943 183.243C109.943 184.281 110.785 185.123 111.824 185.123Z" fill="white"/>
<path d="M121.175 153.893C121.141 153.893 121.108 153.884 121.077 153.866L120.585 153.574C120.493 153.52 120.463 153.401 120.517 153.309C120.573 153.215 120.691 153.187 120.784 153.241L121.274 153.532C121.366 153.587 121.397 153.706 121.342 153.799C121.307 153.86 121.241 153.893 121.175 153.893Z" fill="black"/>
<path d="M128.316 182.529C128.316 182.529 124.374 181.247 123.852 181.08C123.852 181.08 123.797 182.499 123.969 182.749C124.143 182.999 116.379 184.196 116.399 184.945C116.419 185.694 117.14 185.861 117.14 185.861C117.14 185.861 115.585 186.194 116.002 186.944C116.419 187.693 117.14 187.723 117.14 187.723C117.14 187.723 115.611 188.465 117.14 189.412C118.668 190.358 126.17 190.941 128.574 188.543C130.343 186.78 128.316 182.529 128.316 182.529Z" fill="#F48462"/>
<path d="M124.783 154.322C124.783 154.322 122.208 153.833 121.126 152.159C120.137 150.628 119.802 148.879 119.802 148.879C119.802 148.879 119.249 149.152 118.417 150.057C117.585 150.962 117.552 151.677 117.552 151.677C117.552 151.677 116.636 148.356 119.97 147.231C123.303 146.107 126.023 148.398 126.788 150.479C127.553 152.561 124.783 154.322 124.783 154.322Z" fill="black"/>
<path d="M125.985 180.23L126.184 190.195C126.184 190.195 127.512 191.31 132.547 187.701C139.044 183.044 135.182 178.734 135.182 178.734L132.818 177.049L125.985 180.23Z" fill="#FCAF49"/>
<path d="M117.14 186.054C117.043 186.054 116.959 185.982 116.948 185.883C116.935 185.777 117.012 185.68 117.118 185.668L121.557 185.156C121.672 185.136 121.76 185.22 121.771 185.326C121.784 185.432 121.707 185.529 121.601 185.54L117.162 186.053C117.155 186.054 117.148 186.054 117.14 186.054Z" fill="black"/>
<path d="M121.579 187.917H117.14C117.033 187.917 116.946 187.83 116.946 187.723C116.946 187.616 117.033 187.53 117.14 187.53H121.579C121.686 187.53 121.773 187.616 121.773 187.723C121.773 187.831 121.686 187.917 121.579 187.917Z" fill="black"/>
<path d="M112.887 163.124C112.887 163.124 114.641 164.426 116.598 165.385C118.554 166.344 119.802 166.676 119.802 166.676C119.802 166.676 124.599 165.872 126.701 165.233C128.803 164.595 130.194 164.04 130.194 164.04L126.081 160.542L120.984 162.862L117.438 161.416C117.438 161.416 113.705 162.236 112.887 163.124Z" fill="#A76FA8"/>
<path d="M123.125 170.201C123.041 170.201 122.965 170.147 122.94 170.064L121.922 166.733C121.89 166.631 121.948 166.523 122.05 166.492C122.156 166.458 122.261 166.519 122.291 166.62L123.31 169.951C123.341 170.053 123.283 170.162 123.181 170.192C123.162 170.198 123.143 170.201 123.125 170.201Z" fill="#5D2866"/>
<path d="M116.822 170.201C116.804 170.201 116.787 170.199 116.769 170.193C116.667 170.165 116.606 170.058 116.636 169.955L117.575 166.624C117.604 166.521 117.712 166.459 117.814 166.49C117.917 166.519 117.977 166.626 117.948 166.729L117.008 170.06C116.984 170.145 116.907 170.201 116.822 170.201Z" fill="#5D2866"/>
<path d="M124.592 180.108C124.521 180.108 124.453 180.069 124.418 180.002C124.371 179.906 124.409 179.789 124.504 179.741C124.759 179.614 130.761 176.616 133.874 176.393C133.974 176.38 134.073 176.465 134.081 176.573C134.089 176.68 134.009 176.772 133.902 176.78C130.865 176.997 124.74 180.058 124.679 180.089C124.65 180.102 124.621 180.108 124.592 180.108Z" fill="#5D2866"/>
<path d="M128.529 178.337C128.488 178.337 128.449 178.324 128.414 178.299C128.344 178.247 128.317 178.154 128.348 178.073C128.498 177.689 129.86 174.345 131.451 174.386C131.772 174.398 131.887 174.547 131.928 174.67C132.168 175.4 129.715 177.448 128.65 178.295C128.615 178.323 128.572 178.337 128.529 178.337ZM131.409 174.772C130.522 174.772 129.568 176.358 129.029 177.485C130.521 176.237 131.632 175.066 131.56 174.792C131.56 174.796 131.535 174.777 131.437 174.773C131.428 174.772 131.419 174.772 131.409 174.772Z" fill="#5D2866"/>
<path d="M148.295 219.456H144.541C144.434 219.456 144.347 219.369 144.347 219.262C144.347 219.155 144.434 219.069 144.541 219.069H148.295C148.402 219.069 148.488 219.155 148.488 219.262C148.488 219.369 148.402 219.456 148.295 219.456Z" fill="#5D2866"/>
<path d="M150.774 222.11H145.498C145.391 222.11 145.304 222.024 145.304 221.917C145.304 221.81 145.391 221.723 145.498 221.723H150.774C150.881 221.723 150.968 221.81 150.968 221.917C150.968 222.024 150.881 222.11 150.774 222.11Z" fill="#5D2866"/>
<path d="M118.383 217.845C118.367 217.845 118.353 217.843 118.337 217.84C118.233 217.814 118.17 217.709 118.195 217.605L118.864 214.875C118.889 214.772 118.994 214.71 119.098 214.733C119.202 214.758 119.266 214.863 119.24 214.967L118.571 217.697C118.549 217.786 118.47 217.845 118.383 217.845Z" fill="#5D2866"/>
<path d="M120.216 220.748C120.202 220.748 120.188 220.746 120.174 220.743C120.069 220.719 120.003 220.616 120.026 220.512L120.923 216.509C120.947 216.404 121.053 216.339 121.154 216.361C121.259 216.385 121.325 216.488 121.302 216.593L120.405 220.596C120.385 220.687 120.304 220.748 120.216 220.748Z" fill="#5D2866"/>
<path d="M103.782 183.602C103.599 183.255 103.316 182.974 102.994 182.751C101.903 181.995 98.4727 180.42 97.4551 181.385C96.48 182.31 98.3584 183.244 98.3584 183.244C98.3584 183.244 96.6938 182.794 96.7745 184.032C96.8418 185.067 97.9024 185.408 97.9024 185.408C97.9024 185.408 96.1262 185.104 96.7718 186.586C97.4168 188.067 101.09 189.386 102.441 189.344C103.793 189.303 102.835 187.531 102.835 187.531C102.835 187.531 104.287 187.295 104.287 186.491C104.287 185.64 103.145 185.316 103.145 185.316C103.145 185.316 104.439 184.85 103.782 183.602Z" fill="#F48462"/>
<path d="M102.719 185.406C102.693 185.406 102.666 185.4 102.639 185.389L98.2773 183.42C98.1798 183.376 98.1361 183.261 98.1805 183.163C98.2248 183.065 98.3399 183.023 98.4367 183.066L102.799 185.036C102.896 185.079 102.94 185.194 102.896 185.292C102.863 185.364 102.793 185.406 102.719 185.406Z" fill="black"/>
<path d="M102.307 187.523C102.28 187.523 102.254 187.518 102.229 187.507L97.8281 185.585C97.7299 185.542 97.6849 185.428 97.7279 185.33C97.771 185.232 97.886 185.187 97.9828 185.231L102.384 187.153C102.482 187.196 102.527 187.31 102.484 187.408C102.453 187.48 102.381 187.523 102.307 187.523Z" fill="black"/>
<path d="M80.5087 143.219H30.5188C28.5839 143.219 27.0155 141.652 27.0155 139.718V125.32C27.0155 123.386 28.5839 121.819 30.5188 121.819H80.5087C82.4436 121.819 84.012 123.386 84.012 125.32V139.718C84.012 141.651 82.4436 143.219 80.5087 143.219Z" fill="#8B558E"/>
<path d="M275.419 119.762H305.926C307.333 119.762 308.475 118.622 308.475 117.215V101.774C308.475 100.367 307.333 99.2266 305.926 99.2266H275.419C274.011 99.2266 272.87 100.367 272.87 101.774V117.215C272.87 118.622 274.011 119.762 275.419 119.762Z" fill="#9BCCC7"/>
<path d="M282.752 117.193L279.228 126.444L290.231 118.174L282.752 117.193Z" fill="#9BCCC7"/>
<path d="M173.995 91.502L174.457 96.6369H184.326V90.8218L173.995 91.502Z" fill="#FFA98F"/>
<path d="M191.603 93.8748L192.6 99.0238L203.463 96.4496L201.565 90.822L191.603 93.8748Z" fill="#FFA98F"/>
<path d="M203.69 23.5873C203.69 23.5873 206.281 21.2114 209.97 23.1511C213.659 25.0901 213.2 30.6115 213.2 30.6115C213.2 30.6115 217.078 31.984 217.396 36.7264C217.715 41.4689 212.27 43.3131 212.27 43.3131L202.997 41.8533C202.997 41.8533 201.146 39.0956 201.16 38.9941C201.173 38.892 200.793 27.4701 200.793 27.4701L203.69 23.5873Z" fill="black"/>
<path d="M183.648 62.5445C183.648 62.5445 185.587 44.1765 192.795 41.0181C200.002 37.8605 211.662 41.1082 211.662 41.1082L211.138 65.6753L183.648 62.5445Z" fill="#3F9E97"/>
<path d="M173.872 96.1799C173.872 96.1799 172.321 101.228 171.742 101.892C171.163 102.556 164.649 108.378 163.802 110.432C162.955 112.486 164.055 115.338 164.585 115.422C165.115 115.507 190.041 104.518 190.041 104.518L185.129 92.3394L173.872 96.1799Z" fill="#1F5E68"/>
<path d="M189.659 61.5132C189.659 61.5132 175.386 58.0424 171.472 64.0694C167.558 70.0964 173.031 93.098 173.031 93.098H186.174L189.659 61.5132Z" fill="#8B558E"/>
<path d="M172.426 99.8066C172.426 99.8066 177.634 102.311 176.975 102.978C176.316 103.646 169.13 105.502 168.994 104.706C168.859 103.911 171.593 100.094 172.426 99.8066Z" fill="#FFBA57"/>
<path d="M221.971 66.7403C221.971 66.7403 224.943 80.5412 218.987 82.7632C213.031 84.9853 199.302 82.3505 199.302 82.3505L204.872 92.1737L186.957 97.4775C186.957 97.4775 172.081 70.6319 181.136 63.4771C190.19 56.3223 209.249 66.7403 209.249 66.7403H221.971Z" fill="#A76FA8"/>
<path d="M191.566 98.7959C191.566 98.7959 190.811 104.317 189.765 105.011C188.718 105.705 184.281 109.266 181.998 112.295C180.084 114.835 182.418 115.894 182.418 115.894L197.493 114.135L209.342 103.11L203.556 93.7529L191.566 98.7959Z" fill="#286C7C"/>
<path d="M190.539 102.205C190.539 102.205 195.737 104.73 195.075 105.395C194.413 106.06 187.22 107.888 187.088 107.092C186.956 106.295 189.705 102.489 190.539 102.205Z" fill="#FFBA57"/>
<path d="M202.57 35.4639L203.175 39.3312C203.175 39.3312 202.559 40.5867 200.028 41.236C198.143 41.7199 197.414 41.4605 197.414 41.4605L197.373 39.4535L197.337 37.4957L201.819 35.7562L202.57 35.4639Z" fill="#FFA98F"/>
<path d="M201.821 35.7673C201.831 35.889 201.809 36.0382 201.766 36.2123C201.156 38.57 198.552 39.4982 197.463 39.7852L197.358 37.574L201.821 35.7673Z" fill="black"/>
<path d="M194.678 27.741C194.678 27.741 193.309 33.632 194.737 36.5329C196.165 39.4344 198.866 38.4343 200.425 37.5323C201.984 36.6303 202.569 35.4629 202.569 35.4629C202.569 35.4629 204.226 35.7015 205 34.0582C205.773 32.4148 204.822 30.8696 203.86 30.6539C202.898 30.4382 201.959 31.2769 201.959 31.2769L202.494 29.5395C202.494 29.5395 197.506 22.1423 194.678 27.741Z" fill="#FFA98F"/>
<path d="M196.182 34.6097C196.123 34.6097 196.065 34.5781 196.036 34.5217C195.454 33.4322 196.044 32.0953 196.069 32.0389C196.106 31.9555 196.204 31.9179 196.288 31.9555C196.372 31.9932 196.409 32.0913 196.372 32.1746C196.366 32.1874 195.824 33.4207 196.328 34.3651C196.372 34.4457 196.341 34.5465 196.26 34.5895C196.235 34.6037 196.208 34.6097 196.182 34.6097Z" fill="black"/>
<path d="M202.654 33.7784C202.623 33.7784 202.592 33.7703 202.564 33.7522C202.487 33.7031 202.464 33.6003 202.513 33.523L203.689 31.6713C203.74 31.5934 203.843 31.5712 203.919 31.6203C203.997 31.6693 204.02 31.7721 203.97 31.8494L202.794 33.7011C202.762 33.7515 202.708 33.7784 202.654 33.7784Z" fill="black"/>
<path d="M203.086 33.0997C202.998 33.0997 202.924 33.0298 202.92 32.9404C202.917 32.849 202.988 32.7717 203.08 32.7677L204.132 32.7253C204.228 32.728 204.301 32.7932 204.305 32.8846C204.308 32.976 204.237 33.0533 204.146 33.0574L203.093 33.0997C203.09 33.0997 203.088 33.0997 203.086 33.0997Z" fill="black"/>
<path d="M194.905 59.4155C194.847 59.4155 194.788 59.3893 194.75 59.3389C194.738 59.3221 193.473 57.6338 192.469 55.1436C190.917 51.2964 192.398 45.7595 192.461 45.5256C192.489 45.4221 192.596 45.361 192.699 45.3892C192.802 45.4174 192.863 45.5243 192.835 45.6271C192.82 45.6836 191.326 51.2729 192.828 54.9977C193.812 57.4382 195.047 59.0882 195.059 59.1044C195.124 59.1904 195.106 59.3114 195.021 59.3759C194.988 59.4028 194.946 59.4155 194.905 59.4155Z" fill="white"/>
<path d="M198.052 35.9685C197.581 35.9685 197.173 35.6909 197.148 35.6741C197.101 35.6418 197.074 35.5867 197.076 35.5296C197.079 35.4724 197.111 35.4207 197.161 35.3925L199.154 34.2747C199.208 34.2452 199.275 34.2465 199.326 34.2801C199.378 34.3137 199.407 34.3735 199.401 34.4347C199.397 34.469 199.315 35.2742 198.686 35.7554C198.483 35.914 198.261 35.9685 198.052 35.9685ZM197.592 35.5329C197.83 35.6324 198.194 35.7157 198.485 35.4933C198.762 35.2816 198.91 34.9811 198.988 34.7499L197.592 35.5329Z" fill="black"/>
<path d="M198.832 29.9793C198.783 29.9793 198.734 29.9578 198.702 29.9161C198.357 29.4785 197.715 29.7413 197.688 29.7521C197.602 29.7877 197.506 29.7474 197.47 29.664C197.435 29.5794 197.474 29.4826 197.558 29.447C197.595 29.4308 198.46 29.0712 198.963 29.7111C199.02 29.783 199.007 29.8879 198.935 29.9443C198.905 29.9678 198.869 29.9793 198.832 29.9793Z" fill="black"/>
<path d="M194.515 30.1614C194.479 30.1614 194.443 30.1499 194.413 30.1264C194.34 30.07 194.327 29.9665 194.383 29.8939C194.398 29.8744 194.764 29.4059 195.242 29.3743C195.472 29.3575 195.694 29.4462 195.885 29.6358C195.95 29.7003 195.95 29.8058 195.886 29.871C195.821 29.9362 195.716 29.9369 195.65 29.8724C195.527 29.7507 195.402 29.6969 195.265 29.7057C194.938 29.7272 194.649 30.0935 194.646 30.0975C194.613 30.1392 194.564 30.1614 194.515 30.1614Z" fill="black"/>
<path d="M195.203 32.4439C195.114 32.4439 195.041 32.374 195.037 32.2853L194.994 31.3181L194.572 30.9619C194.501 30.9028 194.493 30.7979 194.552 30.728C194.612 30.6568 194.716 30.6487 194.786 30.7078L195.264 31.1111C195.3 31.1407 195.321 31.1844 195.323 31.2307L195.369 32.2705C195.373 32.3619 195.302 32.4392 195.21 32.4439C195.208 32.4439 195.206 32.4439 195.203 32.4439Z" fill="black"/>
<path d="M198.261 32.105C198.173 32.105 198.101 32.0371 198.095 31.9497L198.034 30.9926L197.43 30.5907C197.353 30.5403 197.332 30.4368 197.383 30.3608C197.434 30.2842 197.537 30.262 197.614 30.3145L198.287 30.7621C198.33 30.791 198.358 30.838 198.361 30.8898L198.428 31.9289C198.433 32.0203 198.364 32.0996 198.272 32.105C198.268 32.105 198.264 32.105 198.261 32.105Z" fill="black"/>
<path d="M201.754 31.2349C201.754 31.2349 199.007 30.8686 197.835 29.0364C196.663 27.2049 196.726 26.3311 196.726 26.3311C196.726 26.3311 195.371 27.1182 194.891 28.1425C194.41 29.1675 194.328 29.7119 194.328 29.7119C194.328 29.7119 193.874 27.51 194.107 26.8359C194.34 26.1618 195.621 22.3832 200.894 22.8449C208.889 23.5452 205.636 30.0318 201.754 31.2349Z" fill="black"/>
<path d="M202.713 56.1142C202.713 56.1142 202.469 56.0074 201.437 55.6384C200.459 55.2889 196.932 55.5564 196.932 55.5564C196.932 55.5564 193.863 56.0087 191.308 57.0169C188.752 58.025 189.099 59.1764 189.099 59.1764C189.099 59.1764 187.453 60.04 188.062 60.7666C188.671 61.4925 191.289 61.0502 191.289 61.0502C191.289 61.0502 187.955 61.9898 189.226 62.83C190.498 63.6701 194.749 62.3024 194.749 62.3024C194.749 62.3024 201.05 65.2119 203.36 63.1734C205.671 61.1349 202.713 56.1142 202.713 56.1142Z" fill="#FFA98F"/>
<path d="M201.071 55.2187L198.258 65.4983C198.258 65.4983 216.576 78.6559 224.228 68.3394C231.88 58.0228 217.645 42.5618 211.659 41.1093C205.674 39.6562 208.698 56.2726 208.698 56.2726L201.071 55.2187Z" fill="#3F9E97"/>
<path d="M199.3 82.5427C199.265 82.5427 199.231 82.534 199.201 82.5159C198.779 82.2631 195.079 80.0082 195.098 78.4751C195.102 78.2278 195.204 77.8776 195.672 77.6141C196.066 77.393 196.466 77.3675 196.86 77.5382C198.472 78.2358 199.448 82.1375 199.489 82.3028C199.507 82.3787 199.478 82.4581 199.415 82.5051C199.382 82.5306 199.341 82.5427 199.3 82.5427ZM196.343 77.8151C196.185 77.8151 196.024 77.8608 195.862 77.9522C195.612 78.0927 195.489 78.2654 195.486 78.4798C195.473 79.4678 197.717 81.1125 198.981 81.9231C198.672 80.8699 197.836 78.383 196.704 77.8937C196.583 77.8413 196.464 77.8151 196.343 77.8151Z" fill="#5D2866"/>
<path d="M213.939 56.8469C213.916 56.8469 213.892 56.8428 213.869 56.8334C210.317 55.461 203.161 55.6868 203.09 55.6888C202.977 55.6787 202.893 55.6082 202.89 55.502C202.886 55.3951 202.97 55.305 203.077 55.3017C203.374 55.2916 210.383 55.0705 214.009 56.4718C214.109 56.5108 214.158 56.6231 214.119 56.7225C214.09 56.7998 214.016 56.8469 213.939 56.8469Z" fill="white"/>
<path d="M208.512 55.8318C208.431 55.8318 208.358 55.782 208.33 55.7047C208.299 55.6201 208.331 55.5253 208.406 55.4762C208.799 55.2181 212.291 52.986 213.548 53.8813C213.8 54.0601 213.796 54.2516 213.771 54.3498C213.574 55.1254 210.044 55.6436 208.536 55.8304C208.527 55.8311 208.52 55.8318 208.512 55.8318ZM212.762 54.052C211.863 54.052 210.422 54.745 209.411 55.3196C211.559 54.999 213.295 54.546 213.394 54.257C213.39 54.257 213.375 54.2335 213.324 54.1965C213.18 54.0957 212.989 54.052 212.762 54.052Z" fill="white"/>
<path d="M197.548 41.6555C197.474 41.6555 197.425 41.6548 197.41 41.6541C197.303 41.6515 197.219 41.5621 197.222 41.4552C197.226 41.3483 197.303 41.271 197.422 41.267C197.456 41.269 201.414 41.3557 203.022 39.215C203.086 39.1283 203.208 39.1122 203.293 39.1761C203.379 39.2399 203.396 39.3616 203.332 39.4469C201.761 41.5392 198.297 41.6555 197.548 41.6555Z" fill="white"/>
<path d="M189.206 62.6394H167.838L161.735 48.8442H182.261C182.773 48.8442 183.237 49.146 183.444 49.6145L189.206 62.6394Z" fill="white"/>
<path d="M187.351 62.6391H165.983L160.536 50.3273C160.227 49.629 160.738 48.844 161.503 48.844H181.248L187.351 62.6391Z" fill="#FC8A5E"/>
<path d="M196.37 64.3823H166.202C165.72 64.3823 165.33 63.9924 165.33 63.5112C165.33 63.03 165.72 62.6401 166.202 62.6401H196.37C196.852 62.6401 197.242 63.03 197.242 63.5112C197.242 63.9924 196.852 64.3823 196.37 64.3823Z" fill="black"/>
<path d="M189.101 59.3431C189.044 59.3431 188.988 59.3135 188.957 59.2598C188.912 59.1804 188.939 59.079 189.019 59.0333C189.04 59.0205 191.247 57.7569 194.043 56.9611C194.131 56.9369 194.224 56.9873 194.248 57.0754C194.274 57.1634 194.223 57.2555 194.134 57.2811C191.378 58.0654 189.206 59.3082 189.185 59.3209C189.159 59.3357 189.13 59.3431 189.101 59.3431Z" fill="black"/>
<path d="M190.976 61.1331C190.922 61.1331 190.87 61.1069 190.838 61.0592C190.787 60.9826 190.807 60.8798 190.884 60.8287C190.961 60.7776 192.787 59.5711 194.501 59.4246C194.602 59.4172 194.674 59.4844 194.681 59.5759C194.689 59.6673 194.621 59.7472 194.53 59.7553C192.901 59.8951 191.087 61.0928 191.068 61.1049C191.039 61.1244 191.007 61.1331 190.976 61.1331Z" fill="black"/>
<path d="M142.307 38.1442H173.363C174.806 38.1442 175.975 36.9754 175.975 35.5337V19.5959C175.975 18.1542 174.806 16.9861 173.363 16.9861H142.307C140.864 16.9861 139.694 18.1549 139.694 19.5959V35.5337C139.694 36.9754 140.864 38.1442 142.307 38.1442Z" fill="white"/>
<path d="M168.864 35.9473L172.191 44.6841L161.801 36.8741L168.864 35.9473Z" fill="white"/>
<path d="M170.529 23.7329H145.139C144.631 23.7329 144.22 23.3223 144.22 22.8148C144.22 22.3074 144.631 21.8967 145.139 21.8967H170.529C171.036 21.8967 171.448 22.3074 171.448 22.8148C171.448 23.3223 171.036 23.7329 170.529 23.7329Z" fill="#D098D3"/>
<path d="M170.529 28.4158H145.139C144.631 28.4158 144.22 28.0051 144.22 27.4977C144.22 26.9909 144.631 26.5796 145.139 26.5796H170.529C171.036 26.5796 171.448 26.9902 171.448 27.4977C171.447 28.0051 171.036 28.4158 170.529 28.4158Z" fill="#D098D3"/>
<path d="M303.367 107.725H277.977C277.47 107.725 277.058 107.314 277.058 106.807C277.058 106.3 277.469 105.889 277.977 105.889H303.367C303.874 105.889 304.285 106.299 304.285 106.807C304.285 107.314 303.875 107.725 303.367 107.725Z" fill="white"/>
<path d="M303.367 113.1H277.977C277.47 113.1 277.058 112.689 277.058 112.183C277.058 111.676 277.469 111.264 277.977 111.264H303.367C303.874 111.264 304.285 111.675 304.285 112.183C304.285 112.69 303.875 113.1 303.367 113.1Z" fill="white"/>
<path d="M170.529 33.2327H145.139C144.631 33.2327 144.22 32.822 144.22 32.3146C144.22 31.8078 144.631 31.3965 145.139 31.3965H170.529C171.036 31.3965 171.448 31.8071 171.448 32.3146C171.447 32.822 171.036 33.2327 170.529 33.2327Z" fill="#D098D3"/>
</svg>
