<svg width="181" height="180" viewBox="0 0 181 180" fill="none" xmlns="http://www.w3.org/2000/svg">
<path d="M127.172 22.5234V43.2231H130.078V48.2444L135.099 43.2231H162.653V22.5234H127.172Z" fill="#A0ABBB"/>
<path d="M151.62 32.8726C151.62 33.801 152.373 34.5534 153.302 34.5534C154.23 34.5534 154.983 33.801 154.983 32.8726C154.983 31.9442 154.23 31.1914 153.302 31.1914C152.373 31.1918 151.62 31.9445 151.62 32.8726Z" fill="white"/>
<path d="M143.231 32.8726C143.231 33.801 143.984 34.5534 144.912 34.5534C145.84 34.5534 146.593 33.801 146.593 32.8726C146.593 31.9442 145.84 31.1914 144.912 31.1914C143.984 31.1918 143.231 31.9445 143.231 32.8726Z" fill="white"/>
<path d="M134.842 32.8726C134.842 33.801 135.595 34.5534 136.523 34.5534C137.451 34.5534 138.204 33.801 138.204 32.8726C138.204 31.9442 137.451 31.1914 136.523 31.1914C135.595 31.1918 134.842 31.9445 134.842 32.8726Z" fill="white"/>
<path d="M67.6503 88.1016V117.06H63.5856V124.084L56.5613 117.06H18.0128V88.1016H67.6503Z" fill="#A0ABBB"/>
<path d="M67.6504 88.1022C67.6745 96.3351 67.8566 108.924 67.8656 117.061L67.8667 117.275L67.6504 117.276L63.5856 117.295L63.82 117.061L63.8531 124.085L63.8559 124.73L63.3962 124.274L56.3438 117.278C47.8644 117.562 27.056 117.316 17.6597 117.413L17.6604 117.06L17.7057 88.1018L17.7061 87.793L18.0128 87.7944C30.39 87.8549 55.2808 87.991 67.6504 88.1022ZM67.6504 88.1022C55.2808 88.2153 30.3781 88.3517 18.0128 88.4093L18.3199 88.1022L18.3653 117.061L18.0128 116.708C27.6947 116.71 47.0112 116.737 56.6894 116.754L56.7784 116.844L63.7746 123.896L63.3181 124.085L63.3512 117.061L63.3523 116.826L63.5856 116.827L67.6504 116.846L67.4351 117.061C67.4862 108.978 67.582 96.2749 67.6504 88.1022Z" fill="#EBEBEB"/>
<path d="M33.4478 102.58C33.4478 103.879 32.3948 104.932 31.0959 104.932C29.797 104.932 28.744 103.879 28.744 102.58C28.744 101.282 29.797 100.229 31.0959 100.229C32.3951 100.229 33.4478 101.282 33.4478 102.58Z" fill="#EBEBEB"/>
<path d="M45.1841 102.58C45.1841 103.879 44.1311 104.932 42.8322 104.932C41.5333 104.932 40.4803 103.879 40.4803 102.58C40.4803 101.282 41.5333 100.229 42.8322 100.229C44.1311 100.229 45.1841 101.282 45.1841 102.58Z" fill="#EBEBEB"/>
<path d="M56.9204 102.58C56.9204 103.879 55.8674 104.932 54.5689 104.932C53.27 104.932 52.217 103.879 52.217 102.58C52.217 101.282 53.27 100.229 54.5689 100.229C55.8678 100.229 56.9204 101.282 56.9204 102.58Z" fill="#EBEBEB"/>
<path d="M24.58 33.3203L26.1575 35.6711L28.8805 36.4451L27.1324 38.6721L27.2379 41.501L24.58 40.5264L21.9217 41.501L22.0272 38.6721L20.2791 36.4451L23.0021 35.6711L24.58 33.3203Z" fill="#EBEBEB"/>
<path d="M36.7429 33.3203L38.3205 35.6711L41.0435 36.4451L39.2953 38.6721L39.4012 41.501L36.7429 40.5264L34.0851 41.501L34.1905 38.6721L32.442 36.4451L35.1654 35.6711L36.7429 33.3203Z" fill="#EBEBEB"/>
<path d="M48.9059 33.3203L50.4838 35.6711L53.2068 36.4451L51.4587 38.6721L51.5641 41.501L48.9059 40.5264L46.248 41.501L46.3535 38.6721L44.6053 36.4451L47.3287 35.6711L48.9059 33.3203Z" fill="#EBEBEB"/>
<path d="M61.0692 33.3203L62.6471 35.6711L65.3701 36.4451L63.622 38.6721L63.7271 41.501L61.0692 40.5264L58.4113 41.501L58.5165 38.6721L56.7683 36.4451L59.4917 35.6711L61.0692 33.3203Z" fill="#EBEBEB"/>
<path d="M73.2326 33.3203L74.8097 35.6711L77.5335 36.4451L75.7853 38.6721L75.8904 41.501L73.2326 40.5264L70.5743 41.501L70.6798 38.6721L68.9316 36.4451L71.6547 35.6711L73.2326 33.3203Z" stroke="#EBEBEB" stroke-miterlimit="10"/>
<path d="M73.2326 40.5264V33.3203L71.6547 35.6711L68.9316 36.4451L70.6798 38.6721L70.5743 41.501L73.2326 40.5264Z" fill="#EBEBEB"/>
<path fill-rule="evenodd" clip-rule="evenodd" d="M136.905 88.2634C136.199 87.8235 135.584 87.1827 134.641 87.2759C134.279 87.313 134.358 87.0135 134.355 86.8166C134.338 83.268 134.327 79.7231 134.312 76.1771C134.311 75.919 134.326 75.707 134.607 75.5644C137.311 74.1896 138.477 71.4978 140.128 69.196C141.895 66.739 142.495 64.0804 142.067 61.1424C141.951 60.3447 142.322 59.9858 143.041 59.8198C143.906 59.6196 144.769 59.8562 145.067 60.4494C145.801 61.9222 146.433 63.4533 146.629 65.0924C146.79 66.437 146.312 67.7484 146.148 69.0794C146.028 70.0535 145.805 71.0169 145.623 72.0036C145.861 72.1757 146.137 72.085 146.392 72.0879C149.388 72.0825 152.384 72.0713 155.381 72.0609C156.643 72.0566 157.263 72.4169 157.441 73.2546C157.66 74.2979 157.111 75.361 156.145 75.8567C155.921 75.9705 155.516 75.8697 155.49 76.2207C155.464 76.5782 155.881 76.54 156.088 76.6836C157.175 77.4242 156.979 78.9588 155.727 79.8506C155.426 80.0633 154.841 79.9672 154.827 80.4104C154.822 80.7632 155.369 80.7574 155.618 81.0054C156.496 81.8673 156.067 83.4844 154.761 84.141C154.593 84.2246 154.385 84.2408 154.235 84.3459C154.087 84.4467 153.941 84.5586 154.23 84.7624C155.531 85.6854 155.507 86.9757 154.204 87.921C154.076 88.0136 153.946 88.109 153.815 88.2026C153.341 88.5525 152.78 88.5496 152.238 88.5528C147.54 88.578 142.841 88.5903 138.143 88.6032C137.702 88.6047 137.257 88.5924 136.905 88.2634Z" fill="#A0ABBB"/>
<path fill-rule="evenodd" clip-rule="evenodd" d="M123.525 82.0523C123.517 79.7998 123.52 77.5444 123.494 75.2926C123.489 74.834 123.535 74.609 124.097 74.6133C126.847 74.6378 129.592 74.6281 132.341 74.5881C132.88 74.5809 132.964 74.7659 132.962 75.2451C132.962 79.7797 132.973 84.3142 133.011 88.8491C133.016 89.4259 132.859 89.5897 132.28 89.5821C129.614 89.5609 126.948 89.563 124.284 89.6141C123.621 89.6271 123.529 89.3945 123.534 88.8139C123.56 86.5603 123.532 84.3074 123.525 82.0523Z" fill="#A0ABBB"/>
<path fill-rule="evenodd" clip-rule="evenodd" d="M84.8641 118.385C85.3987 118.72 85.8638 119.208 86.5802 119.14C86.8545 119.113 86.7941 119.34 86.7959 119.489C86.7995 122.183 86.7991 124.874 86.8013 127.565C86.8013 127.761 86.7894 127.922 86.5759 128.029C84.5199 129.066 83.6282 131.106 82.3686 132.849C81.0215 134.71 80.5592 136.727 80.8771 138.958C80.9631 139.564 80.6805 139.835 80.1344 139.959C79.4771 140.109 78.8229 139.927 78.5979 139.476C78.0443 138.356 77.5683 137.192 77.4236 135.948C77.3052 134.927 77.6709 133.933 77.7987 132.923C77.8923 132.183 78.0648 131.453 78.2048 130.704C78.0248 130.573 77.8149 130.641 77.6213 130.638C75.3471 130.635 73.073 130.636 70.7985 130.636C69.8399 130.636 69.3708 130.361 69.2379 129.725C69.0741 128.932 69.4932 128.127 70.2283 127.753C70.3982 127.667 70.7057 127.745 70.7265 127.479C70.7463 127.207 70.4303 127.235 70.2733 127.125C69.45 126.561 69.6026 125.396 70.5555 124.723C70.7845 124.562 71.2291 124.636 71.2399 124.3C71.2453 124.032 70.8291 124.035 70.6412 123.846C69.9767 123.19 70.3068 121.963 71.2997 121.468C71.4271 121.405 71.5851 121.393 71.6993 121.314C71.8123 121.238 71.9232 121.153 71.7043 120.998C70.7193 120.294 70.7402 119.315 71.732 118.6C71.8292 118.53 71.9286 118.458 72.0283 118.388C72.3887 118.123 72.8142 118.127 73.2257 118.126C76.7922 118.119 80.3583 118.121 83.9245 118.123C84.2593 118.124 84.5973 118.134 84.8641 118.385Z" fill="#EBEBEB"/>
<path fill-rule="evenodd" clip-rule="evenodd" d="M95.0049 123.132C95.0049 124.842 94.997 126.554 95.011 128.263C95.0135 128.611 94.9779 128.782 94.5516 128.777C92.4644 128.752 90.3803 128.752 88.2941 128.776C87.8848 128.78 87.8214 128.639 87.8236 128.276C87.8351 124.833 87.838 121.392 87.8211 117.949C87.8186 117.512 87.9377 117.388 88.3773 117.395C90.4012 117.418 92.4248 117.423 94.4469 117.391C94.9505 117.383 95.02 117.559 95.0146 118C94.989 119.71 95.0049 121.42 95.0049 123.132Z" fill="#EBEBEB"/>
<path d="M16.0306 163.078C63.6334 162.858 117.033 162.856 164.636 163.078C117.033 163.3 63.6331 163.298 16.0306 163.078Z" fill="#263238"/>
<path d="M114.177 34.459L116.004 37.0967L119.077 38.019L117.134 40.5718L117.205 43.7794L114.177 42.7195L111.149 43.7794L111.221 40.5718L109.277 38.019L112.35 37.0967L114.177 34.459Z" fill="#FFC727"/>
<path d="M51.1462 79.3712L52.9732 82.0089L56.0461 82.9312L54.1021 85.484L54.1745 88.6919L51.1462 87.6317L48.1175 88.6919L48.1898 85.484L46.2458 82.9312L49.3192 82.0089L51.1462 79.3712Z" fill="#FFC727"/>
<path d="M73.3956 108.381L74.3089 109.7L75.8454 110.161L74.8734 111.437L74.9098 113.041L73.3956 112.511L71.8811 113.041L71.9174 111.437L70.9454 110.161L72.4819 109.7L73.3956 108.381Z" fill="#FFC727"/>
<path d="M131.97 75.6816L132.884 77.0007L134.421 77.4618L133.449 78.7384L133.485 80.3422L131.97 79.8123L130.456 80.3422L130.492 78.7384L129.52 77.4618L131.057 77.0007L131.97 75.6816Z" fill="#FFC727"/>
<path d="M103.648 28.9629L104.561 30.2819L106.097 30.7431L105.125 32.0193L105.162 33.6235L103.648 33.0932L102.133 33.6235L102.169 32.0193L101.197 30.7431L102.734 30.2819L103.648 28.9629Z" fill="#FFC727"/>
<path d="M29.2903 128.389C29.2903 128.389 21.3321 142.463 21.3271 142.473C20.0487 145.311 18.9784 147.822 18.5461 149.173C18.5428 149.179 18.5392 149.186 18.5396 149.195C18.3758 149.704 18.3045 150.044 18.3542 150.165C18.3578 150.176 18.3578 150.184 18.3628 150.191C18.9496 151.144 41.3337 162.022 42.242 162.138C43.1521 162.26 43.5542 159.675 43.0221 158.56C42.4835 157.441 35.7796 149.445 35.7796 149.445L43.5941 135.315L29.2903 128.389Z" fill="#EB9481"/>
<path d="M41.8838 162.057C40.9769 161.939 18.9492 151.143 18.3639 150.193C18.3581 150.183 18.3559 150.175 18.3541 150.167C18.3034 150.045 18.3779 149.703 18.5381 149.196C18.5406 149.185 18.5414 149.181 18.5471 149.174C18.9798 147.824 20.0505 145.311 21.3263 142.472C21.327 142.468 22.6673 140.012 23.2016 139.158L37.4381 146.517L35.781 149.446C35.781 149.446 42.1289 157.361 42.6642 158.477C43.1992 159.594 42.7942 162.176 41.8838 162.057Z" fill="#EBEBEB"/>
<path d="M42.2927 161.753C41.3783 161.615 19.0763 150.125 18.5061 149.149C18.2825 148.781 19.7675 145.434 21.6773 141.441C21.6978 141.4 21.718 141.358 21.7382 141.316L36.2094 148.568L36.078 148.809C36.078 148.809 42.6477 157.025 43.1621 158.165C43.6712 159.3 43.2053 161.896 42.2927 161.753Z" fill="#FFC727"/>
<path d="M42.4856 160.759C38.7737 158.73 23.6108 150.896 19.7876 149.172C19.7563 149.158 19.7459 149.179 19.7754 149.196C23.4107 151.288 38.6365 158.998 42.4543 160.82C42.5346 160.859 42.5641 160.801 42.4856 160.759Z" fill="white"/>
<path d="M37.2646 149.475C35.9276 148.437 34.0012 147.732 32.3276 148.204C32.2628 148.222 32.2898 148.314 32.3452 148.323C34.0419 148.615 35.5571 149.022 37.1624 149.659C37.2758 149.704 37.3607 149.55 37.2646 149.475Z" fill="#263238"/>
<path d="M38.0012 150.669C36.6641 149.631 34.7378 148.926 33.0641 149.397C32.9993 149.415 33.0263 149.507 33.0818 149.517C34.7785 149.809 36.2933 150.216 37.8989 150.852C38.012 150.897 38.0969 150.743 38.0012 150.669Z" fill="#263238"/>
<path d="M38.7373 151.862C37.4002 150.824 35.4739 150.119 33.8002 150.591C33.7354 150.609 33.7624 150.701 33.8179 150.71C35.5145 151.002 37.0294 151.409 38.635 152.046C38.7484 152.091 38.833 151.936 38.7373 151.862Z" fill="#263238"/>
<path d="M24.134 145.711C22.9338 144.07 20.3806 145.932 21.583 147.576C22.7833 149.218 25.3364 147.355 24.134 145.711Z" fill="white"/>
<path opacity="0.1" d="M37.0594 150.041L38.6622 160.055C40.681 161.059 42.0757 161.72 42.291 161.753C43.2036 161.895 43.6708 159.299 43.1636 158.164C42.773 157.303 38.9102 152.378 37.0594 150.041Z" fill="black"/>
<path d="M43.0451 161.129C43.3652 161.489 42.5883 162.785 42.2449 162.744C41.9014 162.703 17.6399 150.068 17.2742 149.762C16.9084 149.457 17.8246 148.052 18.3437 148.223C18.8625 148.395 43.0451 161.129 43.0451 161.129Z" fill="#263238"/>
<path d="M23.1674 137.843L39.2079 146.408C39.2079 146.408 59.455 117.554 59.86 109.972C60.4194 99.502 51.4796 66.2629 51.4796 66.2629L37.2203 66.166C37.2203 66.166 43.017 100.35 42.5458 106.182C42.2992 109.233 23.1674 137.843 23.1674 137.843Z" fill="#263238"/>
<path d="M40.6079 143.094C39.782 142.499 32.1785 138.093 26.3889 135.279C26.3501 135.261 26.3241 135.315 26.3591 135.338C28.1151 136.497 39.4638 142.715 40.5654 143.156C40.6014 143.171 40.6453 143.121 40.6079 143.094Z" fill="#37474F"/>
<path d="M44.5254 98.8784C43.863 93.8766 43.1344 88.8816 42.3031 83.9046C41.4683 78.9052 40.5881 73.9084 39.5427 68.9487C39.4149 68.3432 39.2813 67.7388 39.1492 67.134C39.1287 67.0407 38.9865 67.0677 39.0034 67.162C39.8821 72.0832 40.7857 77.0001 41.5943 81.9336C42.4025 86.8666 43.1567 91.8087 43.8339 96.7616C44.0013 97.9881 44.1643 99.215 44.3231 100.443C44.4869 101.71 44.6723 102.982 44.6871 104.263C44.7011 105.492 44.5085 106.689 44.0758 107.842C43.651 108.973 43.0462 110.023 42.4327 111.061C39.8533 115.425 28.2995 134.498 27.9996 135.052C27.9798 135.089 28.0302 135.126 28.054 135.09C30.8263 130.788 39.4271 117.047 42.0436 112.612C43.2237 110.612 44.5762 108.586 44.9614 106.251C45.3617 103.824 44.8444 101.286 44.5254 98.8784Z" fill="#37474F"/>
<path d="M40.4168 137.844C40.4168 137.844 40.2562 154.113 40.2559 154.124C40.3419 157.235 40.4729 159.962 40.6724 161.366C40.6724 161.374 40.6724 161.381 40.676 161.389C40.7505 161.919 40.8347 162.256 40.9323 162.344C40.9399 162.351 40.9435 162.359 40.951 162.363C41.8946 162.964 66.7817 163.002 67.6497 162.711C68.5216 162.423 67.7573 159.922 66.7929 159.15C65.8205 158.378 56.3025 154.102 56.3025 154.102L56.3093 137.846L40.4168 137.844Z" fill="#EB9481"/>
<path d="M40.289 150.784C40.289 150.784 40.2562 154.112 40.2559 154.124C40.3419 157.235 40.4729 159.962 40.6724 161.366C40.6724 161.374 40.6724 161.381 40.676 161.389C40.7811 161.912 40.8725 162.256 40.9323 162.344C40.9399 162.351 40.9435 162.359 40.951 162.363C41.8946 162.964 66.7817 163.002 67.6497 162.711C68.5216 162.424 67.7573 159.922 66.7929 159.15C65.8205 158.378 56.3025 154.102 56.3025 154.102L56.3039 150.711L40.289 150.784Z" fill="#EBEBEB"/>
<path d="M67.662 162.68C66.7807 162.961 41.697 162.519 40.7534 161.895C40.3906 161.665 40.2419 158.006 40.1893 153.58C40.1893 153.534 40.1893 153.487 40.189 153.441L56.3749 153.545L56.3638 153.82C56.3638 153.82 65.8894 158.283 66.8556 159.079C67.8136 159.871 68.5436 162.405 67.662 162.68Z" fill="#FFC727"/>
<path d="M67.3952 161.702C63.1688 161.524 46.1048 161.204 41.9133 161.349C41.8791 161.35 41.8787 161.374 41.9129 161.376C46.0983 161.644 63.1641 161.826 67.3941 161.772C67.4834 161.771 67.4844 161.706 67.3952 161.702Z" fill="white"/>
<path d="M57.7223 153.892C56.0638 153.552 54.0244 153.771 52.732 154.934C52.6819 154.979 52.7467 155.05 52.8007 155.034C54.4513 154.546 55.9903 154.24 57.7118 154.102C57.8335 154.092 57.8414 153.916 57.7223 153.892Z" fill="#263238"/>
<path d="M58.9106 154.638C57.2521 154.298 55.2127 154.517 53.9203 155.681C53.8703 155.726 53.9351 155.796 53.9891 155.78C55.64 155.291 57.1787 154.986 58.9002 154.848C59.0219 154.838 59.0294 154.662 58.9106 154.638Z" fill="#263238"/>
<path d="M60.0991 155.382C58.4406 155.042 56.4008 155.261 55.1088 156.424C55.0587 156.469 55.1235 156.54 55.1775 156.524C56.8281 156.035 58.3671 155.73 60.0887 155.591C60.21 155.582 60.2179 155.406 60.0991 155.382Z" fill="#263238"/>
<path d="M68.0605 161.789C68.5065 161.97 68.383 163.475 68.0569 163.591C67.7307 163.706 40.3833 163.104 39.92 162.992C39.4567 162.879 39.6572 161.214 40.1986 161.138C40.7397 161.062 68.0605 161.789 68.0605 161.789Z" fill="#263238"/>
<path d="M44.2807 156.324C42.4781 155.382 41.0122 158.182 42.818 159.125C44.6205 160.066 46.0864 157.266 44.2807 156.324Z" fill="white"/>
<path d="M51.2999 66.2308C51.2999 66.2308 51.2996 66.2344 51.2945 66.2456C51.1999 66.5397 46.0749 80.5826 45.5925 80.8065C45.046 81.0581 56.9134 100.992 57.6154 110.253C58.0643 116.176 57.1841 149.695 57.1841 149.695H39.8343C39.8343 149.695 40.668 119.56 41.0648 110.012C41.2185 106.309 29.1524 87.8747 29.0044 76.3954C28.9576 72.7771 31.5575 66.166 31.5575 66.166L51.2999 66.2308Z" fill="#263238"/>
<path d="M41.1642 109.753C41.1642 109.6 41.0436 109.551 41.0317 109.707C40.6397 114.875 40.5486 120.014 40.3016 125.19C40.0554 130.351 40.1954 131.595 39.9654 136.757C39.8351 139.678 39.9586 142.606 39.8909 145.529C39.8898 145.575 39.9578 145.58 39.9625 145.535C40.5025 140.384 41.1606 112.679 41.1642 109.753Z" fill="#37474F"/>
<path d="M57.6154 110.458C57.5769 109.185 57.4934 107.908 57.2648 106.654C57.0412 105.427 56.6524 104.239 56.1934 103.082C55.2347 100.665 54.1011 98.3077 53.0182 95.9443C51.9213 93.5503 50.802 91.1667 49.645 88.8012C48.9945 87.4713 48.3404 86.1437 47.6816 84.8181C47.0148 83.4771 46.2966 82.1603 45.5986 80.8355C45.5709 80.7829 45.4902 80.8218 45.5154 80.8758C46.6275 83.2633 47.7248 85.6573 48.8368 88.0452C49.9485 90.4327 51.0407 92.8299 52.133 95.2261C53.2076 97.583 54.2843 99.9421 55.297 102.327C55.7823 103.47 56.2355 104.629 56.5347 105.836C56.841 107.074 56.971 108.344 57.043 109.615C57.2108 112.579 57.2932 115.551 57.5841 118.507C57.5877 118.544 57.6482 118.54 57.6492 118.503C57.7382 115.827 57.6964 113.134 57.6154 110.458Z" fill="#37474F"/>
<path d="M55.9278 146.267C54.9183 146.136 47.232 145.871 40.8006 146.145C40.7574 146.147 40.7606 146.207 40.802 146.211C42.8983 146.397 54.7405 146.477 55.9191 146.342C55.9584 146.337 55.9735 146.273 55.9278 146.267Z" fill="#37474F"/>
<path d="M47.9909 80.027C46.1347 80.4604 44.3145 81.1592 42.5657 81.908C42.4973 81.9371 42.5297 82.0422 42.6031 82.0196C44.4243 81.4493 46.2762 80.9147 48.0636 80.2448C48.204 80.1922 48.1334 79.9938 47.9909 80.027Z" fill="#37474F"/>
<path d="M49.7405 68.1337C49.7419 68.0728 49.6375 68.0487 49.6311 68.1139C49.4331 70.186 49.1141 71.9943 48.7411 73.912C48.568 74.8023 47.3364 79.6933 45.8154 79.1716C45.5609 79.0845 45.454 78.8138 45.4533 78.4163C45.4525 77.9386 45.6898 77.377 45.8161 76.9148C46.0955 75.8931 46.3414 74.8646 46.5379 73.8238C46.9055 71.8809 47.1147 69.9218 47.0765 67.9436C47.0751 67.8788 46.9822 67.8741 46.9753 67.9389C46.6996 70.6522 46.3511 73.3533 45.67 75.9989C45.3427 77.2705 44.4931 79.1482 45.8233 79.4852C47.1787 79.8286 48.402 76.6628 48.6612 75.7894C49.3855 73.3511 49.6793 70.6691 49.7405 68.1337Z" fill="#37474F"/>
<path d="M45.8435 79.3086C45.6685 79.6275 45.5199 79.963 45.3877 80.3018C45.2851 80.565 45.1534 80.8472 45.1555 81.133C45.1559 81.1885 45.2279 81.2011 45.261 81.1672C45.4673 80.9541 45.5771 80.6452 45.7074 80.381C45.8586 80.075 46.0163 79.7715 46.1585 79.4612C46.2528 79.2553 45.9515 79.1116 45.8435 79.3086Z" fill="#37474F"/>
<path d="M42.9407 114.852C43.0297 112.386 43.3036 109.799 42.4947 107.419C42.0937 106.239 41.4842 105.146 40.9121 104.043C40.3106 102.883 39.7209 101.717 39.1413 100.546C36.8233 95.8641 34.6391 91.1078 32.6879 86.2607C31.7483 83.9265 30.9081 81.5307 30.5722 79.0254C30.2209 76.405 30.4711 73.7237 31.0568 71.1555C31.2029 70.5136 31.3588 69.8746 31.5341 69.2399C31.5471 69.1935 31.4776 69.1672 31.4629 69.214C30.682 71.6476 30.1445 74.1766 30.1096 76.7405C30.0761 79.2105 30.6172 81.6088 31.4153 83.9337C32.2466 86.3554 33.2888 88.7098 34.3141 91.0538C35.3714 93.4701 36.4687 95.8691 37.6099 98.2473C38.7453 100.613 39.956 102.94 41.1537 105.274C41.7337 106.404 42.2618 107.56 42.4857 108.819C42.7136 110.101 42.6772 111.407 42.6286 112.702C42.4241 118.159 41.9536 136.318 41.8845 141.761C41.8759 142.452 41.8672 143.143 41.86 143.834C41.8593 143.895 41.9515 143.904 41.9554 143.842C42.301 138.411 42.7445 120.293 42.9407 114.852Z" fill="#37474F"/>
<path d="M39.0487 69.7661C39.0462 69.7273 38.9883 69.7352 38.9836 69.7697C38.7791 71.2713 38.6621 72.829 37.9371 74.1913C37.2718 75.4415 36.1111 76.2472 34.8465 76.8113C34.1153 77.1375 33.3546 77.3945 32.5943 77.6419C32.5396 77.6595 32.5518 77.7452 32.6119 77.7326C34.0469 77.4345 35.5056 77.1001 36.753 76.2944C38.0886 75.4315 38.7751 74.0509 38.9947 72.505C39.1236 71.5964 39.1096 70.6787 39.0487 69.7661Z" fill="#37474F"/>
<path d="M49.2933 45.9839C52.2399 51.6143 61.503 59.7507 64.4572 60.4617C68.0982 61.3379 76.1835 55.2377 79.3194 51.6442C80.6151 50.1596 75.2136 43.6792 72.8866 43.9827C71.6068 44.1494 65.0516 50.7348 63.968 50.282C61.3562 49.1908 57.7295 46.9617 52.5484 43.964C49.7278 42.3321 47.4609 42.4826 49.2933 45.9839Z" fill="#EB9481"/>
<path d="M70.0952 46.1531C70.0952 46.1531 71.5637 43.5334 72.4626 42.525C73.3615 41.5166 78.0948 38.9909 78.6981 39.9823C79.4775 41.2621 77.0321 43.2583 75.7069 44.0798C75.7069 44.0798 77.5123 47.039 76.0673 48.8513C74.6222 50.6635 70.0952 46.1531 70.0952 46.1531Z" fill="#EB9481"/>
<path d="M78.3277 52.6112C79.3278 52.0399 83.6795 49.0173 84.7026 47.9049C85.7254 46.7929 88.4373 43.3793 87.6651 42.5092C86.8929 41.6395 86.0191 42.5755 86.0191 42.5755C86.0191 42.5755 86.9361 40.9526 86.0789 40.148C85.2217 39.3434 83.9106 40.8439 83.9106 40.8439C83.9106 40.8439 84.7307 39.1087 83.8185 38.3671C82.9062 37.6255 81.8403 39.3553 81.8403 39.3553C81.8403 39.3553 82.6639 37.8037 81.6552 37.5092C80.442 37.1546 79.2465 40.1865 78.0253 41.3295C77.7481 41.5891 72.0292 46.1902 72.0292 46.1902L78.3277 52.6112Z" fill="#EB9481"/>
<path d="M81.9342 39.2091C81.0501 41.4368 80.2775 42.2583 78.3709 43.6479C78.3335 43.6749 78.3655 43.7365 78.4073 43.7116C80.3985 42.5207 81.5155 41.6301 82.0444 39.2462C82.0703 39.1299 81.9763 39.1033 81.9342 39.2091Z" fill="#263238"/>
<path d="M83.9772 40.6655C82.8569 42.8989 82.0271 43.7975 80.1371 45.3998C80.1104 45.4225 80.1461 45.47 80.1749 45.4495C82.1603 44.0326 83.2547 43.1185 84.0812 40.7396C84.1187 40.632 84.0287 40.5632 83.9772 40.6655Z" fill="#263238"/>
<path d="M85.9202 42.6538C84.6793 44.7378 83.812 45.762 81.7773 47.0821C81.7294 47.1135 81.7701 47.1862 81.8212 47.1595C84.0266 46.0155 85.1185 44.745 85.9792 42.6981C86.0383 42.5587 85.9983 42.5227 85.9202 42.6538Z" fill="#263238"/>
<path d="M78.7971 40.4042C78.6657 42.0839 76.8563 43.0498 75.6302 43.9426C75.5369 44.0103 75.5589 44.1096 75.6248 44.1705C76.2987 45.4614 76.8732 47.4782 76.1615 48.8404C76.1406 48.8804 76.1943 48.9153 76.2209 48.8782C77.1825 47.5206 76.7796 45.4931 75.9509 44.1266C77.2228 43.2305 78.9947 42.1826 78.8133 40.4049C78.8122 40.3944 78.7978 40.3934 78.7971 40.4042Z" fill="#263238"/>
<path d="M59.4475 47.2684L55.7704 55.768C55.7704 55.768 49.3667 47.8484 48.1409 44.9878C46.7614 41.7683 48.709 41.7669 51.8108 42.9772C54.9122 44.1875 59.4475 47.2684 59.4475 47.2684Z" fill="#455A64"/>
<path d="M57.1233 46.5964C57.0081 46.5892 56.9073 46.564 56.8173 46.51C56.6373 46.402 56.5293 46.2112 56.5329 46.0024C56.5293 45.7324 56.3529 45.4732 56.1045 45.3796C55.9857 45.3292 55.8417 45.3292 55.7301 45.3436C55.6149 45.358 55.4961 45.3688 55.3773 45.3904C55.4961 45.4084 55.6149 45.4192 55.7301 45.4336C55.8525 45.4408 55.9497 45.4624 56.0433 45.5128C56.2269 45.6136 56.3457 45.8044 56.3457 46.006C56.3385 46.2724 56.5077 46.5388 56.7525 46.6396C56.8677 46.6972 57.0081 46.7044 57.1233 46.69C57.2421 46.672 57.3609 46.6648 57.4761 46.6432C57.3609 46.6216 57.2421 46.6108 57.1233 46.5964ZM48.1125 44.638C48.0981 44.5192 48.0873 44.404 48.0657 44.2852C48.0441 44.404 48.0369 44.5192 48.0225 44.638C48.0225 44.6524 48.0189 44.6668 48.0153 44.6812C48.0441 44.7532 48.0729 44.8252 48.1053 44.9044C48.1269 44.8144 48.1233 44.7172 48.1125 44.638ZM53.9409 49.786C53.8509 49.8652 53.7645 49.9156 53.6601 49.9408C53.4585 49.9912 53.2461 49.9336 53.1021 49.786C52.9077 49.5952 52.5981 49.5376 52.3605 49.6456C52.2381 49.696 52.1373 49.7968 52.0689 49.8868C51.9969 49.9804 51.9213 50.0668 51.8529 50.1676C51.9501 50.0992 52.0401 50.0236 52.1337 49.9516C52.2237 49.8688 52.3065 49.8148 52.4109 49.7824C52.6089 49.7248 52.8285 49.7788 52.9725 49.9192C53.1561 50.11 53.4621 50.182 53.7069 50.0812C53.8293 50.038 53.9337 49.9444 54.0057 49.8508C54.0777 49.7572 54.1533 49.6672 54.2217 49.57C54.1245 49.6384 54.0345 49.714 53.9409 49.786Z" fill="white"/>
<path d="M57.781 46.9034C57.1662 47.9222 55.7532 51.2378 55.5141 51.7835C55.3881 52.0712 54.9356 53.2412 54.8078 53.527C54.7912 53.5637 54.851 53.5821 54.8672 53.5457C55.1113 53 55.413 52.4783 55.6621 51.9333C55.917 51.3756 57.4707 48.0676 57.8232 46.9228C57.8307 46.898 57.7951 46.8803 57.781 46.9034Z" fill="#263238"/>
<path opacity="0.1" d="M48.142 44.987C49.3656 47.8483 55.7704 55.7676 55.7704 55.7676L57.6643 51.3878L48.7648 42.2344C47.6812 42.2902 47.3201 43.0668 48.142 44.987Z" fill="black"/>
<path d="M29.2103 69.9214C29.2107 69.9193 53.7357 74.6713 53.7353 74.6734C53.6414 75.154 54.7862 57.748 52.9948 45.6733C52.4649 42.1013 48.4563 40.4144 44.7108 43.5698C36.8211 50.2157 29.1495 70.2332 29.2103 69.9214Z" fill="#455A64"/>
<path d="M34.2921 58.7335C34.2525 58.8127 34.2129 58.8883 34.1769 58.9639C34.2021 58.9387 34.2273 58.9099 34.2489 58.8847C34.3173 58.7911 34.3965 58.7011 34.4613 58.6039C34.4037 58.6435 34.3461 58.6903 34.2921 58.7335ZM53.5017 69.8827C53.3109 69.6919 53.0013 69.6379 52.7601 69.7459C52.6377 69.7927 52.5369 69.8935 52.4685 69.9835C52.3965 70.0771 52.3209 70.1671 52.2525 70.2643C52.3497 70.1959 52.4397 70.1203 52.5333 70.0483C52.6269 69.9691 52.7061 69.9115 52.8105 69.8827C53.0085 69.8251 53.2317 69.8755 53.3721 70.0195C53.5053 70.1563 53.7033 70.2319 53.8941 70.2283C53.8941 70.1707 53.8977 70.1131 53.8977 70.0555C53.7501 70.0519 53.6097 69.9907 53.5017 69.8827ZM39.1197 71.1859C39.0297 71.2651 38.9433 71.3155 38.8389 71.3443C38.6373 71.3947 38.4249 71.3335 38.2809 71.1859C38.0865 70.9951 37.7769 70.9411 37.5357 71.0491C37.4169 71.0959 37.3161 71.1967 37.2477 71.2867C37.2045 71.3407 37.1613 71.3947 37.1181 71.4523L37.1685 71.4595C37.1721 71.4631 37.1721 71.4631 37.1721 71.4595C37.2189 71.4235 37.2657 71.3875 37.3125 71.3515C37.4025 71.2723 37.4853 71.2147 37.5861 71.1859C37.7877 71.1283 38.0073 71.1787 38.1513 71.3227C38.3349 71.5099 38.6409 71.5855 38.8857 71.4811C39.0081 71.4379 39.1125 71.3443 39.1845 71.2507C39.2565 71.1571 39.3321 71.0707 39.4005 70.9699C39.3033 71.0383 39.2133 71.1139 39.1197 71.1859ZM45.5493 58.5211C45.4593 58.6003 45.3729 58.6507 45.2721 58.6759C45.0669 58.7299 44.8545 58.6687 44.7105 58.5211C44.5161 58.3303 44.2065 58.2727 43.9689 58.3843C43.8465 58.4311 43.7457 58.5319 43.6773 58.6219C43.6053 58.7155 43.5297 58.8055 43.4613 58.9027C43.5585 58.8343 43.6485 58.7587 43.7421 58.6867C43.8321 58.6039 43.9149 58.5499 44.0193 58.5211C44.2173 58.4599 44.4405 58.5139 44.5809 58.6543C44.7645 58.8451 45.0705 58.9171 45.3153 58.8163C45.4377 58.7731 45.5457 58.6795 45.6141 58.5859C45.6861 58.4923 45.7617 58.4023 45.8301 58.3051C45.7329 58.3735 45.6429 58.4491 45.5493 58.5211ZM53.4945 49.9531C53.3469 49.9495 53.2065 49.8919 53.1021 49.7839C52.9077 49.5931 52.5981 49.5355 52.3605 49.6435C52.2381 49.6939 52.1373 49.7947 52.0689 49.8847C51.9969 49.9783 51.9213 50.0647 51.8529 50.1655C51.9501 50.0971 52.0401 50.0215 52.1337 49.9495C52.2237 49.8667 52.3065 49.8127 52.4109 49.7803C52.6089 49.7227 52.8285 49.7767 52.9725 49.9171C53.1093 50.0575 53.3145 50.1367 53.5089 50.1223C53.5089 50.0647 53.5017 50.0107 53.4945 49.9531ZM53.9085 56.7787C53.6817 56.8147 53.4693 56.9695 53.3829 57.1783C53.3289 57.2971 53.3217 57.4375 53.3361 57.5527C53.3505 57.6679 53.3613 57.7867 53.3829 57.9019C53.4045 57.7867 53.4117 57.6679 53.4261 57.5527C53.4369 57.4339 53.4621 57.3331 53.5161 57.2431C53.6025 57.0955 53.7501 56.9947 53.9157 56.9659C53.9121 56.9047 53.9085 56.8435 53.9085 56.7787ZM39.5157 54.0607C39.5013 53.9419 39.4905 53.8231 39.4689 53.7079C39.4473 53.8231 39.4401 53.9419 39.4221 54.0607C39.4149 54.1795 39.3969 54.2767 39.3465 54.3703C39.2457 54.5539 39.0513 54.6727 38.8533 54.6727C38.5869 54.6691 38.3169 54.8347 38.2161 55.0795C38.1621 55.1983 38.1549 55.3387 38.1693 55.4539C38.1837 55.5727 38.1945 55.6879 38.2161 55.8067C38.2377 55.6879 38.2449 55.5727 38.2629 55.4539C38.2701 55.3351 38.2953 55.2379 38.3493 55.1443C38.4573 54.9679 38.6481 54.8563 38.8569 54.8599C39.1269 54.8599 39.3861 54.6799 39.4797 54.4315C39.5301 54.3127 39.5301 54.1723 39.5157 54.0607ZM33.9501 65.9947C33.9357 65.8795 33.9249 65.7607 33.9033 65.6419C33.8817 65.7607 33.8745 65.8795 33.8601 65.9947C33.8529 66.1171 33.8313 66.2143 33.7809 66.3079C33.6801 66.4915 33.4893 66.6103 33.2877 66.6103C33.0213 66.6031 32.7549 66.7723 32.6541 67.0171C32.5965 67.1323 32.5893 67.2727 32.6037 67.3915C32.6217 67.5067 32.6289 67.6255 32.6505 67.7407C32.6721 67.6255 32.6793 67.5067 32.6973 67.3915C32.7045 67.2727 32.7297 67.1719 32.7837 67.0819C32.8917 66.9019 33.0825 66.7939 33.2913 66.7975C33.5613 66.7939 33.8205 66.6175 33.9141 66.3691C33.9645 66.2503 33.9645 66.1063 33.9501 65.9947ZM45.3189 65.2567C45.3045 65.1415 45.2937 65.0227 45.2721 64.9075C45.2505 65.0227 45.2433 65.1415 45.2253 65.2567C45.2181 65.3791 45.2001 65.4763 45.1497 65.5699C45.0489 65.7535 44.8545 65.8723 44.6565 65.8723C44.3901 65.8687 44.1237 66.0343 44.0193 66.2791C43.9653 66.3943 43.9581 66.5347 43.9725 66.6535C43.9869 66.7687 43.9977 66.8875 44.0193 67.0027C44.0409 66.8875 44.0481 66.7687 44.0661 66.6535C44.0733 66.5347 44.0985 66.4339 44.1525 66.3439C44.2605 66.1639 44.4513 66.0559 44.6601 66.0595C44.9301 66.0559 45.1893 65.8795 45.2829 65.6311C45.3333 65.5123 45.3333 65.3683 45.3189 65.2567ZM48.1125 44.6359C48.0981 44.5171 48.0873 44.4019 48.0657 44.2831C48.0441 44.4019 48.0369 44.5171 48.0225 44.6359C48.0117 44.7583 47.9937 44.8555 47.9433 44.9491C47.8425 45.1291 47.6481 45.2515 47.4501 45.2479C47.1837 45.2443 46.9173 45.4099 46.8129 45.6547C46.7589 45.7735 46.7517 45.9139 46.7661 46.0291C46.7805 46.1479 46.7913 46.2631 46.8129 46.3819C46.8345 46.2631 46.8417 46.1479 46.8597 46.0291C46.8669 45.9103 46.8921 45.8131 46.9461 45.7231C47.0541 45.5431 47.2449 45.4315 47.4537 45.4387C47.7237 45.4351 47.9829 45.2551 48.0765 45.0103C48.1269 44.8915 48.1269 44.7475 48.1125 44.6359ZM41.1141 48.8875C41.0241 48.9703 40.9413 49.0243 40.8405 49.0531C40.6389 49.1143 40.4193 49.0603 40.2789 48.9199C40.2357 48.8731 40.1817 48.8335 40.1241 48.8047C40.0917 48.8551 40.0557 48.9055 40.0161 48.9559C40.0629 48.9811 40.1061 49.0135 40.1457 49.0531C40.3401 49.2439 40.6497 49.3015 40.8909 49.1899C41.0097 49.1431 41.1105 49.0423 41.1789 48.9523C41.2509 48.8587 41.3301 48.7687 41.3949 48.6715C41.2977 48.7399 41.2077 48.8155 41.1141 48.8875ZM51.7809 62.8663C51.6621 62.8591 51.5649 62.8339 51.4713 62.7799C51.2949 62.6719 51.1833 62.4775 51.1869 62.2723C51.1869 62.0023 51.0069 61.7431 50.7585 61.6495C50.6397 61.5991 50.4993 61.5991 50.3877 61.6135C50.2689 61.6279 50.1501 61.6387 50.0349 61.6567C50.1501 61.6783 50.2689 61.6891 50.3877 61.7035C50.5065 61.7107 50.6037 61.7323 50.6973 61.7827C50.8809 61.8799 50.9997 62.0743 50.9997 62.2759C50.9961 62.5387 51.1617 62.8087 51.4065 62.9095C51.5253 62.9671 51.6657 62.9743 51.7809 62.9599C51.8997 62.9419 52.0149 62.9347 52.1337 62.9131C52.0149 62.8915 51.8997 62.8807 51.7809 62.8663ZM45.3765 72.7915C45.3765 72.5179 45.1965 72.2623 44.9481 72.1687C44.8293 72.1147 44.6889 72.1147 44.5773 72.1327C44.4585 72.1471 44.3397 72.1543 44.2245 72.1759C44.3397 72.1975 44.4585 72.2083 44.5773 72.2227C44.6961 72.2299 44.7933 72.2479 44.8869 72.3019C45.0705 72.3991 45.1893 72.5935 45.1893 72.7951C45.1893 72.8707 45.2001 72.9499 45.2289 73.0219L45.4449 73.0651C45.3981 72.9823 45.3765 72.8887 45.3765 72.7915ZM38.9361 63.5467C38.8173 63.5395 38.7201 63.5143 38.6265 63.4603C38.4465 63.3523 38.3385 63.1615 38.3421 62.9527C38.3421 62.6827 38.1621 62.4235 37.9137 62.3299C37.7949 62.2795 37.6509 62.2795 37.5393 62.2939C37.4241 62.3083 37.3053 62.3191 37.1901 62.3407C37.3053 62.3587 37.4241 62.3695 37.5393 62.3839C37.6617 62.3911 37.7589 62.4127 37.8525 62.4631C38.0361 62.5639 38.1549 62.7547 38.1549 62.9563C38.1513 63.2227 38.3169 63.4891 38.5617 63.5899C38.6805 63.6475 38.8209 63.6547 38.9361 63.6403C39.0513 63.6223 39.1701 63.6151 39.2853 63.5935C39.1701 63.5719 39.0513 63.5611 38.9361 63.5467ZM47.5833 53.1931C47.4681 53.1859 47.3673 53.1607 47.2773 53.1031C47.0973 52.9987 46.9893 52.8043 46.9929 52.5991C46.9893 52.3255 46.8093 52.0699 46.5645 51.9763C46.4457 51.9223 46.3017 51.9223 46.1901 51.9367C46.0713 51.9547 45.9561 51.9619 45.8373 51.9835C45.9561 52.0051 46.0713 52.0159 46.1901 52.0303C46.3125 52.0375 46.4097 52.0555 46.5033 52.1095C46.6833 52.2067 46.8057 52.4011 46.8057 52.6027C46.7985 52.8655 46.9677 53.1355 47.2089 53.2363C47.3277 53.2903 47.4681 53.3011 47.5833 53.2831C47.7021 53.2687 47.8209 53.2579 47.9361 53.2363C47.8209 53.2183 47.7021 53.2075 47.5833 53.1931Z" fill="white"/>
<path d="M51.3619 46.4482C50.1674 46.7085 47.7136 45.2635 46.8954 43.5488C46.8399 43.4311 47.0818 42.238 47.3072 40.775C47.4404 39.8865 47.5678 38.894 47.619 37.9799C47.6283 37.7924 53.2738 39.6921 53.2738 39.6921C53.2738 39.6921 52.6035 41.5767 52.5247 43.1708C52.5196 43.304 52.5258 43.4285 52.543 43.5481C52.5441 43.5653 52.5477 43.5866 52.5481 43.6107C52.6244 44.3296 52.6399 46.1696 51.3619 46.4482Z" fill="#EB9481"/>
<path d="M52.5449 43.5471C52.5445 43.5655 52.5477 43.5878 52.547 43.6097C52.3667 43.6241 52.1715 43.6234 51.9588 43.6076C48.5888 43.3451 47.9336 39.0719 47.8217 37.9923C48.8322 38.195 53.2742 39.6911 53.2742 39.6911C53.2742 39.6911 52.6035 41.5775 52.524 43.1716C52.5211 43.3037 52.5254 43.429 52.5449 43.5471Z" fill="#263238"/>
<path d="M46.9515 30.8048C46.2819 32.8251 47.2157 38.7302 48.6319 40.0758C50.685 42.0263 54.1165 42.2902 55.7913 39.8066C57.4149 37.3989 56.0616 29.7248 54.4733 28.4946C52.1337 26.6831 47.9411 27.8204 46.9515 30.8048Z" fill="#EB9481"/>
<path d="M52.6031 34.4624C52.5977 34.4477 52.5747 34.4862 52.5779 34.5024C52.6517 34.8984 52.669 35.3646 52.3292 35.5518C52.3187 35.5575 52.3227 35.5773 52.336 35.5737C52.7659 35.4441 52.736 34.8257 52.6031 34.4624Z" fill="#263238"/>
<path d="M52.1838 34.1007C51.5361 34.15 51.6826 35.4421 52.2828 35.396C52.8732 35.351 52.7266 34.0593 52.1838 34.1007Z" fill="#263238"/>
<path d="M54.9266 34.2661C54.9281 34.2503 54.9601 34.2812 54.9616 34.2978C54.9943 34.6992 55.0994 35.1535 55.4764 35.2457C55.4882 35.2485 55.4893 35.2687 55.4756 35.2683C55.0267 35.2561 54.8932 34.6513 54.9266 34.2661Z" fill="#263238"/>
<path d="M55.2366 33.8069C55.8745 33.6853 56.0714 34.9701 55.4803 35.0828C54.8986 35.194 54.7016 33.9092 55.2366 33.8069Z" fill="#263238"/>
<path d="M51.6071 33.5689C51.7781 33.5048 51.9249 33.417 52.0873 33.336C52.2705 33.2445 52.4261 33.1905 52.5319 33.0051C52.5884 32.9054 52.542 32.7438 52.4505 32.6797C52.2374 32.5299 51.9851 32.5861 51.7601 32.6872C51.5156 32.7967 51.3554 32.9439 51.2355 33.1826C51.1189 33.4141 51.3817 33.6538 51.6071 33.5689Z" fill="#263238"/>
<path d="M55.6621 33.0992C55.4795 33.0902 55.3129 33.0517 55.1336 33.0243C54.9309 32.9934 54.7667 32.9894 54.6091 32.845C54.5245 32.7676 54.5194 32.5992 54.5871 32.5099C54.7444 32.3025 55.0018 32.2788 55.247 32.3061C55.513 32.3356 55.7107 32.4267 55.8979 32.6175C56.0797 32.8026 55.9025 33.1111 55.6621 33.0992Z" fill="#263238"/>
<path d="M52.6543 38.2177C52.7609 38.3005 52.8711 38.4186 53.0176 38.4143C53.1584 38.4103 53.3142 38.3289 53.4363 38.2649C53.4485 38.2587 53.4629 38.2706 53.4561 38.2836C53.3697 38.4488 53.1619 38.5698 52.9729 38.5583C52.7883 38.5471 52.681 38.4006 52.618 38.24C52.609 38.2177 52.6389 38.2058 52.6543 38.2177Z" fill="#263238"/>
<path d="M52.9391 36.9714C53.2022 37.2933 53.5532 37.4459 53.9172 37.4743C54.0799 37.488 54.2477 37.4747 54.4097 37.4412C54.4417 37.4369 54.4737 37.4297 54.5022 37.42C54.531 37.4131 54.5569 37.4067 54.5886 37.3966C54.6347 37.3843 54.6559 37.3429 54.6588 37.2979L54.6584 37.2951C54.6566 37.2803 54.6548 37.2684 54.6501 37.2544C54.6501 37.2544 54.6501 37.2544 54.6498 37.2515L54.6451 37.2166C54.6188 36.9077 54.5357 36.4426 54.5357 36.4426C54.6545 36.4861 55.2578 36.6795 55.2305 36.5193C54.9997 35.1959 54.7434 33.7242 54.234 32.4559C54.2192 32.4135 54.1533 32.4311 54.162 32.4747C54.3333 33.7552 54.729 34.9972 54.9216 36.2806C54.7304 36.232 54.4172 36.1369 54.2563 36.1585C54.2138 36.1762 54.4327 37.0546 54.4338 37.1943C54.4338 37.1943 54.4345 37.2 54.4327 37.2094C53.9226 37.3343 53.5147 37.222 52.9729 36.9315C52.9398 36.9117 52.9113 36.9423 52.9391 36.9714Z" fill="#263238"/>
<path d="M54.3222 37.3684C54.3222 37.3684 54.0637 37.7964 53.6713 37.9793C53.5269 38.0469 53.3678 38.0837 53.1947 38.0545C52.8393 37.9962 52.8005 37.6787 52.8383 37.4004C52.8689 37.1714 52.9542 36.9688 52.9542 36.9688C52.9542 36.9688 53.5053 37.395 54.3222 37.3684Z" fill="#263238"/>
<path d="M53.6713 37.9793C53.5269 38.047 53.3678 38.0837 53.1947 38.0545C52.8393 37.9962 52.8005 37.6787 52.8383 37.4004C53.2137 37.4033 53.6054 37.6211 53.6713 37.9793Z" fill="#FF9ABB"/>
<path d="M48.8473 34.102C49.2274 32.9493 48.5528 31.0308 49.1223 30.5099C50.3557 29.3828 52.9167 31.5028 54.6627 31.4988C56.3551 31.4949 56.9116 30.4019 56.5945 29.0314C56.2773 27.6605 55.103 26.7479 53.2015 26.4801C51.2341 26.2032 49.4499 27.01 48.4815 27.6422C48.4815 27.6422 48.9031 26.9531 48.7414 26.7411C48.5798 26.5294 47.7565 27.1954 47.5056 27.4787C47.2507 27.7664 47.0984 28.2977 47.0984 28.2977C47.0984 28.2977 46.7888 28.2084 46.3251 28.2243C45.8949 28.239 45.3556 28.5807 45.3258 28.6818C45.2959 28.7834 45.9126 28.8568 46.3446 28.8748C46.3446 28.8748 45.5486 29.9508 45.5734 30.8656C45.5983 31.7804 47.0588 36.1148 47.4012 36.1587C47.8414 36.2156 48.6928 34.5704 48.8473 34.102Z" fill="#263238"/>
<path d="M46.5109 28.762C46.526 28.753 46.5466 28.7738 46.5322 28.7864C46.1236 29.1454 45.7934 29.5622 45.6278 30.0882C45.4352 30.6998 45.4824 31.3572 45.6253 31.9739C45.9032 33.1734 46.4994 34.2588 47.0196 35.3636C47.0347 35.396 46.9804 35.4227 46.9631 35.3914C46.3374 34.2563 45.7006 33.0229 45.4576 31.7399C45.2502 30.6458 45.4936 29.3833 46.5109 28.762Z" fill="#263238"/>
<path d="M49.0518 30.0656C49.5479 29.9921 50.1012 30.0346 50.5879 30.1531C51.0674 30.2701 51.4789 30.5642 51.9095 30.7935C52.875 31.3079 53.933 31.7039 55.0436 31.6262C55.058 31.6251 55.0588 31.6463 55.0447 31.6481C54.0302 31.7842 53.0345 31.4905 52.1291 31.0487C51.6722 30.8259 51.2402 30.5055 50.7593 30.3392C50.2128 30.1502 49.6267 30.1631 49.0568 30.1563C48.9978 30.1559 48.9938 30.0742 49.0518 30.0656Z" fill="#263238"/>
<path d="M49.5212 27.1526C50.1988 26.799 50.9378 26.5647 51.6866 26.4171C52.4048 26.2752 53.1479 26.2104 53.8751 26.3228C55.1304 26.5164 56.2903 27.3056 56.5949 28.5908C56.7493 29.242 56.6867 29.9588 56.3558 30.5477C56.3335 30.5873 56.2745 30.5571 56.2928 30.5157C56.799 29.3842 56.5855 28.0187 55.6218 27.1958C54.5868 26.312 53.1421 26.2554 51.8609 26.4711C51.0545 26.6068 50.2844 26.8613 49.5256 27.1612C49.5202 27.1626 49.5162 27.1547 49.5212 27.1526Z" fill="#263238"/>
<path d="M48.3228 35.6983C48.3228 35.6983 47.0002 33.7914 46.1355 34.2623C45.2707 34.7332 46.26 37.4936 47.2716 37.8749C48.2832 38.2558 48.6544 37.3262 48.6544 37.3262L48.3228 35.6983Z" fill="#EB9481"/>
<path d="M46.4386 35.0469C46.4224 35.0455 46.4191 35.0682 46.4332 35.0739C47.1424 35.3645 47.5139 36.0247 47.7731 36.7087C47.5629 36.4448 47.2756 36.2997 46.9228 36.5499C46.9044 36.5629 46.9221 36.5921 46.9419 36.5881C47.2331 36.5269 47.443 36.578 47.6385 36.812C47.7771 36.9776 47.8714 37.1868 47.9704 37.3776C48.0035 37.4413 48.1183 37.4078 48.0942 37.3344C48.0924 37.329 48.0906 37.3236 48.0885 37.3178C48.1097 36.4121 47.4106 35.142 46.4386 35.0469Z" fill="#263238"/>
<path d="M92.9128 27.89L108.292 50.0937L129.002 54.6736L134.161 57.8589L117.797 79.3466L118.406 106.349L92.9128 97.4262L67.4197 106.349L62.2609 103.164L68.0285 79.3466L51.6643 57.8589L77.5336 50.0937L87.754 24.7051L92.9128 27.89Z" fill="#FFC727"/>
<path opacity="0.1" d="M92.9128 27.89L108.292 50.0937L129.002 54.6736L134.161 57.8589L117.797 79.3466L118.406 106.349L92.9128 97.4262L67.4197 106.349L62.2609 103.164L68.0285 79.3466L51.6643 57.8589L77.5336 50.0937L87.754 24.7051L92.9128 27.89Z" fill="black"/>
<path d="M87.7539 24.7051L103.133 46.9084L129.002 54.6736L112.638 76.1617L113.247 103.164L87.7539 94.2409L62.2609 103.164L62.8697 76.1617L46.5055 54.6736L72.3747 46.9084L87.7539 24.7051Z" fill="#FFC727"/>
<g opacity="0.2">
<path d="M62.5928 88.4714L62.87 76.163L59.324 71.5046L95.27 35.5586L103.132 46.9094L103.917 47.147L62.5928 88.4714Z" fill="white"/>
<path d="M125.935 53.7515L84.2036 95.4827L72.2336 99.6731L119.952 51.9551L125.935 53.7515Z" fill="white"/>
<path d="M59.9828 50.627L50.5832 60.0266L47.2208 55.6129L48.8696 53.9641L59.9828 50.627Z" fill="white"/>
<path d="M94.0208 33.7544L58.0028 69.7724L57.6716 69.3368L93.7076 33.3008L94.0208 33.7544Z" fill="white"/>
<path d="M112.978 91.1847L104.173 99.9903L103.608 99.7923L112.96 90.4395L112.978 91.1847Z" fill="white"/>
</g>
<path d="M43.296 47.7878C42.4018 53.735 40.1806 66.0286 42.6693 69.7262C45.9348 74.5782 56.8504 77.8805 59.7102 78.8622C60.9562 79.2899 64.2887 71.1744 63.6015 69.9447C62.9142 68.7149 51.5861 64.0756 50.8182 63.3545C50.0503 62.6334 49.0622 52.8922 48.0653 47.885C46.8082 41.5691 44.0527 42.7535 43.296 47.7878Z" fill="#EB9481"/>
<path d="M67.0003 72.8426C66.5549 72.3397 66.8159 72.1025 67.991 72.3159C69.1804 72.5294 73.6358 74.3723 74.1466 72.7587C74.6625 71.1405 68.3143 68.636 66.3303 68.4305C64.3463 68.2199 61.0649 68.5871 61.0649 68.5871C62.2018 69.3229 64.7888 71.3706 67.0003 72.8426Z" fill="#EB9481"/>
<path d="M56.5969 77.5015C59.8747 79.4567 63.8358 82.0908 68.1418 82.1164C68.9863 82.1214 69.4748 81.701 69.4748 81.701C71.4044 81.7467 72.0056 80.8492 72.0056 80.8492C73.8161 80.3412 74.3046 79.339 74.3046 79.339C74.3046 79.339 76.5708 79.3678 76.8156 78.0012C77.095 76.4694 73.8575 76.7283 71.9902 75.7822C67.7116 73.6143 62.2363 69.336 61.0645 68.588L56.5969 77.5015Z" fill="#EB9481"/>
<path d="M65.9102 76.6601C67.1821 77.2728 68.4155 77.9082 69.7637 78.3459C71.2429 78.8258 72.747 79.0397 74.2727 79.2956C74.3202 79.3035 74.3141 79.3705 74.2658 79.3701C71.4305 79.3442 68.2394 78.2819 65.8814 76.7177C65.8242 76.6795 65.8462 76.6291 65.9102 76.6601Z" fill="#263238"/>
<path d="M64.2261 79.0523C65.4969 79.5801 67.7357 80.4934 72.0093 80.8023C72.0233 80.8033 72.0258 80.8275 72.0104 80.8282C69.2092 80.9967 66.6723 80.3915 64.2009 79.1128C64.1246 79.0732 64.1418 79.017 64.2261 79.0523Z" fill="#263238"/>
<path d="M63.3455 80.3538C65.5401 81.1689 67.0273 81.405 69.4666 81.688C69.4803 81.6898 69.4814 81.7143 69.4659 81.7139C66.6597 81.6833 65.6452 81.3543 63.3067 80.4255C63.2264 80.3934 63.2599 80.3218 63.3455 80.3538Z" fill="#263238"/>
<path d="M49.7109 54.7287L40.9906 57.6292C40.9906 57.6292 42.6153 47.6536 43.921 44.855C45.3905 41.705 46.6797 43.1454 47.8356 46.2406C48.9912 49.3356 49.7109 54.7287 49.7109 54.7287Z" fill="#455A64"/>
<path d="M47.5833 53.1933C47.4681 53.1861 47.3673 53.1609 47.2773 53.1033C47.0973 52.9989 46.9893 52.8045 46.9929 52.5993C46.9893 52.3257 46.8093 52.0701 46.5645 51.9765C46.4457 51.9225 46.3017 51.9225 46.1901 51.9369C46.0713 51.9549 45.9561 51.9621 45.8373 51.9837C45.9561 52.0053 46.0713 52.0161 46.1901 52.0305C46.3125 52.0377 46.4097 52.0557 46.5033 52.1097C46.6833 52.2069 46.8057 52.4013 46.8057 52.6029C46.7985 52.8657 46.9677 53.1357 47.2089 53.2365C47.3277 53.2905 47.4681 53.3013 47.5833 53.2833C47.7021 53.2689 47.8209 53.2581 47.9361 53.2365C47.8209 53.2185 47.7021 53.2077 47.5833 53.1933ZM47.4357 45.2481C47.1729 45.2517 46.9173 45.4173 46.8129 45.6549C46.7589 45.7737 46.7517 45.9141 46.7661 46.0293C46.7805 46.1481 46.7913 46.2633 46.8129 46.3821C46.8345 46.2633 46.8417 46.1481 46.8597 46.0293C46.8669 45.9105 46.8921 45.8133 46.9461 45.7233C47.0541 45.5433 47.2449 45.4317 47.4537 45.4389C47.4753 45.4389 47.4933 45.4389 47.5149 45.4317C47.4861 45.3705 47.4609 45.3093 47.4357 45.2481Z" fill="white"/>
<path d="M48.8796 53.2544C47.719 53.4732 44.3317 54.6206 43.7698 54.8045C43.4735 54.9017 42.3089 55.3406 42.0126 55.4349C41.9748 55.4471 42.0004 55.5033 42.0382 55.4914C42.6034 55.3114 43.1887 55.1894 43.7568 55.0133C44.3379 54.833 47.8129 53.7951 48.8933 53.2986C48.9167 53.2875 48.9059 53.2493 48.8796 53.2544Z" fill="#263238"/>
<path d="M42.7693 48.7528C42.7765 48.7103 42.7161 48.7035 42.7053 48.7427C42.472 49.5696 42.2599 50.4027 42.0612 51.2386C42.0569 50.7882 42.1077 50.3451 42.1858 49.8962C42.1894 49.8764 42.1599 49.872 42.1552 49.8911C42.0335 50.3926 42.0025 50.9232 42.0137 51.4413C41.8765 52.0245 41.7444 52.6088 41.6195 53.1941C41.3016 54.6838 40.965 56.1742 40.7332 57.6804C40.7209 57.7607 40.8012 57.8212 40.8754 57.7935C41.1749 57.6826 41.4701 57.5649 41.7617 57.4342C41.7919 57.4205 41.7826 57.3676 41.7466 57.3748C41.4867 57.4263 41.2314 57.4914 40.9758 57.5577C41.3214 56.127 41.5936 54.678 41.8981 53.2384C42.2128 51.7484 42.5148 50.2544 42.7693 48.7528Z" fill="#263238"/>
<path d="M49.1989 50.8174C49.1662 50.3335 49.1323 49.8497 49.083 49.3666C49.0819 49.3565 49.0672 49.3586 49.0675 49.3684C49.0776 49.7251 49.0963 50.0815 49.1176 50.4376C48.9635 49.742 48.7968 49.0498 48.5995 48.369C48.5966 48.3589 48.5804 48.3632 48.5819 48.3737C48.727 49.4414 48.9307 50.5013 49.101 51.5658C49.268 52.6102 49.4527 53.6502 49.6385 54.6913C49.4502 54.7882 49.2605 54.8807 49.069 54.9707C49.0322 54.988 49.0538 55.0387 49.092 55.0283C49.3152 54.9653 49.538 54.9034 49.7638 54.8504C49.817 54.8378 49.8613 54.7975 49.8538 54.7374C49.6878 53.4292 49.4722 52.1159 49.1989 50.8174Z" fill="#263238"/>
<path d="M76.9642 162.909C77.8437 163.228 103.905 163.742 104.886 163.143C105.001 163.082 105.425 154.46 105.425 154.46C105.394 154.338 105.829 153.507 106.494 152.352C108.352 149.11 111.984 143.302 111.984 143.302L96.5173 138.625L90.1629 151.353L88.5436 154.6C88.5436 154.6 84.9912 155.989 81.8923 157.374C81.888 157.378 81.8836 157.378 81.8836 157.382C79.9746 158.232 78.3142 159.01 77.9265 159.301C76.9304 160.066 76.0844 162.598 76.9642 162.909Z" fill="#FFC4C0"/>
<path d="M76.9642 162.91C77.8437 163.229 103.905 163.742 104.886 163.144C105.001 163.083 105.425 154.461 105.425 154.461C105.394 154.339 105.829 153.507 106.494 152.353L90.1633 151.353L88.544 154.601C88.544 154.601 84.9915 155.99 81.8926 157.375C81.8883 157.379 81.884 157.379 81.884 157.383C79.9749 158.232 78.3146 159.011 77.9269 159.301C76.9304 160.067 76.0844 162.599 76.9642 162.91Z" fill="white"/>
<path d="M76.8548 163.006C77.7613 163.327 103.856 163.774 104.862 163.162C105.245 162.932 105.706 158.915 105.424 154.46L88.6005 154.191C88.6005 154.191 78.8575 158.498 77.8261 159.287C76.8001 160.077 75.9487 162.686 76.8548 163.006Z" fill="#FFC727"/>
<path opacity="0.1" d="M104.861 163.161C104.494 163.384 100.786 163.467 96.1799 163.467L105.013 154.454L105.016 154.451L105.425 154.461C105.705 158.916 105.245 162.933 104.861 163.161Z" fill="black"/>
<path d="M77.2468 161.969C81.623 161.937 99.2767 162.219 103.605 162.52C103.64 162.522 103.64 162.546 103.605 162.547C99.2677 162.674 81.6169 162.249 77.2454 162.041C77.1536 162.037 77.1547 161.97 77.2468 161.969Z" fill="#263238"/>
<path d="M79.5206 158.378C80.5585 158.353 81.5639 158.863 82.1191 159.491C82.6522 160.094 83.1029 160.937 83.0565 161.843C83.0551 161.869 83.0072 161.869 83.0036 161.842C82.7833 160.126 81.2518 158.595 79.5191 158.433C79.4846 158.429 79.4849 158.379 79.5206 158.378Z" fill="#263238"/>
<path d="M87.2206 154.607C88.972 154.613 90.9912 155.266 92.0547 156.717C92.0957 156.773 92.0154 156.83 91.9639 156.803C90.3951 155.96 88.9011 155.326 87.1871 154.823C87.0658 154.787 87.0953 154.607 87.2206 154.607Z" fill="#263238"/>
<path d="M85.8602 155.111C87.6116 155.117 89.6304 155.77 90.6942 157.221C90.7353 157.277 90.655 157.334 90.6035 157.307C89.0346 156.463 87.5406 155.83 85.8263 155.327C85.7054 155.291 85.7345 155.111 85.8602 155.111Z" fill="#263238"/>
<path d="M84.4994 155.615C86.2508 155.621 88.2701 156.273 89.3335 157.724C89.3749 157.78 89.2943 157.838 89.2428 157.811C87.6743 156.968 86.1799 156.334 84.4656 155.83C84.345 155.795 84.3741 155.615 84.4994 155.615Z" fill="#263238"/>
<path d="M83.139 156.119C84.8904 156.125 86.9096 156.777 87.973 158.228C88.0144 158.284 87.9338 158.342 87.8823 158.314C86.3134 157.471 84.8194 156.838 83.1051 156.334C82.9842 156.299 83.0133 156.119 83.139 156.119Z" fill="#263238"/>
<path d="M102.562 158.346C104.526 158.385 104.469 161.438 102.501 161.399C100.537 161.359 100.595 158.306 102.562 158.346Z" fill="#263238"/>
<path d="M85.5045 152.471C86.4282 153.706 87.8546 154.499 89.0865 155.382C89.2143 155.474 89.364 155.371 89.4036 155.246C89.4324 155.249 89.4609 155.234 89.4591 155.197C89.3871 153.686 88.8086 151.944 87.9449 150.693C87.4114 149.92 86.3073 149.183 85.4084 149.903C84.5588 150.583 84.9648 151.75 85.5045 152.471ZM85.4483 151.019C85.655 149.118 87.3488 150.61 87.7192 151.195C87.9572 151.571 88.1541 151.983 88.3384 152.387C88.7243 153.234 88.9828 154.12 89.2805 154.998C88.702 154.527 88.0886 154.11 87.4931 153.66C86.7836 153.125 85.3342 152.068 85.4483 151.019Z" fill="#263238"/>
<path d="M95.6961 154.187C95.5784 153.042 94.2784 152.772 93.3536 152.933C91.8563 153.195 90.2083 154.006 89.0811 155.014C89.0534 155.039 89.0631 155.07 89.0851 155.088C89.0239 155.204 89.0559 155.383 89.2107 155.41C90.7047 155.668 92.2696 156.129 93.7982 155.92C94.6903 155.799 95.807 155.271 95.6961 154.187ZM91.5554 155.338C90.8174 155.228 90.0898 155.084 89.3482 155.002C90.1827 154.598 90.9956 154.161 91.87 153.842C92.2873 153.689 92.7189 153.541 93.1538 153.447C93.8306 153.301 96.0824 153.461 94.8721 154.942C94.205 155.759 92.4349 155.468 91.5554 155.338Z" fill="#263238"/>
<path d="M107.677 152.293L90.3174 149.663C90.3174 149.663 98.6622 133.032 103.827 124.006C106.7 118.988 114.556 118.743 118.378 124.755C123.483 132.787 127.444 140.313 129.714 144.485L133.652 144.822L132.802 151.256L119.716 154.187C114.703 154.787 111.184 145.862 111.103 146.013C110.468 147.185 107.677 152.293 107.677 152.293Z" fill="#37474F"/>
<path d="M111.011 146.052C111.505 145.041 111.889 143.968 112.328 142.932C112.753 141.929 113.18 140.928 113.601 139.925C114.453 137.897 115.335 135.878 116.161 133.84C116.624 132.696 117.05 131.537 117.483 130.381C117.494 130.353 117.536 130.365 117.528 130.394C117.193 131.487 116.844 132.575 116.478 133.658C116.575 133.471 116.672 133.284 116.773 133.102C117.052 132.604 117.339 132.112 117.629 131.619C117.64 131.6 117.668 131.618 117.658 131.637C117.391 132.132 117.125 132.625 116.848 133.114C116.711 133.357 116.56 133.598 116.415 133.841C115.385 136.872 114.218 139.855 112.815 142.736C112.263 143.869 111.616 144.954 111.064 146.085C111.046 146.12 110.993 146.087 111.011 146.052Z" fill="#263238"/>
<path d="M107.289 149.207C108.126 147.915 110.119 144.006 110.833 142.655C112.277 139.921 113.599 137.132 114.848 134.305C115.554 132.707 116.214 131.096 116.868 129.477C116.872 129.466 116.89 129.471 116.886 129.482C115.903 132.399 114.732 135.256 113.46 138.058C112.187 140.864 108.081 148.422 107.342 149.239C107.315 149.269 107.267 149.24 107.289 149.207Z" fill="#263238"/>
<path d="M118.066 131.637C119.562 134.308 121.09 136.961 122.593 139.628C123.352 140.976 124.111 142.324 124.862 143.677C125.215 144.313 125.558 144.957 125.925 145.586C126.272 146.181 126.686 146.674 127.297 147.009C127.969 147.379 128.742 147.555 129.473 147.769C130.317 148.016 131.156 148.282 132.005 148.515C132.043 148.525 132.025 148.585 131.987 148.574C131.23 148.372 130.467 148.198 129.706 148.011C129.016 147.84 128.307 147.697 127.638 147.453C127.032 147.231 126.508 146.902 126.103 146.393C125.67 145.848 125.362 145.208 125.029 144.6C123.528 141.856 122.043 139.104 120.568 136.346C119.73 134.779 118.899 133.207 118.051 131.644C118.048 131.636 118.061 131.628 118.066 131.637Z" fill="#263238"/>
<path d="M108.072 149.856C107.032 149.667 105.966 149.577 104.918 149.442C103.866 149.307 102.814 149.171 101.763 149.033C99.6648 148.759 92.5242 147.622 91.9849 147.443C91.9507 147.432 91.9626 147.376 91.9968 147.375C92.5077 147.359 97.1841 147.982 98.2331 148.136C100.331 148.445 102.415 148.817 104.505 149.17C105.102 149.27 105.696 149.384 106.292 149.489C106.887 149.595 107.483 149.723 108.082 149.8C108.118 149.805 108.108 149.863 108.072 149.856Z" fill="#263238"/>
<path d="M96.4737 166.835C96.8056 165.96 113.424 145.879 114.514 145.525C114.64 145.478 121.447 150.783 121.447 150.783C121.72 151.182 135.196 148.941 135.196 148.941L134.629 165.056L110.327 163.481C110.327 163.481 106.957 165.27 103.884 166.713C103.878 166.713 103.876 166.716 103.873 166.714C101.981 167.608 100.308 168.358 99.8364 168.46C98.6056 168.718 96.136 167.705 96.4737 166.835Z" fill="#FFC4C0"/>
<path d="M99.8357 168.461C100.31 168.361 101.981 167.61 103.872 166.714C103.875 166.718 103.88 166.715 103.883 166.715C106.955 165.272 110.325 163.481 110.325 163.481L115.734 163.833L124.804 150.525C122.929 150.774 121.534 150.911 121.446 150.783C121.446 150.783 114.641 145.479 114.515 145.527C113.424 145.88 96.807 165.961 96.474 166.835C96.1371 167.706 98.6052 168.722 99.8357 168.461Z" fill="white"/>
<path d="M96.329 166.857C96.6775 165.961 113.366 145.895 114.486 145.531C114.91 145.391 118.254 147.664 121.447 150.784L110.672 163.708C110.672 163.708 101.051 168.281 99.7799 168.547C98.5124 168.809 95.9805 167.753 96.329 166.857Z" fill="#FFC727"/>
<path d="M97.3708 167.236C100.251 163.941 111.556 150.38 114.153 146.904C114.174 146.875 114.156 146.86 114.132 146.886C111.206 150.09 100.011 163.742 97.3153 167.191C97.2588 167.263 97.31 167.306 97.3708 167.236Z" fill="#263238"/>
<path d="M101.575 167.857C102.271 167.086 102.541 165.991 102.427 165.161C102.318 164.364 101.974 163.472 101.257 162.916C101.236 162.9 101.205 162.936 101.223 162.956C102.38 164.243 102.54 166.402 101.533 167.821C101.513 167.851 101.552 167.883 101.575 167.857Z" fill="#263238"/>
<path d="M109.457 164.483C110.596 163.152 111.419 161.196 111.013 159.444C110.998 159.376 110.901 159.399 110.889 159.456C110.504 161.195 110.009 162.741 109.272 164.368C109.221 164.483 109.376 164.578 109.457 164.483Z" fill="#263238"/>
<path d="M108.188 165.184C109.326 163.853 110.149 161.897 109.744 160.145C109.728 160.077 109.632 160.1 109.619 160.157C109.234 161.896 108.74 163.442 108.002 165.07C107.951 165.184 108.106 165.279 108.188 165.184Z" fill="#263238"/>
<path d="M106.918 165.887C108.057 164.556 108.88 162.6 108.474 160.848C108.459 160.78 108.362 160.803 108.35 160.86C107.965 162.599 107.47 164.145 106.733 165.773C106.681 165.887 106.837 165.982 106.918 165.887Z" fill="#263238"/>
<path d="M105.649 166.59C106.787 165.259 107.61 163.304 107.205 161.551C107.189 161.483 107.093 161.506 107.08 161.564C106.695 163.302 106.201 164.848 105.464 166.476C105.412 166.59 105.567 166.686 105.649 166.59Z" fill="#263238"/>
<path d="M116.635 150.418C117.887 148.904 115.536 146.956 114.282 148.472C113.03 149.986 115.381 151.935 116.635 150.418Z" fill="#263238"/>
<path d="M111.84 168.925C112.972 168.714 113.134 167.396 112.896 166.487C112.512 165.016 111.569 163.441 110.471 162.401C110.444 162.375 110.414 162.387 110.397 162.411C110.277 162.359 110.101 162.406 110.087 162.563C109.953 164.072 109.623 165.67 109.956 167.176C110.15 168.055 110.769 169.125 111.84 168.925ZM110.352 164.893C110.4 164.149 110.485 163.411 110.505 162.666C110.976 163.464 111.479 164.238 111.869 165.084C112.055 165.487 112.239 165.905 112.368 166.331C112.57 166.993 112.596 169.251 111.02 168.166C110.15 167.568 110.295 165.78 110.352 164.893Z" fill="#263238"/>
<path d="M112.754 158.64C111.599 159.663 110.927 161.15 110.148 162.45C110.067 162.585 110.181 162.726 110.309 162.755C110.309 162.784 110.326 162.811 110.363 162.806C111.863 162.61 113.552 161.89 114.728 160.926C115.453 160.331 116.097 159.17 115.306 158.333C114.557 157.542 113.428 158.043 112.754 158.64ZM114.196 158.465C116.109 158.514 114.76 160.325 114.208 160.742C113.853 161.011 113.459 161.241 113.071 161.458C112.259 161.912 111.396 162.243 110.546 162.612C110.968 161.996 111.334 161.35 111.733 160.72C112.208 159.969 113.142 158.437 114.196 158.465Z" fill="#263238"/>
<path d="M130.963 143.93C130.963 143.93 148.205 142.074 155.026 143.911C164.538 146.474 165.629 157.902 158.303 162.252C149.021 167.763 116.819 164.691 116.819 164.691L125.808 149.54C125.808 149.54 139.298 147.026 151.389 148.001L126.992 151.02L130.963 143.93Z" fill="#37474F"/>
<path d="M125.184 150.56C125.196 150.54 125.2 150.5 125.206 150.478C125.211 150.456 125.218 150.433 125.224 150.411C125.238 150.359 125.253 150.307 125.268 150.256C125.301 150.148 125.341 150.047 125.383 149.943C125.425 149.841 125.47 149.74 125.518 149.64C125.568 149.537 125.632 149.455 125.693 149.361C125.7 149.352 125.709 149.351 125.717 149.344C125.722 149.34 125.727 149.337 125.733 149.333C125.741 149.33 125.747 149.325 125.755 149.324C125.763 149.321 125.769 149.317 125.777 149.315C127.259 149.078 137.307 147.94 138.8 147.818C140.304 147.696 141.811 147.607 143.318 147.534C146.322 147.387 149.339 147.381 152.34 147.569C152.621 147.586 152.902 147.611 153.182 147.634C153.243 147.614 153.307 147.605 153.37 147.592C153.515 147.56 153.66 147.527 153.807 147.502C154.081 147.457 154.356 147.425 154.631 147.39C155.203 147.319 155.776 147.278 156.346 147.186C156.381 147.181 156.392 147.238 156.357 147.245C155.783 147.359 155.216 147.516 154.641 147.628C154.475 147.66 154.309 147.692 154.144 147.721C155.242 147.832 156.338 147.974 157.432 148.131C157.467 148.136 157.465 148.195 157.43 148.191C155.938 148.029 154.432 147.952 152.932 147.915C151.444 147.877 149.955 147.849 148.465 147.878C145.452 147.937 142.437 148.103 139.429 148.318C137.741 148.438 127.494 149.631 125.804 149.635C125.796 149.635 125.79 149.631 125.783 149.63C125.768 149.672 125.752 149.714 125.731 149.755C125.68 149.854 125.629 149.952 125.575 150.048C125.523 150.141 125.472 150.233 125.413 150.322C125.383 150.365 125.354 150.409 125.324 150.453C125.309 150.474 125.294 150.496 125.279 150.518C125.266 150.536 125.239 150.564 125.232 150.586C125.219 150.628 125.162 150.598 125.184 150.56Z" fill="#263238"/>
<path d="M121.437 163.747C121.968 162.876 122.429 161.941 122.92 161.04C123.412 160.137 123.904 159.233 124.398 158.33C125.382 156.53 128.899 150.482 129.238 150.062C129.26 150.036 129.3 150.069 129.288 150.101C129.115 150.573 126.91 154.583 126.403 155.476C125.391 157.263 124.333 159.012 123.288 160.774C122.99 161.277 122.682 161.773 122.38 162.274C122.078 162.773 121.758 163.264 121.478 163.779C121.462 163.81 121.419 163.778 121.437 163.747Z" fill="#263238"/>
<path d="M129.785 151.723C130.682 151.527 131.596 151.414 132.499 151.267C133.405 151.119 134.311 150.972 135.217 150.828C137.03 150.539 138.844 150.265 140.66 150.009C144.283 149.5 147.916 149.103 151.56 148.878C153.618 148.751 155.677 148.697 157.736 148.621C157.779 148.62 157.775 148.696 157.731 148.696C154.068 148.718 150.396 149.105 146.752 149.52C143.144 149.931 139.543 150.398 135.944 150.906C134.928 151.049 133.913 151.195 132.897 151.344C131.866 151.494 130.832 151.69 129.797 151.789C129.759 151.793 129.745 151.732 129.785 151.723Z" fill="#263238"/>
<path d="M137.755 119.52C138.412 121.197 139.349 122.723 139.873 124.462C140.351 126.055 140.567 127.756 140.313 129.413C139.38 135.498 131.456 139.148 125.891 137.259C123.229 136.354 120.914 134.195 120.207 131.425C119.342 128.03 121.154 124.768 122.253 121.67C122.884 119.894 123.142 118.14 123.146 116.265C123.148 114.655 123.049 113.016 123.375 111.426C123.608 110.293 124.382 106.995 128.56 105.679C131.559 104.733 134.595 106.371 135.993 109.221C137.618 112.531 136.458 116.193 137.755 119.52Z" fill="#263238"/>
<path d="M123.467 120.015C122.171 122.791 120.468 125.626 119.97 128.688C119.557 131.229 120.242 133.976 122.451 135.486C122.47 135.499 122.492 135.472 122.474 135.458C120.152 133.659 119.864 130.55 120.515 127.875C121.183 125.136 122.787 122.752 123.598 120.071C123.624 119.985 123.507 119.93 123.467 120.015Z" fill="#263238"/>
<path d="M122.881 119.855C121.899 123.496 118.904 126.363 118.711 130.237C118.709 130.283 118.78 130.294 118.783 130.247C119.035 126.379 122.368 123.634 122.953 119.866C122.96 119.819 122.892 119.811 122.881 119.855Z" fill="#263238"/>
<path d="M137.965 119.459C137.32 118.079 136.966 116.694 136.827 115.18C136.82 115.103 136.694 115.096 136.688 115.177C136.338 120.521 142.459 124.528 140.83 130.054C140.819 130.093 140.876 130.12 140.89 130.08C141.672 127.8 141.064 125.519 140.04 123.416C139.388 122.077 138.596 120.81 137.965 119.459Z" fill="#263238"/>
<path d="M136.726 114.385C136.713 114.284 136.566 114.313 136.572 114.412C136.698 116.397 137.382 118.357 138.451 120.03C138.983 120.862 139.635 121.607 140.15 122.451C140.715 123.375 141.149 124.367 141.624 125.337C141.636 125.362 141.67 125.345 141.662 125.32C141.045 123.479 140.08 122.015 138.975 120.448C137.687 118.622 137.008 116.589 136.726 114.385Z" fill="#263238"/>
<path d="M124.894 124.234C116.747 129.713 110.147 134.947 109.439 138.601C108.459 143.66 111.524 145.224 112.927 145.306C116.748 145.528 125.476 132.612 128.178 126.814C130.801 121.184 126.688 123.028 124.894 124.234Z" fill="#FFC727"/>
<path opacity="0.1" d="M128.178 126.815C125.475 132.611 116.748 145.528 112.929 145.305C111.953 145.251 110.182 144.48 109.512 142.324L128.923 123.445C129.168 123.982 129.017 125.019 128.178 126.815Z" fill="black"/>
<path d="M143.708 143.911C143.708 143.911 133.987 145.186 129.276 145.136C125.05 145.091 120.902 143.037 120.902 143.037L122.819 135.988C122.819 135.988 120.907 133.549 122.39 130.906C123.444 129.026 126.748 125.005 128.504 123.12C132.466 118.869 135.789 121.28 136.765 122.632C140.49 127.795 143.708 143.911 143.708 143.911Z" fill="#FFC727"/>
<path d="M128.732 135.432C127.84 135.418 126.94 135.437 126.05 135.573C125.608 135.64 125.17 135.731 124.731 135.832C124.512 135.882 124.294 135.924 124.074 135.964C123.848 136.006 123.607 136.041 123.381 136.019C123.36 136.018 123.356 136.052 123.376 136.055C123.595 136.091 123.804 136.125 124.027 136.128C124.239 136.13 124.453 136.107 124.664 136.077C125.113 136.014 125.561 135.927 126.01 135.858C126.916 135.719 127.822 135.58 128.732 135.515C128.774 135.512 128.774 135.432 128.732 135.432Z" fill="#263238"/>
<path d="M130.79 136.607C130.079 136.427 129.348 136.284 128.621 136.197C128.255 136.154 127.889 136.135 127.52 136.127C127.344 136.123 127.167 136.122 126.991 136.124C126.797 136.127 126.602 136.158 126.408 136.157C126.388 136.157 126.383 136.193 126.404 136.193C126.586 136.201 126.768 136.242 126.949 136.261C127.131 136.28 127.314 136.298 127.497 136.317C127.862 136.355 128.227 136.398 128.592 136.432C129.325 136.501 130.053 136.578 130.782 136.675C130.821 136.68 130.827 136.616 130.79 136.607Z" fill="#263238"/>
<path d="M137.48 123.941C144.083 129.67 148.798 137.667 148.595 142.881C148.393 148.03 146.625 147.443 146.118 147.385C143.019 147.03 136.395 132.352 134.45 126.405C132.519 120.502 135.847 122.525 137.48 123.941Z" fill="#FFC727"/>
<path d="M142.181 143.164C141.852 142.498 141.513 141.838 141.195 141.168L140.219 139.169C139.576 137.833 138.921 136.503 138.299 135.157C137.651 133.824 137.034 132.476 136.42 131.128C136.111 130.454 135.809 129.777 135.519 129.096C135.216 128.419 134.943 127.73 134.664 127.041C135.069 128.472 135.605 129.862 136.166 131.238C136.729 132.613 137.35 133.963 137.974 135.311C138.625 136.647 139.276 137.982 139.973 139.294C140.671 140.604 141.388 141.907 142.181 143.164Z" fill="#263238"/>
<path d="M135.307 128.802C135.192 128.553 135.054 128.332 134.916 128.109C134.843 128 134.776 127.888 134.698 127.782C134.622 127.674 134.551 127.563 134.462 127.457C134.504 127.729 134.623 127.978 134.764 128.206C134.912 128.43 135.083 128.641 135.307 128.802Z" fill="#263238"/>
<path d="M129.318 126.139C129.318 126.139 133.763 122.59 136.088 122.675L138.057 124.43C138.057 124.43 138.705 124.644 138.906 124.234C139.404 123.22 139.508 120.765 137.399 119.166C135.468 117.702 131.497 117.993 128.853 118.683C126.314 119.347 124.913 120.838 125.688 122.494C126.463 124.151 129.318 126.139 129.318 126.139Z" fill="#FFC727"/>
<path opacity="0.1" d="M129.065 125.362C129.065 125.362 127.008 123.231 126.71 121.997C126.412 120.763 128.881 119.592 130.475 119.134C132.943 118.425 134.622 118.587 136.001 119.906C137.38 121.225 129.065 125.362 129.065 125.362Z" fill="black"/>
<path d="M132.652 121.702C132.611 122.132 130.761 124.315 128.84 124.487C128.214 124.542 127.991 121.939 127.991 121.939L127.9 121.696L126.633 118.286L130.402 115.071L130.952 114.639C130.952 114.639 131.237 115.594 131.58 116.788C131.596 116.843 131.612 116.898 131.629 116.958C131.65 117.025 131.671 117.088 131.688 117.151C131.741 117.329 131.795 117.51 131.845 117.693C131.884 117.831 131.922 117.965 131.957 118.112C131.996 118.258 132.031 118.401 132.07 118.548C132.424 119.999 132.666 121.519 132.652 121.702Z" fill="#FFC4C0"/>
<path d="M131.58 116.788C130.954 119.725 128.874 121.171 127.9 121.696L126.633 118.286L130.403 115.071L130.952 114.639C130.952 114.639 131.237 115.594 131.58 116.788Z" fill="#263238"/>
<path d="M122.749 110.95C120.264 116.831 123.505 118.983 124.774 119.518C125.926 120.003 129.908 121.509 132.988 115.917C136.067 110.325 134.119 107.31 131.544 106.061C128.969 104.812 125.234 105.07 122.749 110.95Z" fill="#FFC4C0"/>
<path d="M124.184 110.593C124.329 110.634 124.47 110.647 124.617 110.673C124.784 110.702 124.914 110.742 125.075 110.67C125.162 110.632 125.21 110.501 125.18 110.414C125.111 110.21 124.916 110.124 124.717 110.081C124.5 110.034 124.322 110.054 124.125 110.154C123.935 110.251 123.993 110.539 124.184 110.593Z" fill="#263238"/>
<path d="M128.335 112C128.203 111.927 128.094 111.837 127.97 111.752C127.832 111.655 127.711 111.592 127.647 111.427C127.613 111.339 127.671 111.213 127.753 111.171C127.945 111.075 128.145 111.151 128.316 111.261C128.503 111.38 128.616 111.519 128.685 111.729C128.752 111.933 128.509 112.097 128.335 112Z" fill="#263238"/>
<path d="M126.997 112.778C127.007 112.764 127.02 112.811 127.012 112.827C126.825 113.219 126.676 113.7 126.978 113.99C126.988 113.999 126.978 114.019 126.965 114.011C126.553 113.756 126.757 113.12 126.997 112.778Z" fill="#263238"/>
<path d="M127.535 112.518C128.197 112.75 127.683 114.056 127.07 113.841C126.467 113.629 126.981 112.323 127.535 112.518Z" fill="#263238"/>
<path d="M127.765 112.689C127.849 112.807 127.91 112.982 128.042 113.05C128.195 113.128 128.369 113.039 128.525 112.948C128.541 112.939 128.548 112.955 128.541 112.972C128.446 113.224 128.249 113.443 127.966 113.374C127.708 113.312 127.62 113.021 127.656 112.745C127.663 112.694 127.73 112.641 127.765 112.689Z" fill="#263238"/>
<path d="M124.68 111.771C124.683 111.755 124.64 111.778 124.635 111.795C124.491 112.206 124.258 112.652 123.84 112.645C123.827 112.645 123.82 112.666 123.834 112.669C124.306 112.779 124.61 112.183 124.68 111.771Z" fill="#263238"/>
<path d="M124.48 111.209C123.847 110.908 123.292 112.198 123.879 112.476C124.456 112.75 125.011 111.461 124.48 111.209Z" fill="#263238"/>
<path d="M124.175 111.178C124.044 111.203 123.889 111.284 123.764 111.239C123.619 111.188 123.575 111.004 123.542 110.831C123.539 110.813 123.524 110.82 123.517 110.836C123.404 111.08 123.375 111.371 123.591 111.521C123.788 111.657 124.038 111.514 124.202 111.293C124.233 111.253 124.228 111.168 124.175 111.178Z" fill="#263238"/>
<path d="M125.712 116.032C125.586 116.105 125.45 116.215 125.294 116.189C125.144 116.164 124.99 116.054 124.869 115.968C124.857 115.959 124.839 115.97 124.845 115.985C124.913 116.174 125.117 116.334 125.321 116.35C125.52 116.365 125.657 116.224 125.747 116.062C125.76 116.039 125.73 116.022 125.712 116.032Z" fill="#263238"/>
<path d="M124.454 113.985C124.454 113.985 124.172 114.577 124.08 114.869C124.071 114.896 124.138 114.932 124.235 114.969C124.239 114.972 124.242 114.975 124.247 114.973C124.737 115.217 125.312 115.203 125.759 114.882C125.788 114.86 125.76 114.818 125.728 114.828C125.254 114.989 124.805 114.927 124.346 114.789C124.351 114.702 124.862 113.792 124.817 113.774C124.661 113.71 124.313 113.718 124.107 113.714C124.658 112.464 125.404 111.313 125.934 110.061C125.953 110.016 125.891 109.981 125.864 110.017C124.996 111.168 124.33 112.593 123.728 113.869C123.651 114.027 124.322 113.998 124.454 113.985Z" fill="#263238"/>
<path d="M124.299 114.87C124.299 114.87 124.433 115.353 124.761 115.634C124.882 115.738 125.026 115.816 125.2 115.835C125.558 115.874 125.681 115.579 125.719 115.3C125.752 115.072 125.724 114.854 125.724 114.854C125.724 114.854 125.078 115.116 124.299 114.87Z" fill="#263238"/>
<path d="M124.761 115.635C124.882 115.739 125.026 115.817 125.2 115.835C125.559 115.875 125.681 115.579 125.719 115.301C125.357 115.203 124.921 115.307 124.761 115.635Z" fill="#FF9ABB"/>
<path d="M132.487 115.695C131.356 115.544 131.735 112.962 131.735 112.962C131.735 112.962 127.278 110.944 127.883 107.041C127.883 107.041 126.162 109.101 123.43 109.553C123.43 109.553 125.292 105.019 128.806 105.079C128.806 105.079 132.779 104.751 134.417 108.613C136.096 112.572 133.246 115.795 132.487 115.695Z" fill="#263238"/>
<path d="M127.94 106.756C127.725 107.319 127.653 107.936 127.692 108.545C127.73 109.153 127.884 109.764 128.168 110.311C128.229 110.453 128.324 110.575 128.4 110.709L128.522 110.905C128.567 110.966 128.616 111.025 128.665 111.085C128.763 111.202 128.857 111.324 128.959 111.437C129.068 111.544 129.181 111.647 129.293 111.75C129.35 111.801 129.404 111.854 129.463 111.902L129.648 112.036L130.016 112.301C130.277 112.454 130.546 112.593 130.813 112.726C130.576 112.539 130.325 112.379 130.094 112.192L129.757 111.902L129.59 111.758C129.537 111.707 129.489 111.651 129.439 111.597C129.34 111.488 129.24 111.381 129.138 111.276C129.044 111.164 128.96 111.044 128.872 110.928L128.739 110.754L128.627 110.566C128.557 110.439 128.467 110.322 128.413 110.187C128.137 109.673 127.986 109.102 127.9 108.524C127.859 108.233 127.846 107.938 127.853 107.643C127.855 107.347 127.887 107.051 127.94 106.756Z" fill="#263238"/>
<path d="M131.761 115.253C131.761 115.253 133.7 113.787 134.407 114.538C135.114 115.29 133.228 117.715 132.096 117.764C130.964 117.812 130.898 116.766 130.898 116.766L131.761 115.253Z" fill="#FFC4C0"/>
<path d="M133.849 115.22C133.866 115.224 133.862 115.248 133.846 115.249C133.045 115.307 132.46 115.842 131.978 116.439C132.274 116.245 132.607 116.194 132.877 116.558C132.891 116.577 132.864 116.601 132.845 116.59C132.575 116.434 132.35 116.417 132.079 116.585C131.887 116.705 131.725 116.882 131.564 117.04C131.51 117.093 131.407 117.022 131.454 116.957C131.458 116.952 131.462 116.947 131.465 116.942C131.739 116.033 132.85 114.997 133.849 115.22Z" fill="#263238"/>
<path d="M129.064 125.361C129.064 125.361 132.801 120.45 136.395 119.977L136.088 122.675C136.088 122.675 133.095 122.722 129.318 126.14L129.064 125.361Z" fill="#FFC727"/>
<path d="M137.056 122.726C136.398 122.643 135.745 122.787 135.127 122.981C132.662 123.559 130.147 125.584 130.147 125.584L129.423 126.247L129.341 126.322L129.251 126.275C128.045 125.617 126.835 124.092 126.608 123.793C127.527 124.743 129.051 125.846 129.383 126.004L129.211 126.032L129.936 125.347C130.187 125.128 132.944 123.319 135.076 122.804C135.237 122.759 135.403 122.731 135.566 122.699C135.732 122.678 135.898 122.654 136.065 122.646C136.398 122.624 136.737 122.636 137.056 122.726Z" fill="#263238"/>
<path d="M138.057 124.43C137.687 124.184 137.349 123.902 137.019 123.612C136.692 123.317 136.374 123.014 136.088 122.674C136.458 122.919 136.796 123.201 137.126 123.491C137.453 123.787 137.771 124.09 138.057 124.43Z" fill="#263238"/>
<path d="M130.275 124.791C130.275 124.791 130.682 126.153 130.883 128.155C130.963 128.947 130.882 131.817 129.992 131.784C129.102 131.751 130.394 129.801 130.527 128.279C130.663 126.735 130.173 125.691 130.048 124.796L130.275 124.791Z" fill="#263238"/>
<path d="M127.794 124.754C127.794 124.754 127.309 125.958 126.958 127.762C126.82 128.476 126.652 131.092 127.465 131.137C128.277 131.182 127.266 129.3 127.272 127.905C127.278 126.489 127.811 125.58 128 124.777L127.794 124.754Z" fill="#263238"/>
<path d="M110.793 131.242C111.05 128.81 111.625 125.41 112.468 124.675C113.353 123.903 116.571 121.315 117.513 120.954C118.455 120.594 122.649 118.841 123.443 119.268C124.08 119.609 123.393 121.275 121.397 122.127C119.643 122.876 118.75 123.551 118.249 123.786C117.738 124.027 116.547 125.744 116.91 126.475C117.124 126.906 118.414 127.379 119.194 126.995C119.973 126.612 120.119 125.039 120.999 124.271C121.88 123.503 123.477 123.542 123.583 123.969C123.689 124.397 123.169 124.615 122.4 126.105C121.906 127.063 121.943 129.324 120.805 130.981C120.233 131.814 119.26 134.014 119.26 134.014L110.793 131.242Z" fill="#FFC4C0"/>
<path d="M121.822 123.576C122.099 123.503 122.401 123.409 122.601 123.192C122.686 123.101 122.75 122.988 122.77 122.864C122.781 122.798 122.78 122.727 122.77 122.661C122.76 122.6 122.74 122.508 122.686 122.471C122.67 122.46 122.693 122.439 122.702 122.455C122.721 122.491 122.754 122.517 122.778 122.549C122.798 122.577 122.813 122.608 122.826 122.639C122.853 122.702 122.865 122.767 122.866 122.835C122.868 122.984 122.813 123.126 122.722 123.243C122.505 123.519 122.16 123.601 121.825 123.599C121.811 123.599 121.809 123.579 121.822 123.576Z" fill="#263238"/>
<path d="M112.469 124.673C113.198 123.44 115.097 121.197 117.023 120.385C118.325 119.836 122.934 121.897 122.83 122.769C122.726 123.64 121.952 123.668 120.799 123.569C120.38 123.533 118.142 122.811 117.781 123.288C117.261 123.972 116.647 126.273 116.647 126.273L112.469 124.673Z" fill="#FFC4C0"/>
<path d="M122.707 122.434C122.116 121.524 120.868 121.069 119.629 120.718C119.61 120.712 119.6 120.742 119.619 120.747C119.935 120.837 121.962 121.691 122.694 122.449C122.702 122.458 122.713 122.443 122.707 122.434Z" fill="#263238"/>
<path d="M112.469 124.674C113.198 123.44 115.097 121.198 117.023 120.385C118.325 119.836 122.007 122.546 121.903 123.418C121.799 124.29 120.688 124.395 119.443 124.007C119.041 123.882 117.677 122.986 117.315 123.462C116.795 124.147 115.529 125.845 115.529 125.845L112.469 124.674Z" fill="#FFC4C0"/>
<path d="M116.256 124.795C116.373 124.601 116.414 124.532 116.535 124.339C116.655 124.147 116.779 123.957 116.913 123.775C117.029 123.617 117.14 123.443 117.306 123.333C117.464 123.226 117.659 123.197 117.846 123.208C118.274 123.233 118.668 123.492 119.037 123.688C119.449 123.906 120.3 124.255 120.94 124.166C121.116 124.142 121.289 124.106 121.442 124.012C121.542 123.951 121.676 123.874 121.738 123.76C122.001 123.279 121.635 122.75 121.267 122.38C120.581 121.691 119.673 121.204 118.794 120.808C118.578 120.711 118.36 120.619 118.141 120.527C117.893 120.423 117.635 120.323 117.356 120.33C116.909 120.341 116.193 120.819 115.971 120.963C115.954 120.974 115.94 120.947 115.957 120.935C116.225 120.755 116.886 120.177 117.608 120.19C117.871 120.194 118.122 120.322 118.365 120.417C118.619 120.517 118.871 120.626 119.119 120.74C119.603 120.962 120.075 121.211 120.518 121.507C120.936 121.786 121.384 122.113 121.675 122.531C121.927 122.892 122.016 123.416 121.795 123.812C121.609 124.146 121.192 124.238 121 124.269C120.809 124.3 120.625 124.303 120.432 124.283C120.232 124.262 119.498 124.075 119.187 123.962C118.791 123.82 118.431 123.568 118.025 123.46C117.831 123.408 117.621 123.412 117.444 123.517C117.28 123.614 117.147 123.788 117.022 123.928C116.739 124.246 116.552 124.453 116.323 124.814C116.268 124.901 116.207 124.876 116.256 124.795Z" fill="#263238"/>
<path d="M111.932 125.747C112.196 125.163 112.595 122.778 113.028 122.037C113.462 121.295 115.468 118.714 116.447 118.791C117.677 118.887 116.472 121.137 115.86 122.068C115.247 122.999 115.407 124.54 115.407 124.54L111.932 125.747Z" fill="#FFC4C0"/>
<path d="M116.705 120.531C116.486 120.827 116.295 121.153 116.106 121.468C115.928 121.767 115.72 122.065 115.588 122.388C115.455 122.712 115.403 123.057 115.382 123.405C115.372 123.576 115.372 123.746 115.376 123.917C115.381 124.104 115.404 124.292 115.406 124.478C115.406 124.498 115.437 124.5 115.437 124.48C115.44 124.142 115.489 123.794 115.536 123.46C115.585 123.112 115.678 122.763 115.81 122.438C116.075 121.787 116.476 121.201 116.747 120.552C116.759 120.526 116.72 120.51 116.705 120.531Z" fill="#263238"/>
<path d="M115.43 124.799C115.373 125.388 115.567 125.976 115.8 126.511C115.921 126.78 116.06 127.041 116.219 127.292C116.379 127.544 116.567 127.781 116.75 127.998C117.117 128.439 117.444 128.891 117.688 129.399C117.933 129.906 118.094 130.457 118.212 131.027C118.226 130.447 118.15 129.851 117.938 129.294C117.735 128.732 117.394 128.225 117.027 127.774C116.65 127.331 116.34 126.884 116.062 126.38C115.797 125.881 115.522 125.374 115.43 124.799Z" fill="#263238"/>
<path d="M113.329 145.081C115.703 144.656 117.091 140.595 119.514 133.456C119.939 132.203 113.373 124.896 112.573 126.063C111.566 127.534 109.03 135.588 108.821 137.762C108.409 142.047 110.557 145.578 113.329 145.081Z" fill="#FFC4C0"/>
<path d="M118.244 137.436L110.225 130.291C110.225 130.291 108.317 136.821 108.638 139.509C108.959 142.197 110.032 145.231 113.287 145.26C115.724 145.282 118.244 137.436 118.244 137.436Z" fill="#FFC727"/>
<path d="M115.979 142.72C116.24 142.313 116.47 141.891 116.693 141.466C116.92 141.042 117.122 140.606 117.321 140.168C117.514 139.728 117.699 139.284 117.857 138.829C118.016 138.375 118.166 137.914 118.244 137.436C118.059 137.881 117.863 138.316 117.664 138.751L117.074 140.059C116.882 140.497 116.687 140.934 116.506 141.378C116.323 141.821 116.14 142.264 115.979 142.72Z" fill="#263238"/>
<path d="M116.643 138.811C116.252 138.418 115.826 138.055 115.412 137.685C114.998 137.315 114.581 136.948 114.158 136.587C113.314 135.866 112.466 135.149 111.608 134.443C111.373 134.25 111.138 134.058 110.9 133.869C110.646 133.666 110.365 133.496 110.113 133.292C110.093 133.276 110.069 133.306 110.088 133.322C110.292 133.503 110.471 133.713 110.671 133.898C110.88 134.09 111.092 134.278 111.305 134.464C111.724 134.829 112.144 135.193 112.565 135.554C113.409 136.277 114.256 136.996 115.123 137.69C115.612 138.082 116.095 138.492 116.606 138.855C116.637 138.877 116.669 138.837 116.643 138.811Z" fill="#263238"/>
<path d="M126.85 124.928L130.096 134.982C130.225 135.275 130.09 135.529 129.795 135.548L124.52 135.893C124.225 135.913 123.881 135.69 123.753 135.398L120.507 125.344C120.379 125.051 120.513 124.797 120.808 124.778L126.082 124.433C126.377 124.413 126.721 124.635 126.85 124.928Z" fill="#37474F"/>
<path d="M126.224 124.964L129.469 135.018C129.598 135.311 129.463 135.564 129.168 135.583L123.893 135.929C123.599 135.948 123.255 135.726 123.126 135.433L119.88 125.38C119.751 125.086 119.886 124.833 120.18 124.814L125.455 124.468C125.751 124.449 126.095 124.671 126.224 124.964Z" fill="#455A64"/>
<path d="M124.808 125.526C124.829 125.773 125.047 125.956 125.295 125.934C125.542 125.912 125.724 125.694 125.703 125.447C125.681 125.2 125.463 125.017 125.216 125.039C124.969 125.061 124.786 125.279 124.808 125.526Z" fill="#263238"/>
<path d="M146.862 147.327C144.559 147.644 141.688 145.854 134.243 140.419C133.213 139.667 136.565 130.969 137.706 131.715C139.144 132.656 144.519 136.617 144.876 136.956C147.883 139.818 148.425 147.113 146.862 147.327Z" fill="#FFC4C0"/>
<path d="M140.365 134.348C140.365 134.348 138.245 131.372 136.647 130.154C134.507 128.522 131.988 127.995 130.92 127.838C128.688 127.509 123.066 128.258 122.999 129.914C122.939 131.414 128.647 130.359 128.647 130.359C128.647 130.359 122.65 130.475 122.909 132.294C123.168 134.114 129.724 132.512 129.724 132.512C129.724 132.512 123.565 132.769 124.129 134.602C124.555 135.988 130.575 134.872 130.575 134.872C130.575 134.872 125.282 135.129 125.659 136.574C126.075 138.17 131.697 137.488 131.697 137.488C133.273 140.997 135.532 141.986 137.174 142.531C137.572 142.662 140.365 134.348 140.365 134.348Z" fill="#FFC4C0"/>
<path d="M130.718 130.186C130.014 130.175 129.3 130.158 128.596 130.208C127.892 130.259 127.19 130.335 126.495 130.451C124.788 130.735 123.764 131.18 123.83 131.16C125.397 130.672 127.913 130.452 128.617 130.401C129.319 130.35 130.019 130.264 130.721 130.213C130.739 130.212 130.735 130.186 130.718 130.186Z" fill="#263238"/>
<path d="M130.948 132.725C130.047 132.748 129.152 132.739 128.252 132.802C127.356 132.866 126.512 133.004 125.623 133.129C125.555 133.139 125.583 133.172 125.652 133.165C126.545 133.076 127.378 133.063 128.272 132.984C129.163 132.906 130.058 132.792 130.951 132.746C130.964 132.745 130.962 132.724 130.948 132.725Z" fill="#263238"/>
<path d="M131.537 134.867C130.158 134.833 128.775 135.053 127.423 135.301C127.356 135.314 127.396 135.353 127.466 135.345C128.831 135.174 129.9 135.031 131.536 134.915C131.561 134.913 131.566 134.868 131.537 134.867Z" fill="#263238"/>
<path d="M140.365 133.164L137.431 143.854C137.431 143.854 145.302 148.489 147.041 147.263C148.78 146.038 147.642 139.864 145.674 137.51C144.854 136.529 140.365 133.164 140.365 133.164Z" fill="#FFC727"/>
<path d="M140.267 133.522L140.383 133.17L140.354 133.18C141.097 133.788 141.843 134.389 142.579 135.003C143.319 135.61 144.052 136.226 144.753 136.873C145.101 137.197 145.455 137.521 145.752 137.881C146.052 138.245 146.311 138.641 146.545 139.052C147.006 139.88 147.311 140.794 147.494 141.735C147.418 140.778 147.161 139.827 146.725 138.958C146.512 138.52 146.244 138.11 145.941 137.728C145.633 137.343 145.282 137.011 144.934 136.677C144.22 136.028 143.474 135.422 142.715 134.831C141.949 134.251 141.175 133.684 140.376 133.15L140.352 133.135L140.347 133.16L140.267 133.522Z" fill="#263238"/>
<path d="M142.09 135.818C141.91 136.343 141.774 136.886 141.626 137.42C141.477 137.955 141.334 138.492 141.197 139.03C140.925 140.107 140.658 141.185 140.405 142.267C140.336 142.563 140.268 142.859 140.204 143.156C140.135 143.474 140.106 143.801 140.036 144.118C140.03 144.142 140.067 144.151 140.074 144.127C140.145 143.864 140.254 143.61 140.332 143.348C140.412 143.077 140.486 142.803 140.558 142.529C140.7 141.992 140.84 141.455 140.977 140.917C141.251 139.84 141.52 138.762 141.759 137.678C141.893 137.065 142.047 136.451 142.146 135.831C142.151 135.794 142.102 135.783 142.09 135.818Z" fill="#263238"/>
<path d="M137.692 142.905C137.671 143.239 137.618 143.566 137.547 143.887L137.494 143.753C138.089 144.075 138.65 144.44 139.191 144.861C138.854 144.778 138.541 144.636 138.24 144.481C137.939 144.324 137.648 144.151 137.369 143.958L137.289 143.904L137.316 143.824C137.418 143.511 137.54 143.203 137.692 142.905Z" fill="#263238"/>
<path d="M135.353 98.4004V106.496H136.95V109.256L139.71 106.496H163.085V98.4004H135.353Z" fill="white"/>
<path d="M135.353 98.4011C135.375 101.131 135.447 103.829 135.46 106.497L135.353 106.39L136.95 106.38L137.066 106.379L137.067 106.497L137.084 109.257L136.855 109.162L139.601 106.388L139.646 106.343H139.71L163.085 106.321L162.909 106.497L162.923 98.4011L163.085 98.5635C155.098 98.5531 143.467 98.4656 135.353 98.4011ZM135.353 98.4011C143.545 98.3558 155.001 98.2294 163.085 98.2388H163.247L163.248 98.4011L163.262 106.497L163.262 106.674H163.085L139.71 106.651L139.819 106.606L137.045 109.352L136.814 109.58L136.816 109.257L136.833 106.497L136.95 106.614L135.353 106.604L135.244 106.604L135.245 106.497C135.259 103.768 135.33 101.069 135.353 98.4011Z" fill="#263238"/>
<path d="M139.487 100.549L140.118 101.489L141.208 101.799L140.508 102.689L140.55 103.821L139.487 103.431L138.424 103.821L138.466 102.689L137.767 101.799L138.856 101.489L139.487 100.549Z" fill="#FFC727"/>
<path d="M144.353 100.549L144.984 101.489L146.074 101.799L145.374 102.689L145.416 103.821L144.353 103.431L143.29 103.821L143.332 102.689L142.632 101.799L143.722 101.489L144.353 100.549Z" fill="#FFC727"/>
<path d="M149.219 100.549L149.85 101.489L150.939 101.799L150.24 102.689L150.282 103.821L149.219 103.431L148.156 103.821L148.198 102.689L147.499 101.799L148.588 101.489L149.219 100.549Z" fill="#FFC727"/>
<path d="M154.085 100.549L154.716 101.489L155.805 101.799L155.106 102.689L155.148 103.821L154.085 103.431L153.021 103.821L153.064 102.689L152.364 101.799L153.454 101.489L154.085 100.549Z" fill="#FFC727"/>
<path d="M158.951 103.431V100.549L158.319 101.489L157.23 101.799L157.929 102.689L157.887 103.821L158.951 103.431Z" fill="#FFC727"/>
<path d="M158.951 100.549L159.611 101.47C159.864 101.504 160.355 101.663 160.688 101.742L160.772 101.764L160.718 101.835L160.033 102.737L160.049 102.687L160.098 103.818L160.103 103.942L159.986 103.9L158.92 103.516H158.982L157.916 103.9L157.799 103.943L157.804 103.819L157.853 102.687L157.869 102.738L157.184 101.836L157.13 101.764L157.214 101.742C157.546 101.664 158.039 101.502 158.291 101.47C158.29 101.469 158.951 100.549 158.951 100.549ZM158.951 100.549L158.349 101.509C157.996 101.647 157.61 101.736 157.247 101.856L157.277 101.762L157.99 102.642C158.01 102.664 158.008 102.666 158.007 102.693L157.971 103.824L157.859 103.743L158.92 103.347C158.952 103.333 158.951 103.335 158.982 103.347L160.043 103.743L159.931 103.824L159.895 102.693C159.893 102.664 159.894 102.663 159.912 102.642L160.625 101.762L160.655 101.856C160.291 101.736 159.906 101.646 159.553 101.509C159.553 101.509 158.951 100.549 158.951 100.549Z" fill="#263238"/>
<path d="M57.943 13.8869V27.6677H59.54V30.4275L62.2997 27.6677H90.4409V13.8869H57.943Z" fill="#64748B"/>
<path d="M57.943 13.8869L57.9992 20.8003C58.0258 23.0986 58.0409 25.3828 58.0438 27.6673L57.943 27.5665L59.54 27.5608L59.6462 27.5604L59.6465 27.6677L59.6566 30.4275L59.4572 30.345L62.2069 27.5752L62.245 27.537C66.9319 27.5251 78.8698 27.4967 83.4055 27.4899L90.4406 27.5068L90.2797 27.6677L90.3099 13.8873L90.4406 14.0179C82.3395 14.0107 66.043 13.9373 57.943 13.8869ZM57.943 13.8869C66.0405 13.8376 82.3431 13.7645 90.4406 13.7562L90.5709 13.7559L90.5713 13.8869L90.6015 27.6673L90.6019 27.8279L90.4406 27.8283C82.5922 27.8675 70.2395 27.8117 62.2997 27.7984L62.3926 27.7599L59.6228 30.5092L59.4223 30.7083L59.4234 30.4267L59.4334 27.667L59.54 27.7735L57.943 27.7678L57.8419 27.7674C57.8239 23.7163 57.9315 17.988 57.943 13.8869Z" fill="#263238"/>
<path d="M69.1159 20.7956C69.1159 22.9628 67.3591 24.72 65.1919 24.72C63.0247 24.72 61.2676 22.9632 61.2676 20.7956C61.2676 18.6281 63.0244 16.8713 65.1919 16.8713C67.3591 16.8713 69.1159 18.6281 69.1159 20.7956Z" fill="#EBEBEB"/>
<path d="M65.2427 21.462C65.9247 21.462 66.4775 20.9091 66.4775 20.2272C66.4775 19.5452 65.9247 18.9924 65.2427 18.9924C64.5608 18.9924 64.0079 19.5452 64.0079 20.2272C64.0079 20.9091 64.5608 21.462 65.2427 21.462Z" fill="white"/>
<path d="M63.109 23.6339V24.1433C63.4618 24.3625 63.8535 24.5299 64.2794 24.6333C65.3803 24.9022 66.4844 24.6955 67.3768 24.1415V23.6339C67.3768 22.4585 66.4221 21.5002 65.2431 21.5002C64.0637 21.5002 63.109 22.4585 63.109 23.6339Z" fill="white"/>
<path d="M86.6102 18.4102H71.8938V18.6341H86.6102V18.4102Z" fill="#EBEBEB"/>
<path d="M86.6102 19.9355H71.8938V20.1595H86.6102V19.9355Z" fill="#EBEBEB"/>
<path d="M86.6102 21.4629H71.8938V21.6868H86.6102V21.4629Z" fill="#EBEBEB"/>
<path d="M79.1878 22.9883H71.8938V23.2122H79.1878V22.9883Z" fill="#EBEBEB"/>
</svg>
