<svg width="168" height="180" viewBox="0 0 168 180" fill="none" xmlns="http://www.w3.org/2000/svg">
<path d="M148.07 154.833C144.675 158.682 141.463 161.165 138.925 163.127C109.095 186.184 73.7982 179.463 66.2966 177.822C55.2191 175.398 33.8065 170.713 18.3256 151.101C-5.09577 121.429 -1.44871 74.6831 16.7184 43.8251C20.0415 38.1807 37.5949 6.85271 73.272 1.82873C94.8635 -1.21173 120.032 4.92055 138.259 21.3707C176.518 55.9009 173.794 125.658 148.07 154.833Z" fill="url(#paint0_linear_1_11845)"/>
<path d="M45.8894 118.506C45.8894 118.506 46.402 95.2883 36.4753 89.0743C26.5487 82.8603 7.67463 78.9753 6.96719 45.6373C6.55294 26.1198 6.1047 17.5863 5.80421 13.8654C5.68702 12.4139 6.8843 11.2424 8.21335 11.512C17.6147 13.4199 48.1556 21.273 54.5588 43.7293C62.1498 70.3517 45.8894 118.506 45.8894 118.506Z" fill="#BDD0FB"/>
<path opacity="0.5" d="M15.4841 20.7876C25.804 30.7027 37.737 48.2503 44.0975 65.798C44.9139 68.69 47.3021 74.84 48.3391 85.7671C49.2654 94.8805 48.8049 104.511 47.6818 110.885C47.6108 111.288 47.2499 111.553 46.8758 111.476C46.2326 111.345 46.3181 110.6 46.3239 110.623C47.6066 99.7319 47.0742 86.176 44.135 73.9446C40.3799 58.9259 32.0046 44.3648 23.3417 32.0148L22.4503 30.7987C15.7386 21.5134 14.3257 21.445 14.9531 20.7977C15.1014 20.6448 15.3333 20.6434 15.4841 20.7876Z" fill="white"/>
<path d="M61.8419 163.144C63.1849 163.854 49.1274 144.81 44.7238 114.901C42.6487 100.807 42.6217 83.1486 35.169 76.3435C28.9664 70.68 7.8597 74.2556 0.953615 75.6144C0.0906485 75.7841 -0.19984 76.9585 0.471858 77.5663C3.78375 80.5626 10.8684 87.6302 12.7143 94.753C15.1475 104.141 23.433 110.113 30.8506 111.729C38.2682 113.345 42.3945 114.913 46.0081 127.692C49.6217 140.472 58.0257 161.129 61.8419 163.144Z" fill="#91B3FA"/>
<path opacity="0.5" d="M10.6666 79.5813C19.4777 79.9788 28.9358 84.3088 33.7354 92.4308L34.1884 93.2058C35.2347 95.0231 41.1644 107.942 44.4578 118.651C44.4988 118.784 44.4317 118.928 44.3077 118.973C44.0972 119.048 43.9918 118.798 44.0119 118.82C41.7173 112.77 38.4217 105.1 35.797 99.3645C32.9822 93.1056 31.0124 88.8669 24.592 84.8068C17.4459 80.4342 10.6188 79.9841 10.6393 79.9886C10.5352 79.9771 10.4593 79.8769 10.4699 79.7647C10.4802 79.6567 10.5673 79.5771 10.6666 79.5813Z" fill="white"/>
<path d="M55.8156 165.649C56.6126 166.102 51.3263 156.3 50.9207 147.665C50.5151 139.029 48.7066 124.29 41.7938 115.473C34.8811 106.656 27.3109 105.852 17.7721 113.867C9.82308 120.547 4.8647 123.917 1.9568 124.544C1.23676 124.699 0.869291 125.575 1.2197 126.27C3.08482 129.97 8.3578 138.469 17.2115 137.871C28.505 137.108 42.1919 129.199 46.3634 135.796C50.535 142.394 49.9993 146.086 50.1275 149.212C50.2556 152.339 50.5413 162.654 55.8156 165.649Z" fill="#BDD0FB"/>
<path opacity="0.5" d="M20.9766 124.454C24.4364 120.881 30.071 117.369 34.9955 118.024C41.4026 119.136 45.6707 123.745 47.9988 130.606C48.9089 133.52 49.2833 135.075 49.8214 138.646C49.8643 138.931 49.4738 139.016 49.4089 138.738C49.0173 137.061 48.6295 135.304 48.0494 133.488C44.6723 121.768 37.4633 120.19 37.1828 119.95C36.6379 120.008 33.3338 117.343 25.494 121.888C24.03 122.746 22.6049 123.726 21.267 124.807L21.2596 124.813C21.1628 124.891 21.0255 124.87 20.9529 124.766C20.8858 124.669 20.8976 124.535 20.9766 124.454Z" fill="white"/>
<path d="M49.2155 13.9629C45.4803 14.3129 42.6166 17.6828 42.6059 21.7218C42.5409 46.4221 42.4336 131.62 43.928 161.775C44.0863 164.97 46.5176 167.48 49.4872 167.514C64.1748 167.684 106.423 167.997 130.408 166.345C135.404 166 139.291 161.543 139.285 156.151C139.256 130.227 138.871 57.3201 135.575 23.9952C135.18 20.0024 132.2 16.8858 128.484 16.5739C112.465 15.2293 69.9263 12.0226 49.2155 13.9629Z" fill="url(#paint1_linear_1_11845)"/>
<path d="M48.5017 28.195C48.2133 49.3239 47.392 119.611 48.8257 145.553C49.0352 149.344 51.7692 152.338 55.1452 152.465C69.045 152.987 104.689 153.996 124.999 151.589C128.656 151.155 131.451 147.74 131.549 143.605C132.057 122.043 133.429 56.579 132.036 30.9274C131.813 26.8352 128.911 23.57 125.273 23.3059C110.223 22.2135 71.5764 19.694 54.3051 21.2434C51.0629 21.5343 48.5516 24.537 48.5017 28.195Z" fill="#8EA7EC"/>
<path d="M82.0852 17.6366C82.0971 18.2203 82.5292 18.6917 83.0709 18.7095C85.7455 18.797 93.2797 19.0455 96.6473 19.1762C97.3113 19.202 97.8187 18.5475 97.6786 17.8478C97.6671 17.8258 97.5808 16.9287 96.7304 16.865C94.4524 16.6943 87.5798 16.2343 83.0382 16.5165C82.1056 16.5746 82.0549 17.7171 82.0852 17.6366Z" fill="#1D4ED8"/>
<path d="M74.1083 72.7181C85.2059 72.7181 94.2024 63.0265 94.2024 51.0713C94.2024 39.1161 85.2059 29.4244 74.1083 29.4244C63.0106 29.4244 54.0142 39.1161 54.0142 51.0713C54.0142 63.0265 63.0106 72.7181 74.1083 72.7181Z" fill="white"/>
<mask id="mask0_1_11845" style="mask-type:luminance" maskUnits="userSpaceOnUse" x="56" y="31" width="37" height="40">
<path d="M74.1083 70.3496C83.9916 70.3496 92.0037 61.7184 92.0037 51.0713C92.0037 40.4243 83.9916 31.7931 74.1083 31.7931C64.2249 31.7931 56.2129 40.4243 56.2129 51.0713C56.2129 61.7184 64.2249 70.3496 74.1083 70.3496Z" fill="white"/>
</mask>
<g mask="url(#mask0_1_11845)">
<path d="M74.1859 54.5959C78.5172 54.5959 82.0284 50.8134 82.0284 46.1474C82.0284 41.4814 78.5172 37.6989 74.1859 37.6989C69.8547 37.6989 66.3435 41.4814 66.3435 46.1474C66.3435 50.8134 69.8547 54.5959 74.1859 54.5959Z" fill="#1D4ED8"/>
</g>
<mask id="mask1_1_11845" style="mask-type:luminance" maskUnits="userSpaceOnUse" x="56" y="31" width="37" height="40">
<path d="M74.1083 70.3496C83.9916 70.3496 92.0037 61.7184 92.0037 51.0713C92.0037 40.4242 83.9916 31.7931 74.1083 31.7931C64.2249 31.7931 56.2129 40.4242 56.2129 51.0713C56.2129 61.7184 64.2249 70.3496 74.1083 70.3496Z" fill="white"/>
</mask>
<g mask="url(#mask1_1_11845)">
<path d="M62.2738 71.5176H87.2588C88.7906 71.5176 89.7084 69.3851 88.8836 67.758C86.7613 63.5715 82.3211 57.4211 74.6312 57.6987C67.2197 57.9662 62.8269 63.5217 60.6185 67.5059C59.681 69.1973 60.6371 71.5176 62.2738 71.5176Z" fill="#1D4ED8"/>
</g>
<g opacity="0.8">
<path d="M124.947 43.9178L101.978 43.54C101.581 43.5335 101.261 43.1784 101.267 42.751L101.32 39.0354C101.326 38.608 101.656 38.2636 102.052 38.2701L125.022 38.6479C125.419 38.6543 125.739 39.0094 125.733 39.4369L125.68 43.1525C125.674 43.5799 125.344 43.9242 124.947 43.9178Z" fill="white"/>
<path d="M124.803 54.7122L101.834 54.3345C101.437 54.328 101.117 53.9729 101.123 53.5455L101.176 49.8299C101.182 49.4025 101.512 49.0581 101.908 49.0646L124.878 49.4423C125.275 49.4488 125.594 49.8039 125.588 50.2313L125.536 53.947C125.53 54.3744 125.2 54.7188 124.803 54.7122Z" fill="white"/>
<path d="M124.642 65.5068L101.672 65.129C101.275 65.1224 100.955 64.7674 100.961 64.34L101.014 60.6244C101.02 60.197 101.35 59.8526 101.746 59.8591L124.716 60.2368C125.113 60.2433 125.433 60.5984 125.427 61.0258L125.374 64.7415C125.368 65.1689 125.038 65.5132 124.642 65.5068Z" fill="white"/>
</g>
<path d="M104.765 27.4323C104.687 27.4005 104.629 27.3229 104.622 27.229C104.601 26.9192 104.585 26.6038 104.575 26.2915C104.571 26.1632 104.666 26.0574 104.787 26.0552C105.081 26.0482 105.002 26.3637 105.06 27.202C105.069 27.33 104.978 27.44 104.857 27.4474C104.825 27.4493 104.794 27.4439 104.765 27.4323Z" fill="#BDD0FB"/>
<path d="M104.663 23.3707C104.716 22.7768 104.793 22.1778 104.891 21.5907C104.912 21.4647 105.025 21.3821 105.145 21.4062C105.47 21.4741 105.258 21.6714 105.099 23.422C105.088 23.5495 104.981 23.6414 104.86 23.6272C104.738 23.6128 104.651 23.4967 104.663 23.3707ZM105.537 18.7594C105.705 18.1878 105.896 17.6127 106.1 17.0702C106.21 16.7784 106.613 16.9681 106.508 17.2476C106.305 17.7886 106.12 18.3434 105.957 18.9029C105.921 19.025 105.798 19.0917 105.683 19.0521C105.565 19.0119 105.502 18.8802 105.537 18.7594ZM107.275 14.4443C107.547 13.9255 107.842 13.4119 108.152 12.9174C108.313 12.6626 108.678 12.9249 108.519 13.1785C108.215 13.6629 107.926 14.1663 107.659 14.6745C107.519 14.9419 107.135 14.7109 107.275 14.4443ZM109.838 10.9364C109.747 10.8514 109.736 10.7045 109.815 10.6085C110.183 10.1612 110.572 9.72379 110.973 9.30838C111.179 9.09493 111.488 9.4293 111.282 9.64275C110.89 10.0497 110.508 10.4784 110.148 10.9165C110.069 11.0127 109.93 11.0216 109.838 10.9364ZM113.01 7.74085C112.936 7.63799 112.954 7.49246 113.05 7.41571C113.498 7.05822 113.964 6.71535 114.437 6.39651C114.68 6.23319 114.919 6.62528 114.676 6.78951C114.213 7.10193 113.756 7.43785 113.318 7.78812C113.222 7.86481 113.084 7.84371 113.01 7.74085ZM116.859 5.42244C116.807 5.40153 116.763 5.36068 116.737 5.30406C116.684 5.18788 116.73 5.0495 116.839 4.99521C117.347 4.74208 117.871 4.50747 118.395 4.29759C118.508 4.25245 118.635 4.31317 118.68 4.43337C118.724 4.5535 118.668 4.68741 118.556 4.73254C118.042 4.93807 117.528 5.16821 117.03 5.4162C116.975 5.44406 116.913 5.44439 116.859 5.42244ZM121 3.88796C120.934 3.86127 120.882 3.80211 120.863 3.72477C120.833 3.59989 120.905 3.47469 121.022 3.44508C121.569 3.30735 122.128 3.19091 122.684 3.09909C122.803 3.07909 122.917 3.16591 122.937 3.29293C122.958 3.41962 122.877 3.53846 122.758 3.55814C122.213 3.64821 121.665 3.7623 121.13 3.89724C121.085 3.90854 121.04 3.90425 121 3.88796ZM125.219 3.07286C125.214 2.94454 125.308 2.83791 125.429 2.8344C125.992 2.81843 126.564 2.82609 127.129 2.85707C127.419 2.87389 127.402 3.33683 127.112 3.32105C126.559 3.29066 125.999 3.28332 125.448 3.29891C125.327 3.30241 125.224 3.20137 125.219 3.07286ZM139.274 8.1195C137.96 7.03848 137.664 7.05601 137.845 6.76295C137.91 6.65606 138.046 6.62756 138.148 6.69827C138.622 7.02933 139.09 7.38467 139.54 7.75423C139.77 7.94378 139.505 8.30945 139.274 8.1195ZM129.623 3.3817C129.643 3.25546 129.756 3.17163 129.875 3.19455C130.431 3.30098 130.991 3.43183 131.539 3.58372C131.821 3.66191 131.716 4.11108 131.434 4.03309C130.897 3.88432 130.348 3.75594 129.804 3.65165C129.683 3.6284 129.603 3.50664 129.623 3.3817ZM135.547 5.65264C134.06 4.87826 133.771 4.95787 133.89 4.62994C133.966 4.42194 134.2 4.49974 134.174 4.50091C134.702 4.72416 135.228 4.97164 135.736 5.23613C135.845 5.29308 135.892 5.4325 135.839 5.54744C135.79 5.65725 135.663 5.71128 135.547 5.65264Z" fill="#BDD0FB"/>
<path d="M141.931 10.7085C141.427 10.1288 141.115 9.93239 141.324 9.71115C141.409 9.62134 141.548 9.62199 141.634 9.7142C142.178 10.2911 142.45 10.5212 142.241 10.7247C142.178 10.7857 142.014 10.8032 141.931 10.7085Z" fill="#BDD0FB"/>
<path d="M147.799 27.6401C147.711 27.6044 147.651 27.5116 147.656 27.4076C147.671 27.1024 147.681 26.7935 147.684 26.4892C147.685 26.361 147.785 26.2599 147.906 26.2633C148.027 26.2672 148.124 26.3735 148.123 26.5019C148.119 26.8124 148.11 27.1276 148.094 27.4391C148.088 27.5671 147.984 27.6638 147.863 27.6551C147.841 27.6535 147.819 27.6483 147.799 27.6401Z" fill="#BDD0FB"/>
<path d="M118.213 47.1491C117.648 46.9003 117.087 46.6235 116.544 46.326C116.436 46.2667 116.392 46.1264 116.447 46.0126C116.6 45.6922 116.725 45.9927 118.376 46.7206C118.488 46.7701 118.543 46.9062 118.498 47.0245C118.419 47.2313 118.186 47.15 118.213 47.1491ZM120.88 47.8819C120.963 47.5333 121.155 47.7996 122.901 48.1322C123.021 48.1543 123.102 48.2759 123.082 48.402C123.062 48.5283 122.95 48.6122 122.83 48.5895C122.233 48.4757 121.63 48.3334 121.039 48.1664C120.921 48.1328 120.851 48.0051 120.88 47.8819ZM113.986 44.6822C113.486 44.3094 112.994 43.9093 112.524 43.4929C112.43 43.41 112.417 43.2633 112.494 43.1654C112.711 42.8894 112.769 43.2108 114.235 44.3035C114.335 44.3779 114.36 44.523 114.291 44.6275C114.222 44.732 114.086 44.7563 113.986 44.6822ZM125.718 48.9196C125.632 48.8847 125.572 48.7954 125.575 48.6933C125.578 48.5651 125.678 48.4655 125.799 48.4708C126.395 48.4967 126.998 48.496 127.592 48.4687C127.713 48.4632 127.816 48.5625 127.823 48.6906C127.831 48.8188 127.738 48.9272 127.617 48.9328C127.012 48.9607 126.396 48.9614 125.788 48.9349C125.763 48.9338 125.74 48.9285 125.718 48.9196ZM130.444 48.5693C130.375 48.5412 130.32 48.4769 130.305 48.3942C130.281 48.2681 130.359 48.147 130.477 48.124C131.061 48.011 131.647 47.87 132.219 47.7048C132.336 47.6711 132.457 47.7444 132.491 47.8681C132.524 47.992 132.457 48.1196 132.341 48.1532C131.756 48.3217 131.158 48.4656 130.563 48.5811C130.522 48.5891 130.481 48.5843 130.444 48.5693ZM134.968 47.1282C134.915 47.1063 134.869 47.0625 134.844 47.0021C134.795 46.884 134.845 46.7476 134.956 46.6976C135.5 46.4517 136.041 46.1781 136.564 45.8844C136.671 45.8248 136.804 45.8683 136.862 45.9818C136.92 46.0953 136.881 46.2358 136.774 46.2955C136.241 46.5952 135.689 46.8743 135.133 47.1254C135.079 47.1499 135.02 47.1492 134.968 47.1282ZM139.074 44.672C139.035 44.6563 139 44.6287 138.973 44.5904C138.901 44.486 138.922 44.3408 139.02 44.2664C139.499 43.9001 139.969 43.5074 140.417 43.0992C140.508 43.0161 140.647 43.0278 140.727 43.1259C140.807 43.2236 140.797 43.3702 140.706 43.4532C140.249 43.8699 139.769 44.2706 139.28 44.6445C139.218 44.6917 139.141 44.6992 139.074 44.672ZM142.494 41.2746C142.237 41.034 142.54 40.9858 143.589 39.479C143.76 39.2335 144.115 39.5127 143.944 39.7584C143.586 40.2725 143.202 40.7765 142.804 41.2562C142.725 41.3515 142.586 41.3607 142.494 41.2746ZM145.229 37.2081C144.929 37.0328 145.212 36.9171 145.92 35.196C146.034 34.9169 146.438 35.1062 146.322 35.3867C146.081 35.9741 145.813 36.5566 145.526 37.1179C145.468 37.2318 145.333 37.2698 145.229 37.2081ZM147.026 32.5871C146.92 32.5439 146.86 32.4214 146.891 32.3045C147.053 31.6971 147.191 31.0776 147.303 30.463C147.326 30.3375 147.441 30.2568 147.56 30.2828C147.679 30.3097 147.757 30.4319 147.734 30.5576C147.62 31.1847 147.478 31.8168 147.314 32.4364C147.281 32.5594 147.16 32.6296 147.044 32.5931C147.038 32.5914 147.032 32.5894 147.026 32.5871Z" fill="#BDD0FB"/>
<path d="M110.353 41.2866C109.834 40.683 109.572 40.4408 109.79 40.2481C110.017 40.0474 110.144 40.3585 110.675 40.9768C110.757 41.0723 110.752 41.2192 110.663 41.3048C110.574 41.3903 110.435 41.3821 110.353 41.2866Z" fill="#BDD0FB"/>
<path d="M112.751 35.4143L115.869 34.9984C116.819 36.2021 117.955 37.2571 119.25 38.1061C119.372 41.3448 119.167 41.5812 119.489 41.6966L123.082 42.9862C123.187 43.0238 123.302 42.9871 123.368 42.8949L125.261 40.2632C126.769 40.4202 128.263 40.3092 129.69 39.9586L131.959 42.3075C132.038 42.3898 132.157 42.4104 132.256 42.3589L135.619 40.5936C135.718 40.542 135.773 40.4296 135.758 40.3136L135.318 37.0053C136.44 36.0176 137.419 34.8306 138.202 33.4716L141.348 33.459C141.458 33.4586 141.555 33.3841 141.589 33.2734L142.753 29.4874C142.787 29.3767 142.75 29.2543 142.662 29.1827L140.148 27.1388C140.273 25.544 140.146 23.9601 139.793 22.4429C141.881 20.0832 142.174 20.0811 142.021 19.7624C140.279 16.274 140.378 15.9771 140.037 16.0225L136.919 16.4385C135.969 15.2347 134.833 14.1798 133.538 13.3308C133.416 10.094 133.621 9.85578 133.3 9.74025C129.709 8.52514 129.623 8.25902 129.42 8.54202L127.527 11.1738C126.019 11.0166 124.525 11.1276 123.098 11.4782C120.865 9.25932 120.836 8.91879 120.532 9.07802C117.233 10.8879 116.983 10.7659 117.03 11.1232L117.47 14.4315C116.348 15.4193 115.369 16.6062 114.586 17.9653C111.583 18.0437 111.305 17.8177 111.199 18.1635C110.11 21.931 109.854 22.0329 110.126 22.2541L112.64 24.2981C112.515 25.8928 112.642 27.4768 112.995 28.994C110.915 31.3457 110.613 31.354 110.767 31.6745C112.509 35.1628 112.41 35.4598 112.751 35.4143Z" fill="#91B3FA"/>
<path d="M122.719 25.4028C122.853 23.2595 124.61 21.6574 126.637 21.8314C128.663 22.0061 130.203 23.8907 130.069 26.0341C129.935 28.1773 128.178 29.7795 126.152 29.6056C124.125 29.4316 122.586 27.5456 122.719 25.4028ZM126.593 22.5261C124.949 22.3847 123.487 23.6724 123.376 25.4591C123.266 27.2194 124.531 28.7683 126.195 28.9107C127.859 29.0536 129.302 27.7378 129.412 25.9776C129.522 24.2147 128.254 22.6683 126.593 22.5261Z" fill="white"/>
<path d="M123.188 35.0002C122.678 34.7925 122.184 34.5393 121.717 34.2449C121.576 34.1564 121.519 33.9761 121.573 33.821C121.58 33.8025 121.588 33.7844 121.597 33.7668C121.688 33.6017 121.89 33.5486 122.047 33.6473C122.585 33.9858 123.16 34.2657 123.756 34.4803C128.25 36.0928 133.081 33.6564 134.702 29.0325C134.743 28.9144 134.783 28.7949 134.82 28.674C136.321 23.7889 133.769 18.5217 129.169 16.8692C124.574 15.2203 119.605 17.8039 118.105 22.6754C117.214 25.5756 117.993 27.5217 117.888 27.8203C117.775 28.1429 117.332 28.1052 117.259 27.7682C116.859 25.9275 116.948 23.9423 117.606 22.0653C120.446 13.9667 131.144 13.4735 134.872 21.2614C136.019 23.658 136.223 26.3703 135.446 28.8986C135.406 29.0294 135.363 29.159 135.318 29.2872C134.495 31.6358 132.888 33.5294 130.758 34.6473C128.512 35.8259 125.953 36.0009 123.554 35.1397C123.431 35.0959 123.309 35.0493 123.188 35.0002Z" fill="white"/>
<path d="M149.47 18.1833C150.043 18.8147 150.714 19.3523 151.466 19.765L151.625 21.6468C151.642 21.8556 151.803 21.7621 153.778 22.3256C153.961 22.3739 153.929 22.1959 154.885 20.6716C155.729 20.6817 156.554 20.541 157.334 20.2682L158.683 21.4786C158.832 21.6129 158.884 21.4243 160.651 20.3181C160.704 20.2837 160.73 20.2173 160.717 20.1525L160.348 18.304C160.934 17.6867 161.433 16.9642 161.816 16.1545C163.482 15.9534 163.644 16.066 163.69 15.8657C164.152 13.6755 164.29 13.6064 164.131 13.4957L162.658 12.4706C162.667 11.5619 162.536 10.6726 162.283 9.83272L163.407 8.37999C163.531 8.21894 163.356 8.16277 162.33 6.25964C162.233 6.08703 162.145 6.2347 160.46 6.58608C159.887 5.95462 159.216 5.4172 158.465 5.00445L158.306 3.12255C158.288 2.91352 158.127 3.00729 156.152 2.44376C155.971 2.39558 156.006 2.56578 155.045 4.09779C154.202 4.08753 153.376 4.22838 152.596 4.50112L151.248 3.29074C151.201 3.24827 151.133 3.24289 151.081 3.27717L149.279 4.45118C149.227 4.48547 149.2 4.55197 149.213 4.61684L149.583 6.4653C148.996 7.0826 148.497 7.80509 148.114 8.61474C146.448 8.81592 146.286 8.70325 146.241 8.90358C145.778 11.0929 145.64 11.1626 145.799 11.2736L147.273 12.2986C147.263 13.2073 147.394 14.0967 147.647 14.9365C146.601 16.3479 146.412 16.392 146.511 16.569L147.601 18.5096C147.698 18.6832 147.794 18.5329 149.47 18.1833Z" fill="#91B3FA"/>
<path d="M152.768 12.399C152.761 11.091 153.738 10.026 154.952 10.0184C156.166 10.0105 157.155 11.0626 157.162 12.3707C157.169 13.6755 156.189 14.7436 154.978 14.7514C153.767 14.759 152.776 13.7041 152.768 12.399ZM153.423 12.3947C153.428 13.3108 154.124 14.0515 154.974 14.0461C156.34 14.0372 157.024 12.2409 156.049 11.2032C155.079 10.1704 153.415 10.9142 153.423 12.3947Z" fill="white"/>
<path d="M144.198 16.755C144.094 16.4578 144 16.1519 143.917 15.8458C143.883 15.721 143.95 15.5907 144.066 15.5545C144.357 15.4633 144.338 15.8224 144.607 16.5891C144.649 16.7107 144.592 16.8463 144.479 16.8921C144.367 16.9378 144.241 16.8771 144.198 16.755Z" fill="#BDD0FB"/>
<path d="M143.466 12.7402C143.45 12.1161 143.476 11.4631 143.554 10.8057C143.59 10.4965 144.023 10.5575 143.987 10.8651C143.786 12.5683 144.056 12.9577 143.691 12.9686C143.569 12.9721 143.47 12.8693 143.466 12.7402ZM144.409 8.06913C144.297 8.02069 144.243 7.8838 144.288 7.76321C144.511 7.16565 144.78 6.5818 145.087 6.02801C145.236 5.76131 145.61 6.00242 145.462 6.26951C145.166 6.80219 144.907 7.36378 144.693 7.93861C144.614 8.15017 144.382 8.07043 144.409 8.06913ZM146.965 3.9448C146.936 3.93317 146.91 3.91493 146.887 3.89005C146.802 3.79758 146.803 3.64874 146.889 3.55751C147.315 3.1047 147.778 2.68461 148.263 2.30901C148.361 2.23343 148.498 2.25752 148.568 2.36284C148.638 2.4683 148.616 2.61532 148.518 2.69091C148.051 3.05242 147.606 3.45666 147.196 3.89233C147.133 3.95883 147.042 3.97629 146.965 3.9448ZM150.83 1.25442C150.774 1.23156 150.727 1.18403 150.704 1.11896C150.66 0.997851 150.716 0.861677 150.829 0.815052C151.387 0.583159 151.967 0.397308 152.552 0.262691C152.67 0.235742 152.786 0.316589 152.811 0.443672C152.836 0.570626 152.761 0.695501 152.643 0.722645C152.08 0.852001 151.523 1.03071 150.986 1.25371C150.934 1.2754 150.879 1.2741 150.83 1.25442ZM155.231 0.225351C155.236 0.0956705 155.338 -0.00524366 155.459 0.000211125C156.058 0.0273552 156.659 0.105347 157.244 0.231911C157.526 0.291589 157.442 0.754269 157.158 0.692968C156.595 0.571145 156.017 0.496206 155.44 0.470166C155.317 0.464127 155.226 0.3525 155.231 0.225351Z" fill="#BDD0FB"/>
<path d="M160.579 2.10407C159.889 1.666 159.596 1.63769 159.726 1.35261C159.779 1.23598 159.907 1.18598 160.018 1.24475C160.282 1.38385 160.545 1.53671 160.801 1.69899C160.905 1.7649 160.939 1.90907 160.878 2.02102C160.818 2.13109 160.685 2.17083 160.579 2.10407Z" fill="#BDD0FB"/>
<path d="M165.819 10.0309C165.662 9.18186 165.486 8.93042 165.77 8.84424C165.886 8.80892 166.006 8.88171 166.039 9.00659C166.119 9.3116 166.189 9.62512 166.247 9.93838C166.271 10.0657 166.194 10.1897 166.076 10.2151C165.959 10.2407 165.843 10.1584 165.819 10.0309Z" fill="#BDD0FB"/>
<path d="M151.964 24.109C152.053 23.7305 152.335 24.0917 153.905 24.2525C154.192 24.2812 154.152 24.7501 153.864 24.7207C153.277 24.6606 152.69 24.5509 152.121 24.3948C152.006 24.3637 151.933 24.2365 151.964 24.109ZM156.482 24.435C156.464 24.3067 156.545 24.1867 156.665 24.167C158.236 23.9066 158.484 23.5286 158.595 23.9022C158.631 24.026 158.568 24.1581 158.453 24.1975C157.892 24.3892 157.313 24.5354 156.731 24.6318C156.612 24.6514 156.501 24.5634 156.482 24.435ZM160.755 22.8254C160.563 22.4932 160.997 22.5266 162.194 21.4137C162.413 21.2109 162.698 21.5665 162.479 21.7699C162.033 22.1844 161.554 22.5648 161.056 22.9001C160.954 22.9689 160.819 22.9356 160.755 22.8254ZM164.098 19.5345C163.799 19.3096 164.212 19.1572 164.909 17.6288C165.036 17.3499 165.428 17.5564 165.301 17.8359C165.042 18.4045 164.739 18.9564 164.402 19.4765C164.332 19.5831 164.196 19.6086 164.098 19.5345ZM165.804 14.8163C166.127 13.1402 165.885 12.7554 166.249 12.7754C166.37 12.7819 166.462 12.8924 166.456 13.0221C166.426 13.6572 166.351 14.293 166.231 14.9118C166.207 15.0389 166.092 15.1207 165.973 15.0943C165.856 15.068 165.78 14.9437 165.804 14.8163Z" fill="#BDD0FB"/>
<path d="M149.442 23.2566C149.183 23.1035 148.926 22.9377 148.679 22.7638C148.578 22.6927 148.55 22.5471 148.616 22.4383C148.782 22.1647 148.984 22.4496 149.652 22.8443C149.757 22.9068 149.796 23.0497 149.738 23.1635C149.679 23.279 149.545 23.3182 149.442 23.2566Z" fill="#BDD0FB"/>
<path d="M152.638 17.5975C152.452 17.5007 152.401 17.2851 152.476 17.1198C152.555 16.9447 152.753 16.8723 152.914 16.9574C153.215 17.1159 153.535 17.2407 153.865 17.3283C153.937 17.3321 155.643 17.9189 157.462 16.7374C161.068 14.3868 160.234 8.47049 156.137 7.38479C153.78 6.75996 151.393 8.15645 150.556 10.5445C149.713 12.9494 150.918 14.0755 150.24 14.2998C150.068 14.3572 149.884 14.2527 149.831 14.0665C149.544 13.0624 149.516 11.9898 149.75 10.9644C150.461 7.85072 153.394 5.93122 156.294 6.69989C159.414 7.52681 161.215 11.1235 160.057 14.4262C159.123 17.0899 156.443 18.7381 153.709 18.0133C153.709 18.0133 153.709 18.0133 153.709 18.0132C153.339 17.915 152.979 17.7752 152.638 17.5975Z" fill="white"/>
<path d="M104.499 146.907H79.508C78.6905 146.907 78.0217 146.186 78.0217 145.306V137.65C78.0217 136.769 78.6905 136.049 79.508 136.049H104.499C105.317 136.049 105.986 136.769 105.986 137.65V145.306C105.986 146.186 105.317 146.907 104.499 146.907Z" fill="url(#paint2_linear_1_11845)"/>
<g opacity="0.8">
<path d="M123.209 96.7322H66.8244C66.376 96.7322 66.0091 96.3369 66.0091 95.8539V91.632C66.0091 91.149 66.376 90.7538 66.8244 90.7538H123.209C123.657 90.7538 124.024 91.149 124.024 91.632V95.8539C124.024 96.3369 123.657 96.7322 123.209 96.7322Z" fill="white"/>
<path d="M58.5675 97.3493C60.4256 97.3493 61.9319 95.7266 61.9319 93.725C61.9319 91.7233 60.4256 90.1006 58.5675 90.1006C56.7094 90.1006 55.2031 91.7233 55.2031 93.725C55.2031 95.7266 56.7094 97.3493 58.5675 97.3493Z" fill="white"/>
<path d="M123.209 107.951H66.8244C66.376 107.951 66.0091 107.555 66.0091 107.072V102.851C66.0091 102.367 66.376 101.972 66.8244 101.972H123.209C123.657 101.972 124.024 102.367 124.024 102.851V107.072C124.024 107.555 123.657 107.951 123.209 107.951Z" fill="white"/>
<path d="M59.8589 108.293C61.5756 107.527 62.3908 105.407 61.6797 103.557C60.9686 101.708 59.0005 100.83 57.2838 101.596C55.5671 102.362 54.7519 104.482 55.463 106.332C56.1741 108.181 58.1422 109.059 59.8589 108.293Z" fill="white"/>
<path d="M123.209 119.169H66.8244C66.376 119.169 66.0091 118.774 66.0091 118.291V114.069C66.0091 113.586 66.376 113.191 66.8244 113.191H123.209C123.657 113.191 124.024 113.586 124.024 114.069V118.291C124.024 118.774 123.657 119.169 123.209 119.169Z" fill="white"/>
<path d="M58.5675 119.786C60.4256 119.786 61.9319 118.163 61.9319 116.162C61.9319 114.16 60.4256 112.537 58.5675 112.537C56.7094 112.537 55.2031 114.16 55.2031 116.162C55.2031 118.163 56.7094 119.786 58.5675 119.786Z" fill="white"/>
<path d="M123.209 130.388H66.8244C66.376 130.388 66.0091 129.992 66.0091 129.509V125.287C66.0091 124.804 66.376 124.409 66.8244 124.409H123.209C123.657 124.409 124.024 124.804 124.024 125.287V129.509C124.024 129.992 123.657 130.388 123.209 130.388Z" fill="white"/>
<path d="M59.8592 130.73C61.5759 129.964 62.3911 127.844 61.68 125.995C60.9689 124.145 59.0008 123.267 57.2841 124.033C55.5674 124.799 54.7522 126.92 55.4633 128.769C56.1744 130.618 58.1425 131.496 59.8592 130.73Z" fill="white"/>
</g>
<path d="M39.9469 38.405L38.8176 39.3449L38.8147 39.3473C38.7342 39.4143 38.6187 39.3983 38.5564 39.3116C38.4942 39.2249 38.5091 39.1004 38.5896 39.0334C38.5902 39.0329 38.5917 39.0317 38.5923 39.0312L39.7432 38.1094C39.8189 38.0487 39.926 38.0657 39.9823 38.1473C40.038 38.2279 40.0232 38.3415 39.9498 38.4027L39.9469 38.405Z" fill="white"/>
<path d="M36.0061 41.863C35.2925 42.535 34.592 43.2231 33.9012 43.9219C33.8034 44.0209 33.6496 44.0157 33.5577 43.9103C33.4658 43.8049 33.4706 43.6393 33.5685 43.5402C33.569 43.5397 33.5705 43.5382 33.571 43.5377C34.2752 42.8451 34.9937 42.1693 35.7224 41.507C35.8143 41.4234 35.9517 41.4359 36.0293 41.535C36.1061 41.633 36.0953 41.779 36.0061 41.863Z" fill="white"/>
<path d="M31.2972 46.6838C30.6379 47.4169 29.9913 48.1627 29.3577 48.9211C29.2514 49.0483 29.0694 49.0586 28.9514 48.9441C28.8333 48.8296 28.8237 48.6336 28.9299 48.5064C28.9305 48.5057 28.9321 48.5039 28.9327 48.5033C29.5806 47.7488 30.2415 47.0072 30.9146 46.279C31.0191 46.166 31.1888 46.1656 31.2938 46.2781C31.3978 46.3897 31.3989 46.5706 31.2972 46.6838Z" fill="white"/>
<path d="M26.98 51.9072C26.3811 52.6971 25.7961 53.4989 25.2255 54.3123C25.1148 54.4701 24.9064 54.5014 24.7598 54.3821C24.6134 54.2629 24.5843 54.0384 24.695 53.8806C24.6956 53.8798 24.6973 53.8775 24.6978 53.8767C25.2839 53.0646 25.8842 52.2646 26.4982 51.4772C26.6093 51.3347 26.8066 51.3162 26.939 51.4359C27.0701 51.5546 27.088 51.7648 26.98 51.9072Z" fill="white"/>
<path d="M23.0984 57.5068C22.5665 58.3495 22.05 59.2032 21.5496 60.0676C21.4394 60.258 21.2068 60.3161 21.03 60.1974C20.8533 60.0787 20.7993 59.8281 20.9096 59.6377C20.9101 59.6368 20.9117 59.6339 20.9124 59.633C21.4291 58.7669 21.9618 57.9121 22.5098 57.0692C22.6232 56.8949 22.8461 56.8526 23.0079 56.9746C23.1682 57.0955 23.2081 57.3329 23.0984 57.5068Z" fill="white"/>
<path d="M19.6981 63.4514C19.2384 64.3411 18.7957 65.2408 18.3709 66.15C18.269 66.368 18.0224 66.4557 17.82 66.346C17.6176 66.2363 17.5362 65.9706 17.6381 65.7526L17.6396 65.7493C18.0768 64.8329 18.5318 63.9266 19.0038 63.031C19.1123 62.8249 19.3555 62.7527 19.5468 62.8696C19.737 62.986 19.8042 63.2459 19.6981 63.4514Z" fill="white"/>
<path d="M16.8216 69.7025C16.4436 70.635 16.0842 71.5761 15.7438 72.525C15.6567 72.7679 15.4034 72.8887 15.178 72.7948C14.9525 72.7011 14.8404 72.4281 14.9275 72.1853L14.9288 72.1816C15.2812 71.2231 15.6528 70.2729 16.043 69.3319C16.1389 69.1007 16.3906 68.997 16.6052 69.1003C16.8188 69.203 16.915 69.4721 16.8216 69.7025Z" fill="white"/>
<path d="M14.5274 76.2226C14.2373 77.1904 13.9668 78.1649 13.7165 79.1452C13.6484 79.4119 13.3926 79.5686 13.1451 79.4953C12.8975 79.4219 12.752 79.1463 12.8201 78.8796L12.8211 78.8755C13.0828 77.8833 13.3647 76.8974 13.6666 75.9187C13.7456 75.663 14.0019 75.5246 14.2392 75.6096C14.4754 75.6941 14.6037 75.9681 14.5274 76.2226Z" fill="white"/>
<path d="M12.8513 82.9534C12.6531 83.9473 12.4753 84.9458 12.3178 85.9479C12.2725 86.2366 12.0184 86.4311 11.7505 86.3822C11.4824 86.3334 11.302 86.0597 11.3473 85.771L11.348 85.7666C11.5158 84.7506 11.7042 83.7387 11.9132 82.7318C11.971 82.453 12.2278 82.2775 12.4866 82.3398C12.7441 82.4019 12.9065 82.6762 12.8513 82.9534Z" fill="white"/>
<path d="M11.8378 89.8287C11.74 90.8406 11.6589 91.8549 11.5931 92.8703C11.5731 93.1786 11.325 93.4111 11.0387 93.3896C10.7525 93.3681 10.5366 93.1008 10.5566 92.7924L10.557 92.7876C10.6316 91.7606 10.7216 90.7349 10.8287 89.7106C10.8601 89.4105 11.1114 89.1947 11.3899 89.2285C11.6669 89.2622 11.8666 89.5305 11.8378 89.8287Z" fill="white"/>
<path d="M11.414 96.7922C11.386 97.8099 11.3763 98.8279 11.3752 99.8457C11.3749 100.17 11.1307 100.432 10.8297 100.432C10.5287 100.432 10.285 100.169 10.2853 99.8445V99.844C10.287 98.8136 10.3101 97.7836 10.3449 96.7542C10.3557 96.4362 10.6035 96.1877 10.8987 96.1993C11.1928 96.2108 11.4225 96.476 11.414 96.7922Z" fill="white"/>
<path d="M11.4507 103.77C11.4901 104.787 11.5453 105.802 11.6168 106.816C11.6401 107.145 11.4116 107.432 11.1065 107.457C10.8014 107.482 10.5353 107.236 10.5121 106.907L10.512 106.905C10.4421 105.877 10.3889 104.848 10.3516 103.818C10.3397 103.491 10.5761 103.215 10.8797 103.202C11.1832 103.19 11.4388 103.443 11.4507 103.77Z" fill="white"/>
<path d="M11.9765 110.719C12.0917 111.728 12.2246 112.734 12.3761 113.737C12.4261 114.068 12.2178 114.379 11.9109 114.433C11.604 114.487 11.3147 114.263 11.2647 113.932L11.2645 113.93C11.1132 112.911 10.9809 111.889 10.8664 110.865C10.8296 110.535 11.0482 110.235 11.3547 110.195C11.6613 110.155 11.9395 110.389 11.9765 110.719Z" fill="white"/>
<path d="M13.0557 117.585C13.257 118.576 13.4786 119.563 13.7215 120.543C13.803 120.872 13.6216 121.209 13.3164 121.297C13.0112 121.385 12.6976 121.19 12.6162 120.861L12.6157 120.859C12.3708 119.86 12.1477 118.854 11.9453 117.844C11.879 117.514 12.0741 117.188 12.3807 117.117C12.6874 117.046 12.9894 117.254 13.0557 117.585Z" fill="white"/>
<path d="M14.7674 124.287C15.0675 125.248 15.3906 126.199 15.738 127.14C15.8566 127.461 15.7111 127.825 15.4129 127.953C15.1146 128.081 14.7767 127.924 14.6581 127.603L14.6575 127.601C14.3045 126.638 13.9768 125.664 13.6729 124.682C13.572 124.356 13.7354 124.004 14.0378 123.896C14.3402 123.787 14.6666 123.961 14.7674 124.287Z" fill="white"/>
<path d="M17.2007 130.71C17.6122 131.618 18.0494 132.513 18.5131 133.392C18.6743 133.697 18.5752 134.085 18.2919 134.259C18.0087 134.432 17.6482 134.325 17.4872 134.02L17.4864 134.019C17.0124 133.115 16.566 132.195 16.1463 131.262C16.0051 130.948 16.1269 130.57 16.4183 130.418C16.7096 130.266 17.0594 130.396 17.2007 130.71Z" fill="white"/>
<path d="M20.4332 136.69C20.9653 137.521 21.5243 138.331 22.1097 139.118C22.3167 139.396 22.2752 139.802 22.017 140.025C21.7587 140.248 21.3817 140.203 21.1747 139.925L21.1736 139.924C20.572 139.11 19.9982 138.274 19.4525 137.417C19.2666 137.125 19.3356 136.726 19.6066 136.526C19.8776 136.325 20.2472 136.398 20.4332 136.69Z" fill="white"/>
<path d="M24.4974 142.031C25.1497 142.753 25.8272 143.449 26.5283 144.116C26.7802 144.355 26.8041 144.769 26.5817 145.04C26.3595 145.312 25.9752 145.337 25.7233 145.098L25.7221 145.097C24.9994 144.406 24.3015 143.685 23.63 142.937C23.3979 142.679 23.4043 142.267 23.6441 142.017C23.8842 141.767 24.2655 141.772 24.4974 142.031Z" fill="white"/>
<path d="M29.3454 146.54C29.7236 146.836 30.1071 147.125 30.4955 147.405C30.8828 147.688 31.2819 147.951 31.6753 148.224L31.6936 148.236C31.9758 148.432 32.0574 148.837 31.8759 149.141C31.6945 149.445 31.3208 149.534 31.0386 149.339C30.6314 149.059 30.2186 148.789 29.8176 148.499C29.4155 148.211 29.0184 147.914 28.6265 147.61C28.3519 147.397 28.2898 146.984 28.4877 146.688C28.6857 146.392 29.0688 146.325 29.3435 146.539L29.3454 146.54Z" fill="white"/>
<path d="M34.8319 150.104C35.6718 150.548 36.5273 150.958 37.3959 151.333C37.7011 151.465 37.8492 151.839 37.7269 152.168C37.6045 152.496 37.2599 152.657 36.9547 152.525C36.0573 152.141 35.1729 151.722 34.3044 151.266C34.006 151.11 33.8819 150.723 34.027 150.401C34.1722 150.08 34.5316 149.946 34.83 150.102L34.8319 150.104Z" fill="white"/>
<path d="M40.8062 152.609C41.7044 152.895 42.6124 153.147 43.5277 153.365C43.8421 153.44 44.0407 153.775 43.9713 154.114C43.9018 154.453 43.5926 154.667 43.2782 154.592C42.3361 154.372 41.4006 154.117 40.4745 153.826C40.1624 153.728 39.9833 153.376 40.0743 153.04C40.1653 152.703 40.492 152.51 40.804 152.608L40.8062 152.609Z" fill="white"/>
<path d="M47.0893 154.041C48.0195 154.175 48.9541 154.276 49.891 154.348C50.2055 154.372 50.4425 154.666 50.4202 155.005C50.3979 155.344 50.1271 155.599 49.8125 155.575C48.8525 155.506 47.8941 155.405 46.9392 155.272C46.6236 155.228 46.4008 154.917 46.4417 154.577C46.4825 154.237 46.7714 153.997 47.0871 154.041L47.0893 154.041Z" fill="white"/>
<path d="M53.5134 154.478C54.4538 154.475 55.3944 154.444 56.3342 154.388C56.6422 154.369 56.9059 154.623 56.9231 154.955C56.9403 155.287 56.7065 155.571 56.3985 155.589C55.44 155.651 54.4797 155.686 53.5188 155.693C53.2073 155.695 52.9531 155.425 52.9511 155.09C52.949 154.754 53.1998 154.48 53.5113 154.478L53.5134 154.478Z" fill="white"/>
<path d="M59.952 154.046C60.8876 153.926 61.8209 153.783 62.7512 153.618C63.049 153.565 63.3301 153.783 63.3791 154.103C63.4281 154.424 63.2284 154.727 62.9307 154.78C61.9855 154.951 61.0364 155.1 60.0843 155.226C59.7819 155.266 59.5065 155.034 59.4695 154.709C59.4324 154.383 59.6476 154.086 59.95 154.046L59.952 154.046Z" fill="white"/>
<path d="M66.3252 152.888C67.2477 152.673 68.1665 152.439 69.0812 152.186C69.3563 152.11 69.6364 152.289 69.7069 152.585C69.777 152.88 69.6137 153.179 69.3423 153.258C68.4179 153.525 67.4887 153.774 66.5549 154.003C66.2693 154.073 65.985 153.881 65.9201 153.573C65.855 153.265 66.0338 152.959 66.3194 152.889C66.3203 152.889 66.3242 152.888 66.3252 152.888Z" fill="white"/>
<path d="M72.5882 151.123C73.4917 150.825 74.3905 150.51 75.2845 150.178C75.5337 150.086 75.8053 150.229 75.891 150.497C75.9761 150.764 75.8458 151.054 75.6001 151.149C74.6997 151.495 73.7938 151.825 72.8825 152.138C72.623 152.227 72.3454 152.072 72.2627 151.793C72.1798 151.513 72.3232 151.214 72.5828 151.125C72.5837 151.124 72.5872 151.123 72.5882 151.123Z" fill="white"/>
<path d="M78.7073 148.822C79.5879 148.45 80.4631 148.063 81.3323 147.662C81.5558 147.558 81.8145 147.67 81.9104 147.91C82.0056 148.149 81.9042 148.426 81.6842 148.531C80.8106 148.947 79.9307 149.349 79.045 149.735C78.8115 149.837 78.5454 149.716 78.4509 149.464C78.3562 149.213 78.4689 148.926 78.7025 148.824C78.7033 148.824 78.7065 148.822 78.7073 148.822Z" fill="white"/>
<path d="M84.6545 146.036C85.5077 145.596 86.3521 145.138 87.1937 144.668C87.3913 144.557 87.6348 144.64 87.7372 144.853C87.8389 145.065 87.7634 145.325 87.5689 145.437C86.7276 145.92 85.8782 146.393 85.0217 146.848C84.8141 146.959 84.5626 146.867 84.4599 146.644C84.3572 146.42 84.4423 146.149 84.6498 146.039C84.6505 146.038 84.6537 146.036 84.6545 146.036Z" fill="white"/>
<path d="M90.3854 142.771C91.2014 142.256 92.0075 141.723 92.803 141.172C92.9662 141.059 93.1839 141.11 93.2889 141.286C93.3928 141.46 93.3475 141.691 93.1887 141.806C92.3944 142.378 91.5888 142.933 90.7724 143.469C90.5945 143.586 90.3624 143.525 90.254 143.333C90.1455 143.142 90.2018 142.891 90.3797 142.775C90.3809 142.774 90.384 142.772 90.3854 142.771Z" fill="white"/>
<path d="M95.8173 138.958C96.5846 138.361 97.3406 137.747 98.0846 137.117C98.2117 137.009 98.3959 137.032 98.4961 137.169C98.595 137.305 98.5743 137.5 98.451 137.609C97.7113 138.259 96.9592 138.894 96.195 139.511C96.0542 139.624 95.8545 139.594 95.7489 139.442C95.6433 139.29 95.6719 139.075 95.8127 138.961C95.8139 138.961 95.8163 138.959 95.8173 138.958Z" fill="white"/>
<path d="M100.895 134.604C101.608 133.932 102.306 133.243 102.997 132.543C103.09 132.448 103.237 132.453 103.325 132.554C103.412 132.653 103.409 132.808 103.32 132.903C102.642 133.627 101.947 134.33 101.241 135.022C101.134 135.126 100.97 135.118 100.873 135.003C100.777 134.889 100.785 134.711 100.891 134.607C100.892 134.606 100.894 134.605 100.895 134.604Z" fill="white"/>
<path d="M105.593 129.768L106.571 128.647L106.573 128.645C106.638 128.571 106.746 128.567 106.815 128.637C106.882 128.705 106.886 128.82 106.825 128.894L105.868 130.045C105.799 130.128 105.68 130.135 105.602 130.061C105.525 129.986 105.518 129.858 105.588 129.774C105.589 129.773 105.589 129.772 105.59 129.771L105.593 129.768Z" fill="white"/>
<path d="M100.285 85.0481H56.0585C55.6606 85.0481 55.3351 84.6974 55.3351 84.2688V79.849C55.3351 79.4204 55.6606 79.0697 56.0585 79.0697H100.285C100.683 79.0697 101.008 79.4204 101.008 79.849V84.2688C101.008 84.6974 100.683 85.0481 100.285 85.0481Z" fill="white"/>
<path d="M101.979 110.935L110.763 124.656L115.613 112.349L101.979 110.935Z" fill="#173EAD"/>
<path d="M154.212 60.5076L140.623 118.565C140.363 119.676 139.694 120.626 138.77 121.195C137.846 121.764 136.747 121.904 135.726 121.582L82.1309 104.688C81.5173 104.494 81.0739 103.919 81.01 103.234C80.9462 102.548 81.2746 101.89 81.8404 101.569L154.212 60.5076Z" fill="#1D4ED8"/>
<path d="M101.984 110.934L154.212 60.5077L110.626 113.689L112.911 117.606L101.984 110.934Z" fill="#173EAD"/>
<path d="M115.761 115.281L110.763 124.656L110.626 113.689L115.761 115.281Z" fill="#1D4ED8"/>
<defs>
<linearGradient id="paint0_linear_1_11845" x1="188.727" y1="232.808" x2="27.4027" y2="46.8252" gradientUnits="userSpaceOnUse">
<stop stop-color="#DAE3FE"/>
<stop offset="1" stop-color="#E9EFFD"/>
</linearGradient>
<linearGradient id="paint1_linear_1_11845" x1="125.028" y1="220.099" x2="68.4796" y2="44.4509" gradientUnits="userSpaceOnUse">
<stop stop-color="#09005D"/>
<stop offset="1" stop-color="#1A0F91"/>
</linearGradient>
<linearGradient id="paint2_linear_1_11845" x1="78.9349" y1="131.843" x2="145.356" y2="174.038" gradientUnits="userSpaceOnUse">
<stop stop-color="#E1473D"/>
<stop offset="1" stop-color="#E9605A"/>
</linearGradient>
</defs>
</svg>
